<svg id="Layer_1" data-name="Layer 1" xmlns="http://www.w3.org/2000/svg" viewBox="0 0 1649.134 1194.777"><defs><style>.cls-1,.cls-3{fill:none}.cls-2{clip-path:url(#clip-path)}.cls-3{stroke:#010101;stroke-linecap:round;stroke-linejoin:round;stroke-width:22px}.cls-4{fill:#fff}.cls-6{fill:#ef3642}</style><clipPath id="clip-path" transform="translate(.001 56.64)"><path class="cls-1" d="M0 .002h1649.133V1079.49H0z"/></clipPath><clipPath id="clip-path-2" transform="translate(.001 56.64)"><path class="cls-1" d="M630.011 87.514c-120.385 85.206 8.6 214.678 198.128 248.743l54.692-75.521S853.541 48.72 730.56 48.689c-28.3-.006-61.537 11.212-100.549 38.825"/></clipPath><clipPath id="clip-path-4" transform="translate(.001 56.64)"><path class="cls-1" d="M831.221 346.536v39.428s101.381-1.9 136.047-1.9 41.2 22.077 41.2 22.077l11.168-2.79v-56.815a94.208 94.208 0 1 0-188.417 0"/></clipPath><clipPath id="clip-path-6" transform="translate(.001 56.64)"><path class="cls-1" d="M1160.875 19.489C972.928 115.954 970.194 327.84 970.194 327.84l45.385 9.814c183.287-28.96 263.165-86.255 262.185-183.76C1277.155 93.3 1247.6 10.99 1192.716 11c-9.808 0-20.436 2.633-31.841 8.487"/></clipPath><clipPath id="clip-path-7" transform="translate(.001 56.64)"><rect class="cls-1" x="785.814" y="409.161" width="267.568" height="670.329" rx="50" ry="50"/></clipPath></defs><g class="cls-2"><path class="cls-3" d="M68.194 965.614l-46.181 25.872"/><path class="cls-3" d="M89.1 940.4s-23.917 34.121-23.768 33.417M51.518 873.9s-41.119 6.744-40.512 6.359" transform="translate(.001 56.64)"/><path class="cls-3" d="M1584.194 313.553l40.199-26.669"/><path class="cls-3" d="M1563.051 229.789s19.4-32.644 19.312-31.994m19.385 89.85s36.906-8.94 36.38-8.55" transform="translate(.001 56.64)"/><path class="cls-4" d="M853.029 260.736S808.748-60.087 600.209 87.513c-120.386 85.207 8.6 214.679 198.129 248.744" transform="translate(.001 56.64)"/></g><g clip-path="url(#clip-path-2)"><path class="cls-6" transform="rotate(-77 731.831 220.789)" d="M514.15-21.695h364.156v428.33H514.15z"/></g><g class="cls-2"><path class="cls-4" d="M986.194 385.964v-39.428a94.209 94.209 0 1 0-188.417 0v39.428" transform="translate(.001 56.64)"/></g><g clip-path="url(#clip-path-4)"><path class="cls-6" transform="rotate(-77 961.033 357.553)" d="M829.301 220.14h192.257v218.189H829.301z"/></g><g class="cls-2"><path class="cls-4" d="M944.993 268.648s-1.867-152.694 186.08-249.159c75.224-38.61 116.172 62.979 116.89 134.4.979 97.505-78.9 154.8-262.186 183.76" transform="translate(.001 56.64)"/></g><g clip-path="url(#clip-path-6)"><path class="cls-6" transform="rotate(-77 1160.072 202.642)" d="M930.619-12.741h387.7v374.125h-387.7z"/></g><g clip-path="url(#clip-path-7)"><path class="cls-6" transform="rotate(-77 955.2 772.645)" d="M562.929 538.575h713.338v411.501H562.929z"/></g><g class="cls-2"><path class="cls-6" d="M1580.286 390.825a224.6 224.6 0 0 0-64.221-112.142c-27.655-26.506-60.833-38.753-99.366-35.436-26.143 2.25-49.764 11.824-72.283 24.669-10.5 6.021-21.018 12.013-30.419 19.735-40.27 33.074-59.847 74.068-54.118 123.878h62.756a62.8 62.8 0 0 1 22.224 4.048q-3.641-9.6-6.477-19.6c-6.589-23.272-6.568-47.178 10.326-66.411 23.813-27.109 58.452-36.7 90.377-11.278 19.643 15.643 32.554 36.348 41.6 52.138 12.944 23.141 21.822 41.133 26.037 61 7.442 35.072-3.072 57.64-34.335 74.2-28.8 15.251-57.936 10.9-80.468-13.831-2.164-2.375-4.256-4.8-6.317-7.238v88.551c18.154 3.978 37.514 3.588 57.927-1.135 38.727-8.961 72.717-28.076 100.877-56.087 34.9-34.72 47.271-77.02 35.883-125.059M486.753 807.132c-10.812 28.555-21.7 51.622-37.069 72.43-34.714 47-73.6 58.59-127.594 38.376-49.74-18.621-75.944-58.85-70.158-113.067 6.467-60.6 26.034-117.5 58.924-168.886 20.712-32.363 48.958-57.709 89.009-59.155v-89.949c-85.2-9.094-156.43 18.628-209.356 90.534-42.086 57.178-63.694 122.563-68.337 193.271-5.086 77.459 25.111 139.256 87.818 183.817 52.807 37.526 112.868 58.3 177.475 62.338 36.324 2.272 69.522-2.822 99.288-15.184z" transform="translate(.001 56.64)"/><path class="cls-3" d="M1464.465 816.871v62.641m-31.32-31.321h62.641M322.475 87.494l58.597 58.597m-58.597-.001l58.597-58.597"/><path class="cls-6" d="M528.4 269.461c7.413 1.759 14.407 4.442 20.473 9.205a36.092 36.092 0 0 1 14.232 27.548 66.02 66.02 0 0 1-8.707 36.97c-7.194 12.6-18.337 19.207-32.8 19.66a61.1 61.1 0 0 1-32.92-8.194c-12.012-6.941-18.477-17.527-18.873-31.521a64.806 64.806 0 0 1 9-35.857c8.824-14.7 22.221-20.755 39.1-19.677a63.812 63.812 0 0 1 10.493 1.866m8.7 49.358c1.226-5.206 2.607-12.243 1.527-19.544-1.756-11.866-11.12-16.756-21.673-15.712-7.488.741-12.29 5.871-15.543 12.192a69.681 69.681 0 0 0-7.727 31.32c-.123 9.832 5.262 16.612 14.508 19.116 10.036 2.717 16.822-.02 22.261-9.047 3.081-5.112 4.784-10.758 6.647-18.325M131.9 228.466c11.493-9.69 23.956-17.631 38.627-21.662 21.624-5.94 41.831-2.443 60.386 9.767a130.219 130.219 0 0 1 48.4 57.2c11.541 26.2 8.934 51.618-7.322 75.084a120.556 120.556 0 0 1-51.631 42.583c-25.1 10.9-49.48 8.73-72.134-7.068-20.68-14.42-36.619-33.029-46.291-56.364-12.949-31.243-6.83-59.593 14.688-85.089 4.55-5.391 9.92-9.914 15.272-14.451m88.477 44.141c-6.816-8.054-16.354-18.5-29.2-25.361-20.877-11.144-39.621-2.034-50.352 15.927-7.613 12.743-5.113 26.377 1.09 38.955a137.453 137.453 0 0 0 40.595 49.012c15.447 11.736 32.518 11.155 47.339-.568 16.089-12.726 19.713-26.7 11.783-45.917-4.491-10.886-11.443-20.212-21.256-32.048" transform="translate(.001 56.64)"/><rect class="cls-3" x="758.203" y="440.705" width="267.567" height="670.329" rx="50" ry="50"/><path class="cls-3" d="M986.194 381.031v-34.495a94.209 94.209 0 1 0-188.417 0v34.495M758.2 680.444H462.967a53.732 53.732 0 0 1-53.732-53.731V466.607a53.732 53.732 0 0 1 53.732-53.731H758.2m267.569 0H1321a53.732 53.732 0 0 1 53.732 53.731v160.106A53.732 53.732 0 0 1 1321 680.444h-295.231m0 0h274.821v287.981a53.731 53.731 0 0 1-53.731 53.732H1027.77m-272.889 0h-217.77a53.731 53.731 0 0 1-53.731-53.731V680.444H758.2" transform="translate(.001 56.64)"/><path class="cls-3" d="M853.029 260.736S808.748-60.087 600.209 87.513c-120.386 85.207 8.6 214.679 198.129 248.744m146.655-67.609s-1.867-152.694 186.08-249.159c75.224-38.61 116.172 62.979 116.89 134.4.979 97.505-78.9 154.8-262.186 183.76" transform="translate(.001 56.64)"/><path class="cls-3" d="M816.228 290.532S734.9 124.521 620.647 131.947c-33.9 2.2-8.259 42.381-8.259 42.381m373.806 143.85s48.707-177.66 199.186-208.593c37.969-7.8 20.873 57.2 20.873 57.2" transform="translate(.001 56.64)"/></g></svg>