<?xml version="1.0" encoding="utf-8"?>
<!-- Generator: Adobe Illustrator 21.1.0, SVG Export Plug-In . SVG Version: 6.00 Build 0)  -->
<svg version="1.1" id="Layer_1" xmlns="http://www.w3.org/2000/svg" xmlns:xlink="http://www.w3.org/1999/xlink" x="0px" y="0px"
	 viewBox="0 0 1250.3 1138.5" style="enable-background:new 0 0 1250.3 1138.5;" xml:space="preserve">
<style type="text/css">
	.st0{clip-path:url(#SVGID_2_);}
	.st1{fill:none;stroke:#010101;stroke-width:22;stroke-linecap:round;stroke-linejoin:round;}
	.st2{fill:#EF3642;}
	.st3{clip-path:url(#SVGID_4_);}
</style>
<g>
	<defs>
		<rect id="SVGID_1_" y="0" width="1250.3" height="1138.5"/>
	</defs>
	<clipPath id="SVGID_2_">
		<use xlink:href="#SVGID_1_"  style="overflow:visible;"/>
	</clipPath>
	<g class="st0">
		<path class="st1" d="M68.2,957.6L22,983.5 M89.1,989c0,0-23.9,34.1-23.8,33.4 M51.5,922.5c0,0-41.1,6.7-40.5,6.4 M1185.4,518.6
			l40.2-26.7 M1164.2,491.4c0,0,19.4-32.6,19.3-32 M1202.9,549.3c0,0,36.9-8.9,36.4-8.5 M382.8,1068.8v58.7 M353.4,1098.2h58.7
			 M214.8,141v41 M194.2,161.5h41 M980.3,294.6l75.2,75.2 M980.3,369.8l75.2-75.2"/>
		<path class="st2" d="M992.7,5.4c10.9,3.7,21.1,8.7,29.5,16.8c12.5,11.8,18.2,26.5,17.5,43.5c-0.7,19.6-7,38.5-18.4,54.5
			c-12.6,18-30.3,26.3-52.2,25c-17.4-1-34.2-6.9-48.4-17c-17.1-12.2-25.4-29-24-50.2c1.3-19.3,7.2-37.1,18.7-52.7
			C930.8,4.3,951.9-3,977.1,1.1C982.4,2.1,987.6,3.5,992.7,5.4 M998.8,81c2.6-7.7,5.7-18.1,5.1-29.2c-1-18.1-14.4-26.8-30.4-26.8
			c-11.4,0.1-19.3,7.1-25.1,16.2c-8.9,13.9-14.4,29.7-16.1,46.1c-1.6,14.8,5.6,25.8,19.1,30.9c14.7,5.5,25.3,2.4,34.8-10.5
			C991.5,100.4,994.9,92.1,998.8,81 M1187.1,161.5c8-0.4,15.9,0.2,23.5,3.2c11.1,4.5,18.6,12.5,22.6,23.7c4.6,12.8,5.4,26.8,2.2,40
			c-3.5,14.9-12.9,24.9-27.4,29.7c-11.5,3.9-24,4.4-35.8,1.5c-14.2-3.5-23.9-12.3-28.5-26.3c-4.2-12.8-5-25.9-1.5-39
			c4.6-17.5,16.3-27.6,33.8-31.6C1179.6,162,1183.4,161.6,1187.1,161.5 M1210.6,208.9c-0.3-5.6-1-13.2-4.3-20.3
			c-5.3-11.5-16.2-13.7-26.6-9.5c-7.4,3-10.7,9.6-12.1,17c-2.2,11.3-1.7,23,1.5,34c2.8,10,10.3,15.3,20.4,15.1
			c11-0.2,17-5,19.9-15.8C1210.9,223.3,1211,217.1,1210.6,208.9 M958.4,973.9c11.8,4,22.7,9.4,31.8,18.1
			c13.4,12.8,19.6,28.6,18.9,46.9c-0.7,21.1-7.6,41.5-19.8,58.7c-13.6,19.4-32.7,28.4-56.3,26.9c-18.8-1.1-36.9-7.4-52.2-18.3
			c-18.4-13.1-27.3-31.3-25.8-54.1c1.4-20.8,7.7-40,20.1-56.8c16.6-22.5,39.3-30.3,66.5-26C947.3,970.3,952.9,971.9,958.4,973.9
			 M964.9,1055.3c2.8-8.3,6.1-19.5,5.5-31.5c-1-19.5-15.5-28.9-32.8-28.8c-12.3,0.1-20.9,7.7-27.1,17.4c-9.6,15-15.5,32-17.3,49.7
			c-1.7,15.9,6,27.8,20.6,33.3c15.9,5.9,27.3,2.5,37.5-11.3C957.1,1076.3,960.8,1067.3,964.9,1055.3 M172.1,300.2
			c14.1-7.8,28.8-13.6,45.1-14.8c23.9-1.8,44.4,6.1,61.4,22.8c19.6,19,33.2,43.4,39,70.1c6.7,29.9-1.3,56.1-23.2,77.4
			c-17.4,17.1-39.2,28.9-63,34c-28.6,6.3-53.8-1.1-74.3-22.3c-18.7-19.4-31.6-42.3-37-68.8c-7.1-35.5,5.2-64,33-86.3
			C158.9,307.5,165.5,303.8,172.1,300.2 M255.9,364.9c-5.5-9.9-13.4-22.8-25.4-32.7c-19.6-16-41.2-10.3-56.2,6.3
			c-10.6,11.8-10.8,26.6-6.9,41.1c6,22.2,17.1,42.7,32.5,59.9c13.8,15.5,31.8,18.4,49.8,9.2c19.5-10,26.2-24,21.9-45.8
			C269.1,390.6,263.7,379.3,255.9,364.9"/>
		<path class="st1" d="M440.2,953.6l72.4,73v-73 M906.2,812.3l-54.3,54.8v-54.8 M906.2,812.3h177.4c34.6-0.1,62.6-28.1,62.7-62.7
			V607.9c-0.1-34.6-28.1-62.6-62.7-62.7H830.4c-34.6,0.1-62.6,28.1-62.7,62.7v141.8c0.1,34.6,28.1,62.6,62.7,62.7h21.5 M565.2,425.8
			l-63.8,64.3v-64.3 M565.2,425.8h208.3c40.6-0.1,73.5-33,73.6-73.6V185.8c-0.1-40.6-33-73.5-73.6-73.6H476.2
			c-40.6,0.1-73.5,33-73.6,73.6v166.5c0.1,40.6,33,73.5,73.6,73.6h25.2"/>
	</g>
</g>
<g>
	<defs>
		<rect id="SVGID_3_" y="0" width="1250.3" height="1138.5"/>
	</defs>
	<clipPath id="SVGID_4_">
		<use xlink:href="#SVGID_3_"  style="overflow:visible;"/>
	</clipPath>
	<g class="st3">
		<path class="st1" d="M440.2,953.6H203.6c-46.1-0.1-83.4-37.5-83.6-83.6V681c0.1-46.1,37.5-83.4,83.6-83.6h337.6
			c46.1,0.1,83.4,37.5,83.6,83.6v189.1c-0.1,46.1-37.5,83.4-83.6,83.6h-28.6"/>
	</g>
</g>
<g>
	<path d="M670.4,261.7c2.4-3.6,3.6-7.5,3.6-11.9c0-5-1.8-9.3-5.5-13c-3.7-3.7-8.1-5.5-13.1-5.5h-12.8c2.3-4.8,3.5-9.5,3.5-14
		c0-5.7-0.9-10.2-2.5-13.5c-1.7-3.3-4.2-5.8-7.4-7.4c-3.2-1.6-6.9-2.4-11-2.4c-2.5,0-4.7,0.9-6.5,2.7c-2.1,2-3.6,4.7-4.5,7.9
		c-0.9,3.2-1.7,6.3-2.2,9.2c-0.6,2.9-1.4,5-2.6,6.2c-2.4,2.6-5,5.7-7.8,9.3c-4.9,6.4-8.2,10.1-10,11.3h-19.9c-2.6,0-4.8,0.9-6.6,2.7
		c-1.8,1.8-2.7,4-2.7,6.6v46.5c0,2.6,0.9,4.8,2.7,6.6c1.8,1.8,4,2.7,6.6,2.7h20.9c1.1,0,4.4,1,10,2.9c6,2.1,11.2,3.7,15.7,4.8
		c4.5,1.1,9.1,1.6,13.8,1.6h6.8h2.6c6.8,0,12.3-2,16.5-5.9c4.2-3.9,6.2-9.2,6.2-16c2.9-3.7,4.4-8,4.4-12.9c0-1.1-0.1-2.1-0.2-3.1
		c1.8-3.2,2.8-6.7,2.8-10.5C671.1,265,670.9,263.3,670.4,261.7z M579.5,295.1c-0.9,0.9-2,1.4-3.3,1.4c-1.3,0-2.4-0.5-3.3-1.4
		c-0.9-0.9-1.4-2-1.4-3.3c0-1.3,0.5-2.4,1.4-3.3c0.9-0.9,2-1.4,3.3-1.4c1.3,0,2.4,0.5,3.3,1.4c0.9,0.9,1.4,2,1.4,3.3
		C580.9,293.1,580.4,294.2,579.5,295.1z M663.1,255.8c-1,2.2-2.3,3.4-3.9,3.4c0.7,0.8,1.3,2,1.8,3.5c0.5,1.5,0.7,2.8,0.7,4
		c0,3.3-1.3,6.2-3.9,8.7c0.9,1.6,1.3,3.2,1.3,5c0,1.8-0.4,3.6-1.3,5.3c-0.8,1.8-2,3-3.5,3.8c0.2,1.5,0.4,2.8,0.4,4.1
		c0,8.1-4.7,12.1-14,12.1h-8.8c-6.4,0-14.6-1.8-24.9-5.3c-0.2-0.1-0.9-0.4-2.1-0.8c-1.2-0.4-2-0.7-2.6-0.9c-0.6-0.2-1.4-0.5-2.5-0.8
		c-1.1-0.4-2.1-0.6-2.8-0.8c-0.7-0.2-1.5-0.3-2.4-0.5c-0.9-0.1-1.7-0.2-2.3-0.2h-2.3v-46.5h2.3c0.8,0,1.6-0.2,2.6-0.7
		c0.9-0.4,1.9-1.1,2.9-2c1-0.9,1.9-1.7,2.8-2.6c0.9-0.8,1.8-1.9,2.9-3.2c1.1-1.3,1.9-2.3,2.5-3.1c0.6-0.8,1.4-1.8,2.3-3
		c0.9-1.2,1.5-1.9,1.7-2.2c2.7-3.3,4.5-5.5,5.6-6.6c2-2.1,3.4-4.7,4.3-8c0.9-3.2,1.6-6.3,2.2-9.1c0.6-2.9,1.5-4.9,2.8-6.2
		c4.7,0,7.8,1.1,9.3,3.4c1.6,2.3,2.3,5.8,2.3,10.5c0,2.9-1.2,6.8-3.5,11.7c-2.3,4.9-3.5,8.8-3.5,11.6h25.6c2.4,0,4.6,0.9,6.5,2.8
		c1.9,1.9,2.8,4,2.8,6.5C664.7,251.6,664.2,253.6,663.1,255.8z"/>
</g>
<g>
	<path d="M1017.4,684.7c2.4-3.6,3.6-7.5,3.6-11.9c0-5-1.8-9.3-5.5-13c-3.7-3.7-8.1-5.5-13.1-5.5h-12.8c2.3-4.8,3.5-9.5,3.5-14
		c0-5.7-0.9-10.2-2.5-13.5c-1.7-3.3-4.2-5.8-7.4-7.4c-3.2-1.6-6.9-2.4-11-2.4c-2.5,0-4.7,0.9-6.5,2.7c-2.1,2-3.6,4.7-4.5,7.9
		c-0.9,3.2-1.7,6.3-2.2,9.2c-0.6,2.9-1.4,5-2.6,6.2c-2.4,2.6-5,5.7-7.8,9.3c-4.9,6.4-8.2,10.1-10,11.3h-19.9c-2.6,0-4.8,0.9-6.6,2.7
		c-1.8,1.8-2.7,4-2.7,6.6v46.5c0,2.6,0.9,4.8,2.7,6.6c1.8,1.8,4,2.7,6.6,2.7h20.9c1.1,0,4.4,1,10,2.9c6,2.1,11.2,3.7,15.7,4.8
		c4.5,1.1,9.1,1.6,13.8,1.6h6.8h2.6c6.8,0,12.3-2,16.5-5.9c4.2-3.9,6.2-9.2,6.2-16c2.9-3.7,4.4-8,4.4-12.9c0-1.1-0.1-2.1-0.2-3.1
		c1.8-3.2,2.8-6.7,2.8-10.5C1018.1,688,1017.9,686.3,1017.4,684.7z M926.5,718.1c-0.9,0.9-2,1.4-3.3,1.4c-1.3,0-2.4-0.5-3.3-1.4
		c-0.9-0.9-1.4-2-1.4-3.3c0-1.3,0.5-2.4,1.4-3.3c0.9-0.9,2-1.4,3.3-1.4c1.3,0,2.4,0.5,3.3,1.4c0.9,0.9,1.4,2,1.4,3.3
		C927.9,716.1,927.4,717.2,926.5,718.1z M1010.1,678.8c-1,2.2-2.3,3.4-3.9,3.4c0.7,0.8,1.3,2,1.8,3.5c0.5,1.5,0.7,2.8,0.7,4
		c0,3.3-1.3,6.2-3.9,8.7c0.9,1.6,1.3,3.2,1.3,5c0,1.8-0.4,3.6-1.3,5.3c-0.8,1.8-2,3-3.5,3.8c0.2,1.5,0.4,2.8,0.4,4.1
		c0,8.1-4.7,12.1-14,12.1h-8.8c-6.4,0-14.6-1.8-24.9-5.3c-0.2-0.1-0.9-0.4-2.1-0.8c-1.2-0.4-2-0.7-2.6-0.9c-0.6-0.2-1.4-0.5-2.5-0.8
		c-1.1-0.4-2.1-0.6-2.8-0.8c-0.7-0.2-1.5-0.3-2.4-0.5c-0.9-0.1-1.7-0.2-2.3-0.2h-2.3v-46.5h2.3c0.8,0,1.6-0.2,2.6-0.7
		c0.9-0.4,1.9-1.1,2.9-2c1-0.9,1.9-1.7,2.8-2.6c0.9-0.8,1.8-1.9,2.9-3.2c1.1-1.3,1.9-2.3,2.5-3.1c0.6-0.8,1.4-1.8,2.3-3
		c0.9-1.2,1.5-1.9,1.7-2.2c2.7-3.3,4.5-5.5,5.6-6.6c2-2.1,3.4-4.7,4.3-8c0.9-3.2,1.6-6.3,2.2-9.1c0.6-2.9,1.5-4.9,2.8-6.2
		c4.7,0,7.8,1.1,9.3,3.4c1.6,2.3,2.3,5.8,2.3,10.5c0,2.9-1.2,6.8-3.5,11.7c-2.3,4.9-3.5,8.8-3.5,11.6h25.6c2.4,0,4.6,0.9,6.5,2.8
		c1.9,1.9,2.8,4,2.8,6.5C1011.7,674.6,1011.2,676.6,1010.1,678.8z"/>
</g>
<g>
	<path d="M434.1,771.7c3-4.6,4.6-9.7,4.6-15.2c0-6.4-2.4-12-7.1-16.7c-4.7-4.7-10.3-7.1-16.8-7.1h-16.4c3-6.2,4.5-12.1,4.5-17.9
		c0-7.3-1.1-13-3.3-17.3c-2.2-4.3-5.3-7.4-9.5-9.5c-4.2-2-8.9-3-14.1-3c-3.2,0-6,1.1-8.4,3.4c-2.7,2.6-4.6,6-5.8,10.1
		c-1.2,4.1-2.1,8-2.8,11.8c-0.7,3.8-1.8,6.4-3.3,8c-3,3.3-6.4,7.3-10,11.9c-6.3,8.1-10.5,13-12.8,14.4h-25.5c-3.3,0-6.1,1.2-8.4,3.5
		c-2.3,2.3-3.5,5.1-3.5,8.4v59.7c0,3.3,1.2,6.1,3.5,8.4c2.3,2.3,5.1,3.5,8.4,3.5h26.8c1.4,0,5.7,1.2,12.9,3.7
		c7.6,2.7,14.4,4.7,20.2,6.1c5.8,1.4,11.7,2.1,17.7,2.1h8.7h3.4c8.8,0,15.8-2.5,21.2-7.5c5.3-5,8-11.8,7.9-20.5
		c3.7-4.8,5.6-10.3,5.6-16.6c0-1.4-0.1-2.7-0.3-4c2.4-4.2,3.5-8.6,3.5-13.4C435,775.9,434.7,773.7,434.1,771.7z M317.6,814.5
		c-1.2,1.2-2.6,1.8-4.2,1.8c-1.6,0-3-0.6-4.2-1.8c-1.2-1.2-1.8-2.6-1.8-4.2c0-1.6,0.6-3,1.8-4.2c1.2-1.2,2.6-1.8,4.2-1.8
		c1.6,0,3,0.6,4.2,1.8c1.2,1.2,1.8,2.6,1.8,4.2C319.4,811.9,318.8,813.3,317.6,814.5z M424.7,764.1c-1.3,2.9-3,4.3-5,4.4
		c0.9,1.1,1.7,2.5,2.3,4.4c0.6,1.9,0.9,3.6,0.9,5.2c0,4.3-1.6,8-4.9,11.1c1.1,2,1.7,4.1,1.7,6.4c0,2.3-0.5,4.6-1.6,6.9
		c-1.1,2.3-2.6,3.9-4.4,4.9c0.3,1.9,0.5,3.6,0.5,5.2c0,10.4-6,15.6-17.9,15.6H385c-8.1,0-18.8-2.3-31.9-6.8c-0.3-0.1-1.2-0.5-2.7-1
		c-1.5-0.5-2.6-0.9-3.3-1.2c-0.7-0.3-1.8-0.6-3.3-1.1c-1.5-0.5-2.6-0.8-3.5-1c-0.9-0.2-1.9-0.4-3.1-0.6c-1.1-0.2-2.1-0.3-2.9-0.3h-3
		v-59.6h3c1,0,2.1-0.3,3.3-0.8c1.2-0.6,2.5-1.4,3.7-2.5c1.3-1.1,2.5-2.2,3.6-3.3c1.1-1.1,2.4-2.5,3.7-4.1c1.4-1.6,2.4-3,3.2-4
		c0.8-1,1.8-2.3,2.9-3.8c1.2-1.6,1.9-2.5,2.1-2.8c3.4-4.2,5.8-7.1,7.2-8.5c2.5-2.7,4.4-6.1,5.5-10.2c1.2-4.1,2.1-8,2.8-11.7
		c0.7-3.7,1.9-6.3,3.5-7.9c6,0,9.9,1.5,11.9,4.4c2,2.9,3,7.4,3,13.5c0,3.7-1.5,8.7-4.5,15c-3,6.3-4.5,11.3-4.5,14.9h32.8
		c3.1,0,5.9,1.2,8.3,3.6c2.4,2.4,3.6,5.2,3.6,8.3C426.8,758.8,426.1,761.3,424.7,764.1z"/>
</g>
</svg>
