<svg id="Layer_1" data-name="Layer 1" xmlns="http://www.w3.org/2000/svg" viewBox="0 0 1643.111 1190.014"><defs><style>.cls-1,.cls-8{fill:none}.cls-2{fill:#ef3642}.cls-4{fill:#575f67}.cls-5{fill:#fff}.cls-8{stroke:#010101;stroke-linecap:round;stroke-linejoin:round;stroke-width:22px}</style><clipPath id="clip-path" transform="translate(0 .004)"><path class="cls-1" d="M0-.004h1643.11V1190.01H0z"/></clipPath><clipPath id="clip-path-2" transform="translate(0 .004)"><path class="cls-2" d="M766.144 621.849A126.326 126.326 0 1 0 892.47 495.522a126.327 126.327 0 0 0-126.326 126.327"/></clipPath></defs><path class="cls-2" d="M1601.6 215.254c-22.7-25.794-51.144-43.236-82.183-56.975-14.5-6.377-29-12.8-44.44-16.7-64.023-16.176-120.792-6.163-167.915 35.074a91.413 91.413 0 0 1 19.575 56.672v123.491a308.462 308.462 0 0 1 53.163-105.335c19.4-25.034 44.6-43.6 77.992-40.75 47.073 4.013 84.11 33.048 82.143 86.447-1.21 32.856-12.987 62.554-22.591 84.357-14.317 31.627-26.37 54.967-44.022 74.852-31.165 35.106-63.114 41.574-104.86 21.507-19.4-9.326-33.607-22.627-41.831-39.031v94.507a276.264 276.264 0 0 0 87.01 28.375c63.714 9.781 117.892-10.075 159.65-59.419 37.806-44.673 60.707-96.7 68.219-154.84 6.429-49.741-6.462-94.216-39.91-132.232z" transform="translate(0 .004)"/><path class="cls-1" d="M0 0h1643.11v1190.014H0z"/><g clip-path="url(#clip-path)"><path class="cls-4" transform="rotate(-68.114 1208.413 867.968)" d="M1156.882 846.632h103.039v42.667h-103.039z"/><path class="cls-4" d="M1254.307 621.849c0 199.837-162 361.836-361.837 361.836s-361.836-162-361.836-361.836 162-361.837 361.836-361.837 361.837 162 361.837 361.837" transform="translate(0 .004)"/><path class="cls-5" d="M530.634 621.849c0-199.837 162-361.837 361.836-361.837a360.31 360.31 0 0 1 225.956 79.213A360.609 360.609 0 0 0 868.47 239.012c-199.836 0-361.836 162-361.836 361.837 0 114.354 53.052 216.315 135.882 282.624a360.8 360.8 0 0 1-111.882-261.624" transform="translate(0 .004)"/><path d="M1214.307 621.849c0 177.745-144.091 321.836-321.837 321.836S570.634 799.594 570.634 621.849 714.725 300.012 892.47 300.012s321.837 144.088 321.837 321.837" transform="translate(0 .004)" fill="#25292d"/></g><path class="cls-2" d="M766.144 621.849A126.326 126.326 0 1 0 892.47 495.522a126.327 126.327 0 0 0-126.326 126.327" transform="translate(0 .004)"/><g clip-path="url(#clip-path-2)"><path class="cls-2" transform="rotate(-77 892.472 621.85)" d="M740.964 470.343h303.012v303.011H740.964z"/></g><path class="cls-5" d="M766.144 621.849A126.341 126.341 0 0 1 962.938 516.99 126.327 126.327 0 1 0 798 705.707a125.834 125.834 0 0 1-31.859-83.858" transform="translate(0 .004)"/><path class="cls-8" d="M1326.634 59.269v58.735m-29.368-29.367h58.735M291.824 1000.096v34.964m-17.481-17.482h34.964M160.12 606.171l44.486 44.485m-44.486.001l44.486-44.485m1225.313 64.639l69.801 69.801m-69.801 0l69.801-69.801"/><path class="cls-2" d="M106.989 23.941c18.265-11.447 37.557-20.216 59.2-22.986 31.9-4.084 59.882 4.945 83.77 26.012a186.743 186.743 0 0 1 57.218 90.947c11.117 39.516 2.3 75.084-25.5 105.131a172.892 172.892 0 0 1-81.869 50.072c-37.838 10.426-72.007 2.44-100.994-24.545-26.461-24.633-45.345-54.259-54.384-89.334-12.1-46.962 2.29-85.982 37.97-117.853 7.544-6.739 16.078-12.08 24.591-17.444m116.737 80.465c-8.058-12.806-19.5-29.562-36.355-41.88-27.4-20.02-55.843-10.855-74.691 12.486-13.372 16.56-12.565 36.42-6.288 55.527a197.113 197.113 0 0 0 47.776 77.75c19.572 19.768 43.926 22.378 67.326 8.716 25.4-14.832 33.357-33.943 25.965-62.823-4.187-16.358-12.182-31-23.733-49.776" transform="translate(0 .004)"/><rect class="cls-8" x="410.307" y="141.519" width="916.327" height="917.497" rx="91.806" ry="91.806"/><rect class="cls-8" x="410.307" y="141.519" width="916.327" height="1007.495" rx="91.806" ry="91.806"/><circle class="cls-8" cx="868.47" cy="600.853" r="321.836"/><circle class="cls-8" cx="868.47" cy="600.853" r="361.836"/><circle class="cls-8" cx="868.47" cy="600.853" r="126.326"/><path class="cls-8" d="M868.47 788.685c-103.739 0-187.836-84.1-187.836-187.836M868.47 413.012c103.74 0 187.837 84.1 187.837 187.837M868.47 348.2c139.537 0 252.653 113.117 252.653 252.653M868.47 853.5c-139.536 0-252.652-113.116-252.652-252.652" transform="translate(0 .004)"/><circle class="cls-8" cx="868.47" cy="600.853" r=".005"/><path class="cls-8" d="M1187.982 206.2a79.8 79.8 0 1 1-37.091 6.961m22.567 11.557s7.81 46.292 10.329 67.292 73.52 179 92.52 241-46 283-46 283" transform="translate(0 .004)"/><path class="cls-8" transform="rotate(-68.114 1208.413 867.01)" d="M1156.882 845.674h103.039v42.667h-103.039z"/><path class="cls-8" d="M1182.069 223.495l-20.885 3.224-12.572-44.832 34.863-4.346-1.406 45.954z"/><circle class="cls-8" cx="1183.787" cy="286.061" r="32.742"/><circle class="cls-8" cx="524.8" cy="252.89" r="21.631"/><circle class="cls-8" cx="524.8" cy="252.89" r="63.18"/><circle class="cls-8" cx="524.8" cy="951.603" r="21.631"/><circle class="cls-8" cx="524.8" cy="951.603" r="63.18"/><path class="cls-8" d="M488.557 1062.347v83.334m54.874-83.334v83.334m54.874-83.334v83.334m54.874-83.334v83.334m54.874-83.334v83.334m54.874-83.334v83.334m54.874-83.334v83.334m54.874-83.334v83.334m54.874-83.334v83.334m54.874-83.334v83.334m54.873-83.334v83.334m54.874-83.334v83.334m54.874-83.334v83.334m54.874-83.334v83.334m54.874-83.334v83.334"/><path class="cls-2" d="M310.019 422.529c7.048 3.878 13.408 8.577 18.24 15.132 7.121 9.66 9.255 20.425 6.721 32.038a69.688 69.688 0 0 1-19.272 35.165c-10.868 10.8-24.066 14.378-38.91 10.767a64.518 64.518 0 0 1-31.187-17.61c-10.268-10.446-13.866-23.038-10.327-37.387 3.23-13.1 9.464-24.635 19.261-33.949 13.118-12.469 28.454-14.859 45.322-9.009a67.323 67.323 0 0 1 10.152 4.853m-5.052 52.671c2.713-4.951 6.1-11.723 7.059-19.456 1.555-12.568-6.6-20.181-17.628-22.09-7.827-1.355-14.158 2.513-19.249 8.027a73.571 73.571 0 0 0-16.682 29.692c-2.894 9.97.675 18.385 9.377 23.536 9.447 5.591 17.123 4.717 25.2-2.936 4.574-4.334 7.9-9.6 11.924-16.773m1227.718 386.948c5.973 5.388 11.089 11.42 14.291 18.906 4.72 11.034 4.334 22-.792 32.726a69.692 69.692 0 0 1-26.811 29.819c-13.052 8.022-26.719 8.486-40.342 1.572a64.523 64.523 0 0 1-26.327-24.282c-7.6-12.52-8.223-25.6-1.492-38.759 6.143-12.012 14.852-21.814 26.521-28.637 15.625-9.135 31.1-7.95 46.182 1.607a67.318 67.318 0 0 1 8.77 7.048m-16.976 50.116c3.775-4.2 8.623-10.015 11.325-17.323 4.392-11.878-1.8-21.156-12.1-25.54-7.309-3.111-14.356-.8-20.575 3.407a73.566 73.566 0 0 0-23.037 25.084c-5.1 9.042-3.552 18.051 3.74 25.058 7.916 7.605 15.587 8.511 25.2 2.912 5.445-3.172 9.885-7.536 15.448-13.6M78.784 759.563c12.893-.139 25.473 1.411 37.379 6.754 17.549 7.874 29.008 21.218 34.619 39.424a111.7 111.7 0 0 1 .8 64.264c-6.665 23.632-22.266 39.027-45.83 45.677a103.409 103.409 0 0 1-57.4-.012c-22.56-6.493-37.5-21.234-43.865-44.051-5.809-20.829-6.2-41.84.143-62.557 8.488-27.738 28.012-43.154 56.164-48.276 5.953-1.083 11.974-1.144 17.992-1.223m34.439 77.5c-.113-9.049-.718-21.169-5.474-32.717-7.728-18.768-25.1-22.972-42-16.948-11.999 4.272-17.788 14.657-20.551 26.365a117.907 117.907 0 0 0 .1 54.584c3.814 16.2 15.424 25.13 31.628 25.465 17.591.363 27.616-6.9 32.861-23.945 2.971-9.654 3.462-19.619 3.431-32.806" transform="translate(0 .004)"/><path class="cls-1" d="M0 0h1643.11v1190.014H0z"/></svg>