<svg id="Layer_1" data-name="Layer 1" xmlns="http://www.w3.org/2000/svg" viewBox="0 0 1250.331 1138.541"><defs><style>.cls-3{fill:none}.cls-2{clip-path:url(#clip-path)}.cls-3{stroke:#010101;stroke-linecap:round;stroke-linejoin:round;stroke-width:22px}</style><clipPath id="clip-path"><path fill="none" d="M0-.001h1250.331V1138.54H0z"/></clipPath></defs><g class="cls-2"><path class="cls-3" d="M68.194 957.584l-46.181 25.871M89.1 989s-23.917 34.121-23.767 33.418m-13.815-99.907s-41.119 6.745-40.511 6.36m1174.385-410.32l40.198-26.67m-61.341-.456s19.4-32.645 19.312-31.995m19.384 89.852s36.907-8.941 36.381-8.55m-856.563 528.074v58.735m-29.367-29.368h58.735m-197.37-957.164v41.031m-20.516-20.516h41.032m745.032 133.054l75.211 75.211m-75.211 0l75.211-75.211"/><path d="M992.679 5.359c10.92 3.7 21.079 8.737 29.543 16.772 12.477 11.844 18.2 26.5 17.537 43.524a99.9 99.9 0 0 1-18.362 54.47c-12.624 17.969-30.35 26.339-52.206 24.972a92.5 92.5 0 0 1-48.437-17.014c-17.115-12.162-25.357-29.028-23.968-50.169 1.267-19.3 7.164-37.143 18.65-52.749 15.379-20.894 36.422-28.12 61.7-24.1a96.627 96.627 0 0 1 15.545 4.3m6.106 75.6c2.585-7.67 5.665-18.077 5.072-29.23-.959-18.135-14.381-26.827-30.429-26.75-11.386.055-19.348 7.1-25.148 16.165A105.459 105.459 0 0 0 932.2 87.245c-1.579 14.8 5.572 25.777 19.147 30.859 14.737 5.517 25.35 2.354 34.825-10.474 5.366-7.266 8.732-15.53 12.612-26.668m188.339 80.519c8.034-.422 15.917.216 23.478 3.236 11.145 4.452 18.636 12.472 22.608 23.676a69.7 69.7 0 0 1 2.172 40.041c-3.541 14.905-12.865 24.908-27.381 29.668a64.524 64.524 0 0 1-35.785 1.487c-14.232-3.461-23.93-12.26-28.492-26.319-4.164-12.833-4.952-25.921-1.54-39 4.57-17.513 16.339-27.632 33.756-31.558a67.372 67.372 0 0 1 11.184-1.23m23.487 47.414c-.307-5.638-1-13.178-4.265-20.252-5.305-11.5-16.246-13.668-26.627-9.472-7.364 2.977-10.7 9.6-12.12 16.972a73.56 73.56 0 0 0 1.486 34.024c2.8 10 10.27 15.265 20.38 15.051 10.975-.231 17.036-5.022 19.861-15.783 1.6-6.1 1.647-12.32 1.285-20.54m-252.258 764.97c11.769 3.99 22.717 9.415 31.84 18.076 13.446 12.763 19.608 28.556 18.9 46.906a107.661 107.661 0 0 1-19.788 58.7c-13.606 19.365-32.709 28.386-56.264 26.912a99.671 99.671 0 0 1-52.2-18.336c-18.444-13.107-27.326-31.284-25.83-54.067 1.365-20.8 7.722-40.03 20.1-56.848 16.574-22.518 39.252-30.306 66.492-25.976a104.021 104.021 0 0 1 16.753 4.631m6.581 81.477c2.786-8.266 6.1-19.482 5.467-31.5-1.037-19.536-15.5-28.906-32.793-28.823-12.271.058-20.851 7.656-27.1 17.422a113.636 113.636 0 0 0-17.332 49.675c-1.7 15.947 6.006 27.78 20.636 33.257 15.882 5.946 27.319 2.537 37.53-11.288 5.783-7.831 9.412-16.737 13.593-28.74M172.06 300.186c14.075-7.8 28.808-13.564 45.053-14.764 23.942-1.765 44.443 6.087 61.407 22.75a139.42 139.42 0 0 1 39.011 70.094c6.7 29.9-1.293 56.065-23.222 77.352a129.059 129.059 0 0 1-63.039 34.046c-28.625 6.257-53.779-1.065-74.306-22.344-18.739-19.42-31.63-42.267-36.964-68.778-7.139-35.495 5.153-64.007 33.028-86.337 5.894-4.721 12.47-8.361 19.031-12.019m83.8 64.665c-5.494-9.869-13.351-22.819-25.424-32.678-19.623-16.023-41.2-10.331-56.182 6.315-10.632 11.808-10.827 26.647-6.914 41.142a147.157 147.157 0 0 0 32.5 59.877c13.8 15.522 31.849 18.444 49.841 9.2 19.531-10.039 26.228-23.967 21.875-45.793-2.466-12.363-7.84-23.6-15.7-38.059" fill="#ef3642"/><path class="cls-3" d="M440.202 953.641l72.423 73.028v-73.028m393.589-141.292l-54.309 54.763v-54.763m54.309-.001h177.4a62.855 62.855 0 0 0 62.671-62.671V607.888a62.855 62.855 0 0 0-62.671-62.671H830.438a62.855 62.855 0 0 0-62.671 62.671v141.789a62.855 62.855 0 0 0 62.671 62.671h21.467M565.171 425.823l-63.765 64.298v-64.298m63.765 0h208.286a73.8 73.8 0 0 0 73.583-73.583V185.762a73.8 73.8 0 0 0-73.583-73.583H476.2a73.8 73.8 0 0 0-73.583 73.583V352.24a73.8 73.8 0 0 0 73.583 73.583h25.207"/></g><text transform="translate(297.235 835.441)" fill="#231f20" font-family="FontAwesome,FontAwesome" font-size="175.493"></text><text transform="translate(580.138 305.838)" font-size="133.206" fill="#231f20" font-family="FontAwesome,FontAwesome"></text><text transform="translate(908.452 719.792)" font-size="126.703" fill="#231f20" font-family="FontAwesome,FontAwesome"></text><g class="cls-2"><path class="cls-3" d="M440.2 953.64H203.636a83.82 83.82 0 0 1-83.575-83.574V680.984a83.82 83.82 0 0 1 83.575-83.574h337.618a83.819 83.819 0 0 1 83.574 83.574v189.082a83.819 83.819 0 0 1-83.574 83.574h-28.629"/></g></svg>