<svg width="500" id="Слой_1" data-name="Слой 1" xmlns="http://www.w3.org/2000/svg" xmlns:xlink="http://www.w3.org/1999/xlink" viewBox="0 0 1649.13 1194.78"><defs><style>.cls-1,.cls-3{fill:none}.cls-2{clip-path:url(#clip-path)}.cls-3{stroke:#010101;stroke-linecap:round;stroke-linejoin:round;stroke-width:22px}.cls-4{fill:#fff}.cls-13{fill:#ef3642}</style><clipPath id="clip-path" transform="translate(0 56.64)"><path class="cls-1" d="M0 0h1649.13v1079.49H0z"/></clipPath><clipPath id="clip-path-2" transform="translate(0 56.64)"><path class="cls-1" d="M630 87.51c-120.38 85.21 8.6 214.68 198.13 248.74l54.69-75.52s-29.29-212-152.27-212C702.26 48.68 669 59.9 630 87.51"/></clipPath><linearGradient id="Безымянный_градиент" y1="1079.55" x2="1" y2="1079.55" gradientTransform="matrix(0 -315.67 -315.67 0 341477.25 389.65)" gradientUnits="userSpaceOnUse"><stop offset="0" stop-color="#b28862"/><stop offset=".21" stop-color="#e6ce97"/><stop offset=".65" stop-color="#ad8b55"/><stop offset="1" stop-color="#e6ce97"/></linearGradient><clipPath id="clip-path-4" transform="translate(0 56.64)"><path class="cls-1" d="M831.22 346.54V386s101.38-1.9 136-1.9 41.2 22.08 41.2 22.08l11.17-2.79v-56.85a94.21 94.21 0 1 0-188.42 0"/></clipPath><linearGradient id="Безымянный_градиент_2" y1="1079.49" y2="1079.49" gradientTransform="matrix(0 -198.8 -198.8 0 215533.55 437.73)" xlink:href="#Безымянный_градиент"/><clipPath id="clip-path-6" transform="translate(0 56.64)"><path class="cls-1" d="M1160.88 19.49C972.93 116 970.19 327.84 970.19 327.84l45.39 9.81c183.29-29 263.17-86.26 262.19-183.76-.61-60.6-30.16-142.9-85-142.89-9.81 0-20.44 2.63-31.84 8.49"/></clipPath><linearGradient id="Безымянный_градиент_3" y1="1079.47" y2="1079.47" gradientTransform="matrix(0 -270.76 -270.76 0 293398.36 323.55)" xlink:href="#Безымянный_градиент"/><clipPath id="clip-path-7" transform="translate(0 56.64)"><rect class="cls-1" x="785.81" y="409.16" width="267.57" height="670.33" rx="50" ry="50"/></clipPath><linearGradient id="Безымянный_градиент_4" y1="1079.49" y2="1079.49" gradientTransform="matrix(0 -391.59 -391.59 0 423638.52 940.12)" xlink:href="#Безымянный_градиент"/></defs><g class="cls-2"><path class="cls-3" d="M68.19 965.61l-46.18 25.88"/><path class="cls-3" d="M89.1 940.4s-23.92 34.12-23.77 33.42M51.52 873.9S10.4 880.65 11 880.26" transform="translate(0 56.64)"/><path class="cls-3" d="M1584.19 313.55l40.2-26.67"/><path class="cls-3" d="M1563.05 229.79s19.4-32.64 19.31-32m19.39 89.86s36.91-8.94 36.38-8.55" transform="translate(0 56.64)"/><path class="cls-4" d="M853 260.74S808.75-60.09 600.21 87.51c-120.39 85.21 8.6 214.68 198.13 248.74" transform="translate(0 56.64)"/></g><g clip-path="url(#clip-path-2)"><path transform="rotate(-77 731.83 220.794)" fill="url(#Безымянный_градиент)" d="M514.15-21.69h364.16v428.33H514.15z"/></g><g class="cls-2"><path class="cls-4" d="M986.19 386v-39.46a94.21 94.21 0 1 0-188.42 0V386" transform="translate(0 56.64)"/></g><g clip-path="url(#clip-path-4)"><path transform="rotate(-77 961.032 357.55)" fill="url(#Безымянный_градиент_2)" d="M829.3 220.14h192.26v218.19H829.3z"/></g><g class="cls-2"><path class="cls-4" d="M945 268.65S943.13 116 1131.07 19.49c75.22-38.61 116.17 63 116.89 134.4 1 97.51-78.9 154.8-262.19 183.76" transform="translate(0 56.64)"/></g><g clip-path="url(#clip-path-6)"><path transform="rotate(-77 1160.072 202.646)" fill="url(#Безымянный_градиент_3)" d="M930.62-12.74h387.7v374.13h-387.7z"/></g><g clip-path="url(#clip-path-7)"><path transform="rotate(-77 955.205 772.644)" fill="url(#Безымянный_градиент_4)" d="M562.93 538.57h713.34v411.5H562.93z"/></g><g class="cls-2"><path class="cls-13" d="M1580.29 390.83a224.59 224.59 0 0 0-64.22-112.14c-27.66-26.51-60.83-38.75-99.37-35.44-26.14 2.25-49.76 11.82-72.28 24.67-10.5 6-21 12-30.42 19.74-40.27 33.07-59.85 74.07-54.12 123.88h62.76a62.8 62.8 0 0 1 22.22 4q-3.64-9.6-6.48-19.6c-6.59-23.27-6.57-47.18 10.33-66.41 23.81-27.11 58.45-36.7 90.38-11.28 19.64 15.64 32.55 36.35 41.6 52.14 12.94 23.14 21.82 41.13 26 61 7.44 35.07-3.07 57.64-34.34 74.2-28.8 15.25-57.94 10.9-80.47-13.83-2.16-2.37-4.26-4.8-6.32-7.24v88.55c18.15 4 37.51 3.59 57.93-1.14 38.73-9 72.72-28.08 100.88-56.09 34.9-34.72 47.27-77 35.88-125.06M486.75 807.13c-10.81 28.56-21.7 51.62-37.07 72.43-34.71 47-73.6 58.59-127.59 38.38-49.74-18.62-75.94-58.85-70.16-113.07 6.47-60.6 26-117.5 58.92-168.89 20.71-32.36 49-57.71 89-59.15v-89.95c-85.2-9.09-156.43 18.63-209.36 90.53-42.07 57.18-63.67 122.59-68.32 193.28-5.08 77.45 25.11 139.25 87.83 183.81 52.81 37.53 112.87 58.3 177.47 62.34 36.32 2.27 69.52-2.82 99.29-15.18z" transform="translate(0 56.64)"/><path class="cls-3" d="M1464.46 816.87v62.64m-31.32-31.32h62.65M322.47 87.49l58.6 58.6m-58.6 0l58.6-58.6"/><path class="cls-13" d="M528.4 269.46c7.41 1.76 14.41 4.44 20.47 9.21a36.09 36.09 0 0 1 14.23 27.55 66 66 0 0 1-8.71 37c-7.19 12.6-18.34 19.21-32.8 19.66a61.1 61.1 0 0 1-32.92-8.19c-12-6.94-18.48-17.53-18.87-31.52a64.81 64.81 0 0 1 9-35.86c8.82-14.7 22.22-20.75 39.1-19.68a63.81 63.81 0 0 1 10.49 1.87m8.7 49.36c1.23-5.21 2.61-12.24 1.53-19.54-1.76-11.87-11.12-16.76-21.67-15.71-7.49.74-12.29 5.87-15.54 12.19a69.68 69.68 0 0 0-7.73 31.32c-.12 9.83 5.26 16.61 14.51 19.12 10 2.72 16.82 0 22.26-9 3.08-5.11 4.78-10.76 6.65-18.33m-405.2-90.44c11.49-9.69 24-17.63 38.63-21.66 21.62-5.94 41.83-2.44 60.39 9.77a130.22 130.22 0 0 1 48.4 57.2c11.54 26.2 8.93 51.62-7.32 75.08a120.56 120.56 0 0 1-51.63 42.58c-25.1 10.9-49.48 8.73-72.13-7.07-20.68-14.42-36.62-33-46.29-56.36-12.95-31.24-6.83-59.59 14.69-85.09 4.55-5.39 9.92-9.91 15.27-14.45m88.48 44.14c-6.82-8.05-16.35-18.5-29.2-25.36-20.88-11.14-39.62-2-50.35 15.93-7.61 12.74-5.11 26.38 1.09 39a137.45 137.45 0 0 0 40.59 49c15.45 11.74 32.52 11.16 47.34-.57 16.09-12.73 19.71-26.7 11.78-45.92-4.49-10.89-11.44-20.21-21.26-32" transform="translate(0 56.64)"/><rect class="cls-3" x="758.2" y="440.7" width="267.57" height="670.33" rx="50" ry="50"/><path class="cls-3" d="M986.19 381v-34.46a94.21 94.21 0 1 0-188.42 0V381M758.2 680.44H463a53.73 53.73 0 0 1-53.73-53.73v-160.1A53.73 53.73 0 0 1 463 412.88h295.2m267.57 0H1321a53.73 53.73 0 0 1 53.73 53.73v160.1a53.73 53.73 0 0 1-53.73 53.73h-295.23m0 0h274.82v288a53.73 53.73 0 0 1-53.73 53.73h-219.09" transform="translate(0 56.64)"/><path class="cls-3" d="M754.88 1022.16H537.11a53.73 53.73 0 0 1-53.73-53.73v-288H758.2M853 260.74S808.75-60.09 600.21 87.51c-120.39 85.21 8.6 214.68 198.13 248.74M945 268.65S943.13 116 1131.07 19.49c75.22-38.61 116.17 63 116.89 134.4 1 97.51-78.9 154.8-262.19 183.76" transform="translate(0 56.64)"/><path class="cls-3" d="M816.23 290.53s-81.33-166-195.58-158.58c-33.9 2.2-8.26 42.38-8.26 42.38m373.8 143.85s48.71-177.66 199.19-208.59c38-7.8 20.87 57.2 20.87 57.2" transform="translate(0 56.64)"/></g></svg>