<svg width="500" id="Слой_1" data-name="Слой 1" xmlns="http://www.w3.org/2000/svg" xmlns:xlink="http://www.w3.org/1999/xlink" viewBox="0 0 1254.43 1167.52"><defs><style>.cls-1,.cls-9{fill:none}.cls-8{clip-path:url(#clip-path-4)}.cls-9{stroke:#010101;stroke-linecap:round;stroke-linejoin:round;stroke-width:22px}</style><clipPath id="clip-path"><path class="cls-1" d="M868 579.61a62.85 62.85 0 0 0-62.67 62.67v141.79A62.86 62.86 0 0 0 868 846.74h21.5v54.76l54.31-54.76h177.4a62.86 62.86 0 0 0 62.67-62.67V642.28a62.85 62.85 0 0 0-62.67-62.67z"/></clipPath><linearGradient id="Безымянный_градиент" y1="1138.55" x2="1" y2="1138.55" gradientTransform="matrix(0 -403.92 -403.92 0 460871.42 936.36)" gradientUnits="userSpaceOnUse"><stop offset="0" stop-color="#b28862"/><stop offset=".21" stop-color="#e6ce97"/><stop offset=".65" stop-color="#ad8b55"/><stop offset="1" stop-color="#e6ce97"/></linearGradient><clipPath id="clip-path-2"><path class="cls-1" d="M509.69 142.4a73.8 73.8 0 0 0-73.58 73.6v166.46A73.8 73.8 0 0 0 509.69 456h25.21v64.3l63.76-64.3h208.29a73.8 73.8 0 0 0 73.58-73.58V216a73.8 73.8 0 0 0-73.58-73.58z"/></clipPath><linearGradient id="Безымянный_градиент_2" y1="1138.55" y2="1138.55" gradientTransform="matrix(0 -474.25 -474.25 0 540611.43 561.22)" xlink:href="#Безымянный_градиент"/><clipPath id="clip-path-3"><path class="cls-1" d="M229.06 627.63a83.82 83.82 0 0 0-83.57 83.57v189.08a83.82 83.82 0 0 0 83.57 83.57h236.57l72.42 73v-73h28.63a83.82 83.82 0 0 0 83.58-83.57V711.2a83.82 83.82 0 0 0-83.58-83.57z"/></clipPath><linearGradient id="Безымянный_градиент_3" y1="1138.61" y2="1138.61" gradientTransform="matrix(0 -538.64 -538.64 0 613695.97 1103.33)" xlink:href="#Безымянный_градиент"/><clipPath id="clip-path-4"><path class="cls-1" d="M0 0h1250.33v1138.54H0z"/></clipPath></defs><g clip-path="url(#clip-path)"><path transform="rotate(-77 994.621 740.56)" fill="url(#Безымянный_градиент)" d="M795.23 519.95h398.79v441.22H795.23z"/></g><g clip-path="url(#clip-path-2)"><path transform="rotate(-77 658.315 331.37)" fill="url(#Безымянный_градиент_2)" d="M424.2 72.34h468.23v518.05H424.2z"/></g><g clip-path="url(#clip-path-3)"><path transform="rotate(-77 397.869 842.255)" fill="url(#Безымянный_градиент_3)" d="M131.97 548.06h531.8v588.39h-531.8z"/></g><g class="cls-8"><path class="cls-9" d="M68.19 957.58l-46.18 25.87M89.1 989s-23.92 34.12-23.77 33.42m-13.81-99.91S10.4 929.26 11 928.87m1174.39-410.32l40.2-26.67m-61.34-.45s19.4-32.64 19.31-32m19.38 89.85s36.91-8.94 36.38-8.55m-856.56 528.08v58.73m-29.36-29.37h58.73M214.76 141.01v41.03m-20.52-20.52h41.04m745.03 133.06l75.21 75.21m-75.21 0l75.21-75.21"/><path d="M992.68 5.36c10.92 3.7 21.08 8.74 29.54 16.77 12.48 11.84 18.2 26.5 17.54 43.52a99.9 99.9 0 0 1-18.36 54.47c-12.62 18-30.35 26.34-52.21 25a92.5 92.5 0 0 1-48.44-17c-17.12-12.16-25.36-29-24-50.17 1.27-19.3 7.16-37.14 18.65-52.75C930.82 4.27 951.86-3 977.13 1.06a96.63 96.63 0 0 1 15.54 4.3M998.79 81c2.58-7.67 5.66-18.08 5.07-29.23-1-18.13-14.38-26.82-30.43-26.75-11.39.06-19.35 7.1-25.15 16.17a105.46 105.46 0 0 0-16.08 46.05c-1.58 14.8 5.57 25.78 19.15 30.86 14.74 5.52 25.35 2.35 34.82-10.47 5.37-7.27 8.73-15.53 12.61-26.67m188.34 80.52c8-.42 15.92.22 23.48 3.24 11.15 4.45 18.64 12.47 22.61 23.68a69.7 69.7 0 0 1 2.17 40c-3.54 14.91-12.87 24.91-27.38 29.67a64.52 64.52 0 0 1-35.78 1.49c-14.23-3.46-23.93-12.26-28.49-26.32-4.16-12.83-5-25.92-1.54-39 4.57-17.51 16.34-27.63 33.76-31.56a67.37 67.37 0 0 1 11.18-1.23m23.49 47.41c-.31-5.64-1-13.18-4.27-20.25-5.31-11.5-16.25-13.67-26.63-9.47-7.36 3-10.7 9.6-12.12 17a73.56 73.56 0 0 0 1.49 34c2.8 10 10.27 15.27 20.38 15.05 11-.23 17-5 19.86-15.78 1.6-6.1 1.65-12.32 1.29-20.54m-252.27 765c11.77 4 22.72 9.42 31.84 18.08 13.45 12.76 19.61 28.56 18.9 46.91a107.66 107.66 0 0 1-19.79 58.7c-13.61 19.36-32.71 28.39-56.26 26.91a99.67 99.67 0 0 1-52.2-18.34c-18.44-13.11-27.33-31.28-25.83-54.07 1.36-20.8 7.72-40 20.1-56.85 16.57-22.52 39.25-30.31 66.49-26a104 104 0 0 1 16.75 4.63m6.58 81.48c2.79-8.27 6.1-19.48 5.47-31.5-1-19.54-15.5-28.91-32.79-28.82-12.27.06-20.85 7.66-27.1 17.42a113.64 113.64 0 0 0-17.33 49.68c-1.7 15.95 6 27.78 20.64 33.26 15.88 5.95 27.32 2.54 37.53-11.29 5.78-7.83 9.41-16.74 13.59-28.74M172.06 300.19c14.07-7.8 28.81-13.56 45.05-14.76 23.94-1.77 44.44 6.09 61.41 22.75a139.42 139.42 0 0 1 39 70.09c6.7 29.9-1.29 56.07-23.22 77.35a129.06 129.06 0 0 1-63 34c-28.62 6.26-53.78-1.07-74.31-22.34-18.74-19.42-31.63-42.27-37-68.78-7.14-35.49 5.15-64 33-86.34 5.89-4.72 12.47-8.36 19-12m83.8 64.66c-5.49-9.87-13.35-22.82-25.42-32.68-19.62-16-41.2-10.33-56.18 6.32-10.63 11.81-10.83 26.65-6.91 41.14a147.16 147.16 0 0 0 32.5 59.88c13.8 15.52 31.85 18.44 49.84 9.2 19.53-10 26.23-24 21.88-45.79-2.47-12.36-7.84-23.6-15.7-38.06" fill="#ef3642"/><path class="cls-9" d="M440.2 953.64l72.43 73.03v-73.03m393.58-141.29l-54.31 54.76v-54.76m54.31 0h177.4a62.86 62.86 0 0 0 62.67-62.67V607.89a62.86 62.86 0 0 0-62.67-62.67H830.44a62.85 62.85 0 0 0-62.67 62.67v141.79a62.85 62.85 0 0 0 62.67 62.67h21.47M565.17 425.82l-63.76 64.3v-64.3m63.76 0h208.29A73.8 73.8 0 0 0 847 352.24V185.76a73.8 73.8 0 0 0-73.58-73.58H476.2a73.8 73.8 0 0 0-73.58 73.58v166.48a73.8 73.8 0 0 0 73.58 73.58h25.21"/></g><text transform="translate(297.23 835.44)" fill="#fff" font-family="FontAwesome,FontAwesome" font-size="175.49"></text><text transform="translate(580.14 305.84)" font-size="133.21" fill="#fff" font-family="FontAwesome,FontAwesome"></text><text transform="translate(908.45 719.79)" font-size="126.7" fill="#fff" font-family="FontAwesome,FontAwesome"></text><g class="cls-8"><path class="cls-9" d="M440.2 953.64H203.64a83.82 83.82 0 0 1-83.57-83.57V681a83.82 83.82 0 0 1 83.57-83.57h337.61A83.82 83.82 0 0 1 624.83 681v189.07a83.82 83.82 0 0 1-83.57 83.57h-28.63"/></g></svg>