<svg id="Слой_1" data-name="Слой 1" xmlns="http://www.w3.org/2000/svg" xmlns:xlink="http://www.w3.org/1999/xlink" viewBox="0 0 1643.11 1198.097"><defs><style>.cls-1,.cls-11{fill:none}.cls-2{clip-path:url(#clip-path)}.cls-3{fill:#ef3642}.cls-6{fill:#575f67}.cls-7{fill:#fff}.cls-11{stroke:#010101;stroke-linecap:round;stroke-linejoin:round;stroke-width:22px}</style><clipPath id="clip-path" transform="translate(0 -.001)"><path class="cls-1" d="M0 0h1643.11v1190.014H0z"/></clipPath><clipPath id="clip-path-2" transform="translate(0 -.001)"><rect class="cls-1" x="456.973" y="182.519" width="916.327" height="1007.495" rx="91.805" ry="91.805"/></clipPath><linearGradient id="Безымянный_градиент" x1=".004" y1="1190.03" x2="1.025" y2="1190.03" gradientTransform="scale(-1082.921 1082.921) rotate(-1.451 -46956.335 648.996)" gradientUnits="userSpaceOnUse"><stop offset="0" stop-color="#b28862"/><stop offset=".214" stop-color="#e6ce97"/><stop offset=".646" stop-color="#ad8b55"/><stop offset="1" stop-color="#e6ce97"/></linearGradient><clipPath id="clip-path-4" transform="translate(0 -.001)"><path class="cls-1" d="M766.144 621.853A126.326 126.326 0 1 0 892.47 495.526a126.327 126.327 0 0 0-126.326 126.327"/></clipPath><linearGradient id="Безымянный_градиент_2" x1="0" y1="1190.014" x2="1" y2="1190.014" gradientTransform="matrix(0 -252.709 -252.709 0 301619.301 748.214)" xlink:href="#Безымянный_градиент"/></defs><g class="cls-2"><path class="cls-3" d="M1519.414 158.283c31.039 13.739 59.488 31.181 82.183 56.975 33.451 38.016 46.342 82.491 39.916 132.232-7.512 58.141-30.413 110.167-68.219 154.84-41.758 49.344-95.936 69.2-159.65 59.419-51.4-7.892-97.964-28.841-137.511-62.675-46.963-40.176-66.67-91.8-57.016-153.411 8.812-56.242 30.816-107 68.613-149.719 50.6-57.193 114.2-72.82 187.244-54.366 15.443 3.9 29.936 10.328 44.44 16.7m-2.067 223.256c9.6-21.8 21.381-51.5 22.591-84.357 1.967-53.4-35.07-82.434-82.143-86.447-33.394-2.846-58.6 15.716-77.992 40.75a310.407 310.407 0 0 0-59.324 130.886c-8.538 42.964 9.529 77.042 47.986 95.527 41.746 20.067 73.7 13.6 104.86-21.507 17.652-19.885 29.705-43.225 44.022-74.852" transform="translate(0 -.001)"/></g><g clip-path="url(#clip-path-2)"><path d="M1371.037 1192.183l-964.985 5.917a73.309 73.309 0 0 1-73.619-77.808l54.083-879.131a73.309 73.309 0 0 1 72.721-68.806l964.984-5.913a73.309 73.309 0 0 1 73.619 77.808l-54.083 879.131a73.309 73.309 0 0 1-72.72 68.802z" transform="translate(0 -.001)" fill="url(#Безымянный_градиент)"/></g><g class="cls-2"><path class="cls-6" d="M1281.495 1100.016H548.779a91.806 91.806 0 0 1-91.806-91.806v90a91.805 91.805 0 0 0 91.806 91.806h732.715a91.805 91.805 0 0 0 91.806-91.806v-90a91.806 91.806 0 0 1-91.806 91.806" transform="translate(0 -.001)"/><path class="cls-6" transform="rotate(-68.114 1208.41 867.97)" d="M1156.882 846.636h103.039v42.667h-103.039z"/><path class="cls-6" d="M1254.307 621.853c0 199.837-162 361.836-361.837 361.836s-361.836-162-361.836-361.836 162-361.837 361.836-361.837 361.837 162 361.837 361.837" transform="translate(0 -.001)"/><path class="cls-7" d="M530.634 621.853c0-199.837 162-361.837 361.836-361.837a360.31 360.31 0 0 1 225.956 79.213A360.609 360.609 0 0 0 868.47 239.016c-199.836 0-361.836 162-361.836 361.837 0 114.354 53.052 216.315 135.882 282.624a360.8 360.8 0 0 1-111.882-261.624" transform="translate(0 -.001)"/><path d="M1214.307 621.853c0 177.745-144.091 321.836-321.837 321.836S570.634 799.6 570.634 621.853 714.725 300.016 892.47 300.016s321.837 144.091 321.837 321.837" transform="translate(0 -.001)" fill="#25292d"/></g><g clip-path="url(#clip-path-4)"><path transform="rotate(-77 892.47 621.853)" fill="url(#Безымянный_градиент_2)" d="M740.964 470.347h303.012v303.011H740.964z"/></g><g class="cls-2"><path class="cls-7" d="M766.144 621.853a126.341 126.341 0 0 1 196.794-104.859A126.327 126.327 0 1 0 798 705.711a125.834 125.834 0 0 1-31.859-83.858" transform="translate(0 -.001)"/><path class="cls-11" d="M1326.634 59.268v58.735m-29.368-29.366h58.735M291.824 1000.095v34.964m-17.481-17.482h34.964M160.12 606.171l44.486 44.485m-44.486 0l44.486-44.485m1225.313 64.639l69.801 69.801m-69.801 0l69.801-69.801"/><path class="cls-3" d="M106.989 23.945C125.254 12.5 144.546 3.729 166.187.959c31.9-4.084 59.882 4.945 83.77 26.012a186.743 186.743 0 0 1 57.218 90.947c11.117 39.516 2.3 75.084-25.5 105.131a172.892 172.892 0 0 1-81.869 50.072c-37.838 10.426-72.007 2.44-100.994-24.545-26.461-24.633-45.345-54.259-54.384-89.334C32.33 112.28 46.72 73.26 82.4 41.389c7.544-6.739 16.078-12.08 24.591-17.444m116.735 80.465c-8.058-12.806-19.5-29.562-36.355-41.88-27.4-20.02-55.843-10.855-74.691 12.486-13.372 16.56-12.565 36.42-6.288 55.527a197.113 197.113 0 0 0 47.776 77.75c19.572 19.768 43.926 22.378 67.326 8.716 25.4-14.832 33.357-33.943 25.965-62.823-4.187-16.358-12.182-31-23.733-49.776" transform="translate(0 -.001)"/><rect class="cls-11" x="410.307" y="141.518" width="916.327" height="917.497" rx="91.806" ry="91.806"/><rect class="cls-11" x="410.307" y="141.518" width="916.327" height="1007.495" rx="91.806" ry="91.806"/><circle class="cls-11" cx="868.47" cy="600.852" r="321.836"/><circle class="cls-11" cx="868.47" cy="600.852" r="361.836"/><circle class="cls-11" cx="868.47" cy="600.852" r="126.326"/><path class="cls-11" d="M868.47 788.689c-103.739 0-187.836-84.1-187.836-187.836M868.47 413.016c103.74 0 187.837 84.1 187.837 187.837M868.47 348.2c139.537 0 252.653 113.117 252.653 252.653M868.47 853.505c-139.536 0-252.652-113.116-252.652-252.652" transform="translate(0 -.001)"/><circle class="cls-11" cx="868.47" cy="600.852" r=".005"/><path class="cls-11" d="M1187.982 206.208a79.8 79.8 0 1 1-37.091 6.961m22.567 11.553s7.81 46.292 10.329 67.292 73.52 179 92.52 241-46 283-46 283" transform="translate(0 -.001)"/><path class="cls-11" transform="rotate(-68.114 1208.41 867.012)" d="M1156.882 845.678h103.039v42.667h-103.039z"/><path class="cls-11" d="M1182.069 223.494l-20.885 3.224-12.572-44.832 34.863-4.346-1.406 45.954z"/><circle class="cls-11" cx="1183.787" cy="286.06" r="32.742"/><circle class="cls-11" cx="524.8" cy="252.889" r="21.631"/><circle class="cls-11" cx="524.8" cy="252.889" r="63.18"/><circle class="cls-11" cx="524.8" cy="951.602" r="21.631"/><circle class="cls-11" cx="524.8" cy="951.602" r="63.18"/><path class="cls-11" d="M488.557 1062.346v83.334m54.874-83.334v83.334m54.874-83.334v83.334m54.874-83.334v83.334m54.874-83.334v83.334m54.874-83.334v83.334m54.874-83.334v83.334m54.874-83.334v83.334m54.874-83.334v83.334m54.874-83.334v83.334m54.873-83.334v83.334m54.874-83.334v83.334m54.874-83.334v83.334m54.874-83.334v83.334m54.874-83.334v83.334"/><path class="cls-3" d="M310.019 422.533c7.048 3.878 13.408 8.577 18.24 15.132 7.121 9.66 9.255 20.425 6.721 32.038a69.688 69.688 0 0 1-19.272 35.165c-10.868 10.8-24.066 14.378-38.91 10.767a64.518 64.518 0 0 1-31.187-17.61c-10.268-10.446-13.866-23.038-10.327-37.387 3.23-13.1 9.464-24.635 19.261-33.949 13.118-12.469 28.455-14.859 45.322-9.009a67.323 67.323 0 0 1 10.152 4.853m-5.052 52.667c2.713-4.951 6.1-11.723 7.059-19.456 1.555-12.568-6.6-20.181-17.628-22.09-7.827-1.355-14.158 2.513-19.249 8.027a73.571 73.571 0 0 0-16.682 29.692c-2.894 9.97.675 18.385 9.377 23.536 9.447 5.591 17.123 4.717 25.2-2.936 4.574-4.334 7.9-9.6 11.924-16.773m1227.718 386.952c5.973 5.388 11.089 11.42 14.291 18.906 4.72 11.034 4.334 22-.792 32.726a69.692 69.692 0 0 1-26.811 29.819c-13.052 8.022-26.719 8.486-40.342 1.572a64.523 64.523 0 0 1-26.327-24.282c-7.6-12.52-8.223-25.6-1.492-38.759 6.143-12.012 14.852-21.814 26.521-28.637 15.625-9.135 31.1-7.95 46.182 1.607a67.318 67.318 0 0 1 8.77 7.048m-16.976 50.116c3.775-4.2 8.623-10.015 11.325-17.323 4.392-11.878-1.8-21.156-12.1-25.54-7.309-3.111-14.356-.8-20.575 3.407a73.566 73.566 0 0 0-23.037 25.084c-5.1 9.042-3.552 18.051 3.74 25.058 7.916 7.605 15.587 8.511 25.2 2.912 5.445-3.172 9.885-7.536 15.448-13.6M78.784 759.567c12.893-.139 25.473 1.411 37.379 6.754 17.549 7.874 29.008 21.218 34.619 39.424a111.7 111.7 0 0 1 .8 64.264c-6.665 23.632-22.266 39.027-45.83 45.677a103.409 103.409 0 0 1-57.4-.012c-22.56-6.493-37.5-21.234-43.865-44.051-5.809-20.829-6.2-41.84.143-62.557 8.488-27.738 28.012-43.154 56.164-48.276 5.953-1.083 11.974-1.144 17.992-1.223m34.439 77.5c-.113-9.049-.718-21.169-5.474-32.717-7.728-18.768-25.1-22.972-42-16.948-11.992 4.274-17.781 14.659-20.544 26.367a117.907 117.907 0 0 0 .1 54.584c3.814 16.2 15.424 25.13 31.628 25.465 17.591.363 27.616-6.9 32.861-23.945 2.971-9.654 3.462-19.619 3.431-32.806" transform="translate(0 -.001)"/></g></svg>