<svg id="Слой_1" data-name="Слой 1" xmlns="http://www.w3.org/2000/svg" xmlns:xlink="http://www.w3.org/1999/xlink" viewBox="0 0 1643.11 1190.01"><defs><style>.cls-1,.cls-11{fill:none}.cls-2{clip-path:url(#clip-path)}.cls-3{fill:#ef3642}.cls-6{fill:#575f67}.cls-7{fill:#fff}.cls-11{stroke:#010101;stroke-linecap:round;stroke-linejoin:round;stroke-width:22px}</style><clipPath id="clip-path"><path class="cls-1" d="M0 0h1643.11v1190.01H0z"/></clipPath><clipPath id="clip-path-2"><path class="cls-1" d="M548.78 182.52h732.72a91.81 91.81 0 0 1 91.81 91.81v823.88a91.81 91.81 0 0 1-91.81 91.79H548.78a91.8 91.8 0 0 1-91.8-91.8V274.32a91.8 91.8 0 0 1 91.8-91.8z"/></clipPath><linearGradient id="Безымянный_градиент" y1="1190.01" x2="1" y2="1190.01" gradientTransform="matrix(0 -1082.92 -1082.92 0 1289602.53 1227.77)" gradientUnits="userSpaceOnUse"><stop offset="0" stop-color="#b28862"/><stop offset=".21" stop-color="#e6ce97"/><stop offset=".65" stop-color="#ad8b55"/><stop offset="1" stop-color="#e6ce97"/></linearGradient><clipPath id="clip-path-4"><path class="cls-1" d="M766.14 621.85a126.33 126.33 0 1 0 126.33-126.33 126.33 126.33 0 0 0-126.33 126.33"/></clipPath><linearGradient id="Безымянный_градиент_2" y1="1190.01" y2="1190.01" gradientTransform="matrix(0 -252.71 -252.71 0 301618.28 748.21)" xlink:href="#Безымянный_градиент"/></defs><g class="cls-2"><path class="cls-3" d="M1519.41 158.28c31 13.74 59.49 31.18 82.18 57 33.45 38 46.34 82.49 39.92 132.23-7.51 58.14-30.41 110.17-68.22 154.84-41.76 49.34-95.94 69.2-159.65 59.42-51.4-7.89-98-28.84-137.51-62.67-47-40.18-66.67-91.8-57-153.41 8.81-56.24 30.82-107 68.61-149.72 50.6-57.19 114.2-72.82 187.24-54.37 15.44 3.9 29.94 10.33 44.44 16.7m-2.07 223.26c9.6-21.8 21.38-51.5 22.59-84.36 2-53.4-35.07-82.43-82.14-86.45-33.39-2.85-58.6 15.72-78 40.75a310.41 310.41 0 0 0-59.32 130.89c-8.54 43 9.53 77 48 95.53 41.75 20.07 73.7 13.6 104.86-21.51 17.65-19.89 29.71-43.23 44-74.85"/></g><g clip-path="url(#clip-path-2)"><path transform="rotate(-77 915.136 686.264)" fill="url(#Безымянный_градиент)" d="M321.24 126.52h1187.8V1246H321.24z"/></g><g class="cls-2"><path class="cls-6" d="M1281.49 1100H548.78a91.81 91.81 0 0 1-91.78-91.79v90a91.81 91.81 0 0 0 91.78 91.79h732.72a91.81 91.81 0 0 0 91.81-91.81v-90a91.81 91.81 0 0 1-91.81 91.81"/><path class="cls-6" transform="rotate(-68.11 1208.502 867.971)" d="M1156.88 846.63h103.04v42.67h-103.04z"/><path class="cls-6" d="M1254.31 621.85c0 199.84-162 361.84-361.84 361.84s-361.84-162-361.84-361.84S692.63 260 892.47 260s361.84 162 361.84 361.84"/><path class="cls-7" d="M530.63 621.85C530.63 422 692.63 260 892.47 260a360.31 360.31 0 0 1 226 79.21 360.61 360.61 0 0 0-250-100.21c-199.84 0-361.84 162-361.84 361.84 0 114.35 53.05 216.32 135.88 282.62a360.8 360.8 0 0 1-111.88-261.61"/><path d="M1214.31 621.85c0 177.74-144.09 321.84-321.84 321.84s-321.84-144.1-321.84-321.84S714.72 300 892.47 300s321.84 144.09 321.84 321.84" fill="#25292d"/></g><g clip-path="url(#clip-path-4)"><path transform="rotate(-77 892.472 621.847)" fill="url(#Безымянный_градиент_2)" d="M740.96 470.34h303.01v303.01H740.96z"/></g><g class="cls-2"><path class="cls-7" d="M766.14 621.85A126.34 126.34 0 0 1 962.94 517 126.33 126.33 0 1 0 798 705.71a125.83 125.83 0 0 1-31.86-83.86"/><path class="cls-11" d="M1326.63 59.26V118m-29.36-29.37H1356M291.82 1000.09v34.97m-17.48-17.49h34.97m-149.19-411.4l44.49 44.48m-44.49 0l44.49-44.48m1225.31 64.64l69.8 69.8m-69.8 0l69.8-69.8"/><path class="cls-3" d="M107 23.94c18.26-11.45 37.56-20.22 59.2-23C198.08-3.13 226.07 5.9 250 27a186.74 186.74 0 0 1 57.22 90.95c11.12 39.52 2.3 75.08-25.5 105.13a172.89 172.89 0 0 1-81.87 50.07c-37.84 10.43-72 2.44-101-24.54-26.46-24.63-45.34-54.26-54.38-89.33-12.1-47 2.29-86 38-117.85C89.94 34.65 98.48 29.3 107 23.94m116.74 80.46c-8.06-12.81-19.5-29.56-36.36-41.88C160 42.51 131.53 51.67 112.68 75c-13.37 16.56-12.57 36.42-6.29 55.53a197.11 197.11 0 0 0 47.78 77.75c19.57 19.77 43.93 22.38 67.33 8.72 25.4-14.83 33.36-33.94 26-62.82-4.19-16.36-12.18-31-23.73-49.78"/><rect class="cls-11" x="410.31" y="141.52" width="916.33" height="917.5" rx="91.81" ry="91.81"/><rect class="cls-11" x="410.31" y="141.52" width="916.33" height="1007.49" rx="91.81" ry="91.81"/><circle class="cls-11" cx="868.47" cy="600.85" r="321.84"/><circle class="cls-11" cx="868.47" cy="600.85" r="361.84"/><circle class="cls-11" cx="868.47" cy="600.85" r="126.33"/><path class="cls-11" d="M868.47 788.68c-103.74 0-187.84-84.1-187.84-187.84M868.47 413c103.74 0 187.84 84.1 187.84 187.84M868.47 348.2c139.54 0 252.65 113.12 252.65 252.65M868.47 853.5c-139.54 0-252.65-113.12-252.65-252.65"/><circle class="cls-11" cx="868.47" cy="600.85"/><path class="cls-11" d="M1188 206.2a79.8 79.8 0 1 1-37.09 7m22.55 11.52s7.81 46.29 10.33 67.29 73.52 179 92.52 241-46 283-46 283"/><path class="cls-11" transform="rotate(-68.11 1208.504 867.013)" d="M1156.88 845.67h103.04v42.67h-103.04z"/><path class="cls-11" d="M1182.07 223.49l-20.89 3.23-12.57-44.84 34.86-4.34-1.4 45.95z"/><circle class="cls-11" cx="1183.79" cy="286.06" r="32.74"/><circle class="cls-11" cx="524.8" cy="252.89" r="21.63"/><circle class="cls-11" cx="524.8" cy="252.89" r="63.18"/><circle class="cls-11" cx="524.8" cy="951.6" r="21.63"/><circle class="cls-11" cx="524.8" cy="951.6" r="63.18"/><path class="cls-11" d="M488.56 1062.34v83.34m54.87-83.34v83.34m54.87-83.34v83.34m54.88-83.34v83.34m54.87-83.34v83.34m54.88-83.34v83.34m54.87-83.34v83.34m54.87-83.34v83.34m54.88-83.34v83.34m54.87-83.34v83.34m54.88-83.34v83.34m54.87-83.34v83.34m54.87-83.34v83.34m54.88-83.34v83.34m54.87-83.34v83.34"/><path class="cls-3" d="M310 422.53c7 3.88 13.41 8.58 18.24 15.13 7.12 9.66 9.26 20.43 6.72 32a69.69 69.69 0 0 1-19.27 35.16c-10.87 10.8-24.07 14.38-38.91 10.77A64.52 64.52 0 0 1 245.61 498c-10.27-10.45-13.87-23-10.33-37.39 3.23-13.1 9.46-24.64 19.26-33.95 13.12-12.47 28.45-14.86 45.32-9a67.32 67.32 0 0 1 10.14 4.87m-5 52.67c2.71-5 6.1-11.72 7.06-19.46 1.55-12.57-6.6-20.18-17.63-22.09-7.83-1.36-14.16 2.51-19.25 8a73.57 73.57 0 0 0-16.68 29.69c-2.89 10 .67 18.39 9.38 23.54 9.45 5.59 17.12 4.72 25.2-2.94 4.57-4.33 7.9-9.6 11.92-16.77m1227.69 386.98c6 5.39 11.09 11.42 14.29 18.91 4.72 11 4.33 22-.79 32.73a69.69 69.69 0 0 1-26.81 29.82c-13.05 8-26.72 8.49-40.34 1.57a64.52 64.52 0 0 1-26.33-24.28c-7.6-12.52-8.22-25.6-1.49-38.76 6.14-12 14.85-21.81 26.52-28.64 15.63-9.13 31.1-7.95 46.18 1.61a67.32 67.32 0 0 1 8.77 7m-17 50.12c3.77-4.2 8.62-10 11.32-17.32 4.39-11.88-1.8-21.16-12.1-25.54-7.31-3.11-14.36-.8-20.57 3.41a73.57 73.57 0 0 0-23 25.08c-5.1 9-3.55 18.05 3.74 25.06 7.92 7.61 15.59 8.51 25.2 2.91 5.45-3.17 9.89-7.54 15.45-13.6M78.78 759.56c12.89-.14 25.47 1.41 37.38 6.75 17.55 7.87 29 21.22 34.62 39.42a111.7 111.7 0 0 1 .8 64.26c-6.66 23.63-22.27 39-45.83 45.68a103.41 103.41 0 0 1-57.4 0c-22.56-6.49-37.5-21.23-43.86-44.05-5.81-20.83-6.2-41.84.14-62.56 8.49-27.74 28-43.15 56.16-48.28 6-1.08 12-1.14 18-1.22m34.44 77.5c-.11-9-.72-21.17-5.47-32.72-7.73-18.77-25.1-23-42-16.95-12 4.27-17.78 14.66-20.54 26.37a117.91 117.91 0 0 0 .1 54.58c3.81 16.2 15.42 25.13 31.63 25.46 17.59.36 27.62-6.9 32.86-23.95 3-9.65 3.46-19.62 3.43-32.81"/></g></svg>