<svg width="300" height="100" id="vector" xmlns="http://www.w3.org/2000/svg" viewBox="0 0 80.17 23.05"><defs><style>.cls-1,.cls-3{fill:#231f20;fill-rule:evenodd}.cls-3{fill:#cfcfce}</style></defs><path class="cls-1" d="M177.67 116.11v-3.21h-1.34v-8.65h-.88c-1.86 0-2.25.22-2.25 1.21v7.45h-3.33v-8.65H169c-1.86 0-2.26.22-2.26 1.21V115h8.42v2.32h.26c1.86 0 2.25-.22 2.25-1.21z" transform="translate(-122.62 -99.33)"/><path d="M165.31 107a5.71 5.71 0 0 0-1.09-2.16 5.24 5.24 0 0 0-2-1.48 7.63 7.63 0 0 0-3.06-.54h-.08a7.43 7.43 0 0 0-3 .56 5.62 5.62 0 0 0-2 1.48 5.83 5.83 0 0 0-1.16 2.15 9 9 0 0 0-.37 2.6 10.06 10.06 0 0 0 .33 2.62 5.49 5.49 0 0 0 1.1 2.13 5.23 5.23 0 0 0 2 1.44 7.73 7.73 0 0 0 3 .53h.08a7.85 7.85 0 0 0 3-.54 5.45 5.45 0 0 0 2.06-1.48 5.65 5.65 0 0 0 1.13-2.16 9.48 9.48 0 0 0 .34-2.57 9.87 9.87 0 0 0-.28-2.58zm-3.36 4.31a4.91 4.91 0 0 1-.43 1.46 2.42 2.42 0 0 1-.89 1 2.66 2.66 0 0 1-1.47.37h-.09a3 3 0 0 1-1.48-.35 2.56 2.56 0 0 1-.93-1 4.09 4.09 0 0 1-.46-1.43 12.66 12.66 0 0 1-.12-1.81 10.72 10.72 0 0 1 .13-1.69 4.66 4.66 0 0 1 .49-1.48 2.94 2.94 0 0 1 .95-1 2.59 2.59 0 0 1 1.42-.4h.09a2.5 2.5 0 0 1 1.48.4 2.66 2.66 0 0 1 .87 1 5.11 5.11 0 0 1 .43 1.48 11.94 11.94 0 0 1 .12 1.69 12.11 12.11 0 0 1-.11 1.8z" transform="translate(-122.62 -99.33)" fill="#ef3742" fill-rule="evenodd"/><path class="cls-1" d="M183.26 106h.12a1.63 1.63 0 0 1 1.53.69 3.58 3.58 0 0 1 .43 1.76h-2.08v1.93h4.93v-1.12a12.4 12.4 0 0 0-.12-1.63 4.38 4.38 0 0 0-.61-1.72 3.87 3.87 0 0 0-1.48-1.36 5.63 5.63 0 0 0-2.72-.55v2zm0 9.22v-2.33h.57a7 7 0 0 0 1.73-.16c.91-.23 1.23.1 1.66 1.66a8.51 8.51 0 0 1-3.85.81zm-1.9-7.7a2.43 2.43 0 0 1 .39-.79 1.77 1.77 0 0 1 .65-.54 2.1 2.1 0 0 1 .87-.19v-2a5.4 5.4 0 0 0-2.62.56 4.71 4.71 0 0 0-1.61 1.39 5 5 0 0 0-.81 1.84 9 9 0 0 0-.22 1.88 9.53 9.53 0 0 0 .23 2.12 4.42 4.42 0 0 0 .83 1.76 4 4 0 0 0 1.64 1.22 6.69 6.69 0 0 0 2.56.45v-2.33a2.37 2.37 0 0 1-1.5-.61 2.62 2.62 0 0 1-.62-1.9h2.12v-1.93h-2.08a4.9 4.9 0 0 1 .17-.97zm-41.81 4.72a4.55 4.55 0 0 1-1.8.94V115a6.89 6.89 0 0 0 .79-.34 4.76 4.76 0 0 0 1.14-.77 1.22 1.22 0 0 0 .56 1 2.55 2.55 0 0 0 1.17.24 6.86 6.86 0 0 0 2.3-.41l-.18-1.89h-1v-5.15a4.61 4.61 0 0 0-.3-1.76 2.83 2.83 0 0 0-.84-1.15 3.44 3.44 0 0 0-1.33-.64 7.3 7.3 0 0 0-1.75-.2h-.55v2.29h.12c.8 0 1 .16 1.28.47a2.11 2.11 0 0 1 .4 1.39v.26l-1.8.15v1.74l1.8-.16zm-1.8.94h-.23a1.69 1.69 0 0 1-1.19-.35 1.34 1.34 0 0 1-.37-1c0-.89.54-1.38 1.62-1.47h.18v-1.76c-1.76.15-2.85.3-3.66 1a3 3 0 0 0-1.15 2.51 3.92 3.92 0 0 0 .14 1 2.74 2.74 0 0 0 .51 1 2.9 2.9 0 0 0 1 .79 3.75 3.75 0 0 0 1.65.32 4.57 4.57 0 0 0 1.48-.23v-1.8zm0-9.14v2.29a10.84 10.84 0 0 0-1.6.15l-.55.11h-.06c-.81.17-1.13-.31-1.5-1.71a10.82 10.82 0 0 1 2.14-.62 12 12 0 0 1 1.57-.26zm-6.14 7.17A3.45 3.45 0 0 0 131 110a2.61 2.61 0 0 0-1.27-.75 2.37 2.37 0 0 0 1-.76 3.21 3.21 0 0 0 .58-1.19c.16-.51.31-1 .45-1.52s.27-1 .4-1.5h-1.76c-1.15.08-1.28.39-1.52 1.17 0 0-.32 1-.45 1.48a1.88 1.88 0 0 1-.71 1.1 2.07 2.07 0 0 1-1.17.33h-.86v-4.1h-.81c-1.86 0-2.26.21-2.26 1.21V115h1.61c1 0 1.45 0 1.45-.76v-4h.92a2.7 2.7 0 0 1 1.24.27 2 2 0 0 1 .84 1.2c.19.56.36 1.1.53 1.64l.13.43c.39 1.18.47 1.19 1.31 1.19h2.11zm13.57-6.99V115h1.68c1 0 1.45 0 1.45-.76v-7.58h2c1.86 0 2.26-.22 2.26-1.21v-1.23zm47.35 0c-1.59 0-2.08.16-2.19.83l-.11 2.32c-.23 3.25-.33 4.2-1.58 5.1-.61.47-.8.92 0 2.68a6.48 6.48 0 0 0 2-.95c2-1.5 2.1-3.83 2.42-7.85H195V115h1.57c1 0 1.45 0 1.45-.76v-10zm8.36-3.15a.57.57 0 0 0 .22-.06.23.23 0 0 0 .11-.22c0-.15-.11-.23-.34-.25v-.32a1 1 0 0 1 .51.12.46.46 0 0 1 .21.43.43.43 0 0 1-.15.35.6.6 0 0 1-.36.13l.2.1.52.78h-.43l-.51-.74v-.32zm0 2a2.1 2.1 0 0 0 .72-.12 1.74 1.74 0 0 0 .6-.36 1.66 1.66 0 0 0 .41-.59 2 2 0 0 0 .15-.81 2.08 2.08 0 0 0-.15-.81 1.65 1.65 0 0 0-.4-.59 1.74 1.74 0 0 0-.6-.36 2.13 2.13 0 0 0-.73-.12v.42a1.67 1.67 0 0 1 .56.09 1.3 1.3 0 0 1 .45.27 1.27 1.27 0 0 1 .31.46 1.64 1.64 0 0 1 .11.64 1.69 1.69 0 0 1-.11.65 1.25 1.25 0 0 1-.3.45 1.2 1.2 0 0 1-.46.27 1.73 1.73 0 0 1-.57.09zm-.07-2.56h-.26v.51h.34v.32l-.34-.11v.85h-.37v-1.84a1.54 1.54 0 0 1 .32-.05h.39v.32zm.07-1.21a2.08 2.08 0 0 0-.7.12 1.76 1.76 0 0 0-.6.36 1.67 1.67 0 0 0-.41.59 2.06 2.06 0 0 0-.15.81 2.11 2.11 0 0 0 .15.81 1.61 1.61 0 0 0 .4.59 1.71 1.71 0 0 0 .6.36 2.13 2.13 0 0 0 .71.12v-.42a1.68 1.68 0 0 1-.53-.09 1.26 1.26 0 0 1-.77-.73 1.67 1.67 0 0 1-.11-.64 1.75 1.75 0 0 1 .11-.64 1.23 1.23 0 0 1 .3-.46 1.29 1.29 0 0 1 .45-.27 1.73 1.73 0 0 1 .55-.09z" transform="translate(-122.62 -99.33)"/><path class="cls-3" d="M1.8 20.03H.57v2.4h-.4v-2.69h2.04v2.69H1.8v-2.4z"/><path class="cls-3" d="M127.12 120.34h.09a.56.56 0 0 0 .22-.07.38.38 0 0 0 .15-.16.6.6 0 0 0 .06-.28.48.48 0 0 0-.06-.25.39.39 0 0 0-.15-.14.57.57 0 0 0-.2-.06h-.11v-.29h.23a1 1 0 0 1 .33.09.68.68 0 0 1 .26.23.71.71 0 0 1 .1.41.78.78 0 0 1-.1.41.72.72 0 0 1-.25.25 1 1 0 0 1-.35.12h-.23zm-.51-1v1h.51v.29h-.51v1.13h-.41v-2.69h.92v.29h-.51zm3.72-.05V119a1.22 1.22 0 0 1 .52.1.85.85 0 0 1 .34.28 1.21 1.21 0 0 1 .19.44 2.64 2.64 0 0 1 .06.58 2.85 2.85 0 0 1-.05.58 1.18 1.18 0 0 1-.18.44.82.82 0 0 1-.34.28 1.25 1.25 0 0 1-.53.1v-.27a.61.61 0 0 0 .33-.08.52.52 0 0 0 .2-.23 1.17 1.17 0 0 0 .1-.35 3.65 3.65 0 0 0 0-.47 3.91 3.91 0 0 0 0-.45 1.14 1.14 0 0 0-.09-.36.55.55 0 0 0-.2-.23.6.6 0 0 0-.35-.07zm0 0a.6.6 0 0 0-.33.08.55.55 0 0 0-.2.23 1.14 1.14 0 0 0-.09.36 3.73 3.73 0 0 0 0 .45 3.65 3.65 0 0 0 0 .47 1.17 1.17 0 0 0 .1.35.52.52 0 0 0 .2.23.61.61 0 0 0 .33.08v.27a1.21 1.21 0 0 1-.52-.1.87.87 0 0 1-.34-.28 1.21 1.21 0 0 1-.19-.44 2.76 2.76 0 0 1-.06-.58 2.65 2.65 0 0 1 .06-.58 1.18 1.18 0 0 1 .19-.44.87.87 0 0 1 .34-.28 1.2 1.2 0 0 1 .51-.1z" transform="translate(-122.62 -99.33)"/><path class="cls-3" d="M11.06 22.43h-.4v-2.4h-.78v-.29h1.98v.29h-.8v2.4zm2.39-.62l.33-.55.93-1.52h.38v2.69h-.38v-2.07h-.01l-.3.5-.97 1.57h-.38v-2.69h.38v2.07h.02z"/><path class="cls-3" d="M140.66 121a.45.45 0 0 0-.06-.23.47.47 0 0 0-.15-.16.7.7 0 0 0-.22-.09h-.17v-.28a.73.73 0 0 0 .31-.1.38.38 0 0 0 .18-.35.31.31 0 0 0-.06-.19.42.42 0 0 0-.14-.12.59.59 0 0 0-.19-.06h-.1v-.29a1.51 1.51 0 0 1 .32 0 1 1 0 0 1 .3.12.61.61 0 0 1 .2.2.53.53 0 0 1 .08.29.56.56 0 0 1-.15.38.75.75 0 0 1-.39.23.82.82 0 0 1 .48.23.65.65 0 0 1 .16.45.66.66 0 0 1-.07.3.71.71 0 0 1-.19.24.91.91 0 0 1-.29.15 1.12 1.12 0 0 1-.35.05h-.11v-.28h.17a.65.65 0 0 0 .22-.08.41.41 0 0 0 .15-.15.49.49 0 0 0 .07-.26zm-.6-.51h-.6v1h.6v.28h-1v-2.69h1v.29h-.6v.84h.6zm3.27-1.2V119a1.22 1.22 0 0 1 .51.1.85.85 0 0 1 .34.28 1.21 1.21 0 0 1 .19.44 2.65 2.65 0 0 1 .06.58 2.85 2.85 0 0 1-.05.58 1.18 1.18 0 0 1-.18.44.82.82 0 0 1-.34.28 1.25 1.25 0 0 1-.53.1v-.27a.61.61 0 0 0 .33-.08.52.52 0 0 0 .2-.23 1.17 1.17 0 0 0 .1-.35 3.66 3.66 0 0 0 0-.47 3.93 3.93 0 0 0 0-.45 1.14 1.14 0 0 0-.09-.36.55.55 0 0 0-.2-.23.6.6 0 0 0-.34-.07zm0 0a.6.6 0 0 0-.33.08.55.55 0 0 0-.2.23 1.15 1.15 0 0 0-.09.36 3.73 3.73 0 0 0 0 .45 3.69 3.69 0 0 0 0 .47 1.18 1.18 0 0 0 .1.35.52.52 0 0 0 .2.23.61.61 0 0 0 .33.08v.27a1.21 1.21 0 0 1-.52-.1.87.87 0 0 1-.34-.28 1.22 1.22 0 0 1-.18-.44 2.75 2.75 0 0 1-.06-.58 2.67 2.67 0 0 1 .06-.58 1.18 1.18 0 0 1 .19-.44.87.87 0 0 1 .34-.28 1.2 1.2 0 0 1 .51-.1zm3.97 1.71a.45.45 0 0 0-.06-.23.47.47 0 0 0-.15-.16.7.7 0 0 0-.22-.09h-.17v-.28a.73.73 0 0 0 .31-.1.38.38 0 0 0 .17-.35.31.31 0 0 0-.06-.19.42.42 0 0 0-.14-.12.59.59 0 0 0-.19-.06h-.1v-.29a1.52 1.52 0 0 1 .32 0 1 1 0 0 1 .3.12.61.61 0 0 1 .2.2.54.54 0 0 1 .08.29.56.56 0 0 1-.15.38.75.75 0 0 1-.39.23.81.81 0 0 1 .48.23.65.65 0 0 1 .16.45.66.66 0 0 1-.07.3.71.71 0 0 1-.19.24.91.91 0 0 1-.29.15 1.13 1.13 0 0 1-.35.05h-.11v-.28h.17a.64.64 0 0 0 .22-.08.41.41 0 0 0 .15-.15.49.49 0 0 0 .08-.26zm-.6-.51h-.6v1h.6v.28h-1v-2.69h1v.29h-.6v.84h.6z" transform="translate(-122.62 -99.33)"/><path class="cls-3" d="M26.75 21.81l.33-.55.94-1.52h.38v2.69h-.38v-2.07H28l-.29.5-.97 1.57h-.38v-2.69h.38v2.07h.01z"/><path class="cls-3" d="M153.3 120.34h.09a.56.56 0 0 0 .22-.07.38.38 0 0 0 .15-.16.59.59 0 0 0 .06-.28.47.47 0 0 0-.06-.25.39.39 0 0 0-.15-.14.57.57 0 0 0-.2-.06h-.11v-.29h.23a1 1 0 0 1 .33.09.68.68 0 0 1 .26.23.71.71 0 0 1 .1.41.78.78 0 0 1-.1.41.72.72 0 0 1-.25.25 1 1 0 0 1-.34.12h-.23zm-.51-1v1h.51v.29h-.51v1.13h-.41v-2.69h.92v.29h-.51zm4.21-.26h.43l-.91 2.08a1.63 1.63 0 0 1-.18.33.76.76 0 0 1-.2.2.7.7 0 0 1-.26.1 2.21 2.21 0 0 1-.36 0v-.25h.24l.17-.06a.46.46 0 0 0 .13-.11.65.65 0 0 0 .1-.17v-.09l-.21-.14-.77-1.87h.44l.52 1.41.12.32.13-.32zm3 2.67a1.56 1.56 0 0 1-.48.07 1.22 1.22 0 0 1-.52-.1.89.89 0 0 1-.34-.29 1.23 1.23 0 0 1-.19-.44 2.5 2.5 0 0 1-.06-.56 2.34 2.34 0 0 1 .06-.53 1.35 1.35 0 0 1 .19-.45 1 1 0 0 1 .35-.32 1.08 1.08 0 0 1 .53-.12 1.68 1.68 0 0 1 .46.05l.31.11-.15.22a1 1 0 0 0-.28-.09h-.33a.59.59 0 0 0-.33.09.65.65 0 0 0-.21.23 1.15 1.15 0 0 0-.12.35 2.34 2.34 0 0 0 0 .43 1.86 1.86 0 0 0 .16.85.54.54 0 0 0 .52.3 1.23 1.23 0 0 0 .36-.05 1.32 1.32 0 0 0 .3-.13l.18.2a1.2 1.2 0 0 1-.41.18z" transform="translate(-122.62 -99.33)"/><path class="cls-3" d="M40.49 21.18h-1.27v1.25h-.41v-2.69h.41v1.15h1.27v-1.15h.41v2.69h-.41v-1.25z"/><path class="cls-3" d="M165.89 119.29V119a1.22 1.22 0 0 1 .51.1.85.85 0 0 1 .34.28 1.21 1.21 0 0 1 .19.44 2.67 2.67 0 0 1 .06.58 2.86 2.86 0 0 1-.05.58 1.18 1.18 0 0 1-.18.44.82.82 0 0 1-.34.28 1.25 1.25 0 0 1-.53.1v-.27a.61.61 0 0 0 .33-.08.52.52 0 0 0 .2-.23 1.18 1.18 0 0 0 .1-.35 3.72 3.72 0 0 0 0-.47 4 4 0 0 0 0-.45 1.15 1.15 0 0 0-.09-.36.55.55 0 0 0-.2-.23.6.6 0 0 0-.34-.07zm0 0a.6.6 0 0 0-.33.08.55.55 0 0 0-.2.23 1.14 1.14 0 0 0-.09.36 3.73 3.73 0 0 0 0 .45 3.69 3.69 0 0 0 0 .47 1.18 1.18 0 0 0 .1.35.52.52 0 0 0 .2.23.61.61 0 0 0 .33.08v.27a1.21 1.21 0 0 1-.52-.1.87.87 0 0 1-.34-.28 1.22 1.22 0 0 1-.19-.44 2.77 2.77 0 0 1-.06-.58 2.65 2.65 0 0 1 .06-.58 1.18 1.18 0 0 1 .19-.44.87.87 0 0 1 .34-.28 1.2 1.2 0 0 1 .51-.1z" transform="translate(-122.62 -99.33)"/><path class="cls-3" d="M45.66 19.74h1.71v.29h-1.32v.85h1.17v.29h-1.17v.98h1.32v.28h-1.71v-2.69z"/><path class="cls-3" d="M174.77 121.75a1.56 1.56 0 0 1-.48.07 1.22 1.22 0 0 1-.52-.1.89.89 0 0 1-.34-.29 1.23 1.23 0 0 1-.19-.44 2.5 2.5 0 0 1-.06-.56 2.34 2.34 0 0 1 .06-.53 1.35 1.35 0 0 1 .19-.45 1 1 0 0 1 .35-.32 1.08 1.08 0 0 1 .53-.12 1.68 1.68 0 0 1 .46.05l.31.11-.15.22a1 1 0 0 0-.28-.09h-.33a.59.59 0 0 0-.33.09.65.65 0 0 0-.21.23 1.15 1.15 0 0 0-.12.35 2.34 2.34 0 0 0 0 .43 1.86 1.86 0 0 0 .16.85.55.55 0 0 0 .52.3 1.23 1.23 0 0 0 .36-.05 1.32 1.32 0 0 0 .3-.13l.18.2a1.2 1.2 0 0 1-.41.18zm2.42-1.41h.09a.56.56 0 0 0 .22-.07.38.38 0 0 0 .15-.16.6.6 0 0 0 .06-.28.48.48 0 0 0-.06-.25.39.39 0 0 0-.15-.14.57.57 0 0 0-.2-.06h-.11v-.29h.23a1 1 0 0 1 .33.09.68.68 0 0 1 .26.23.71.71 0 0 1 .1.41.78.78 0 0 1-.1.41.72.72 0 0 1-.25.25 1 1 0 0 1-.35.12h-.23zm-.51-1v1h.51v.29h-.51v1.13h-.41v-2.69h.92v.29h-.51z" transform="translate(-122.62 -99.33)"/><path class="cls-3" d="M56.78 19.74h1.72v.29h-1.32v.85h1.16v.29h-1.16v.98h1.32v.28h-1.72v-2.69z"/><path class="cls-3" d="M183.56 121.48h.68v-2.12h-.68v-.29h1.09v2.4h.24v.89h-.38v-.61h-.93zm-.35-2.12v1.3a2.68 2.68 0 0 1 0 .35 1.25 1.25 0 0 1-.08.26.76.76 0 0 1-.13.21h.68v.29h-1v.61h-.38v-.88h.21a.69.69 0 0 0 .19-.16.75.75 0 0 0 .12-.24 2.1 2.1 0 0 0 .07-.36v-.52l.05-1.13h.71v.29zm4.43 2.39a1.56 1.56 0 0 1-.48.07 1.22 1.22 0 0 1-.52-.1.89.89 0 0 1-.34-.29 1.22 1.22 0 0 1-.19-.44 2.48 2.48 0 0 1-.06-.56 2.32 2.32 0 0 1 .06-.53 1.34 1.34 0 0 1 .19-.45 1 1 0 0 1 .35-.32 1.08 1.08 0 0 1 .53-.12 1.68 1.68 0 0 1 .46.05l.31.11-.15.22a1 1 0 0 0-.28-.09h-.33a.59.59 0 0 0-.33.09.65.65 0 0 0-.21.23 1.17 1.17 0 0 0-.12.35 2.35 2.35 0 0 0 0 .43 1.86 1.86 0 0 0 .16.85.54.54 0 0 0 .52.3 1.23 1.23 0 0 0 .36-.05 1.33 1.33 0 0 0 .3-.13l.17.2a1.2 1.2 0 0 1-.4.18z" transform="translate(-122.62 -99.33)"/><path class="cls-3" d="M67.49 22.43h-.41v-2.4h-.78v-.29h1.98v.29h-.79v2.4z"/><path class="cls-3" d="M193.68 121a.45.45 0 0 0-.06-.23.47.47 0 0 0-.15-.16.7.7 0 0 0-.22-.09h-.17v-.28a.73.73 0 0 0 .31-.1.38.38 0 0 0 .18-.35.31.31 0 0 0-.06-.19.42.42 0 0 0-.14-.12.59.59 0 0 0-.19-.06h-.1v-.29a1.51 1.51 0 0 1 .32 0 1 1 0 0 1 .3.12.61.61 0 0 1 .2.2.53.53 0 0 1 .08.29.56.56 0 0 1-.15.38.75.75 0 0 1-.39.23.82.82 0 0 1 .48.23.65.65 0 0 1 .16.45.67.67 0 0 1-.07.3.71.71 0 0 1-.19.24.91.91 0 0 1-.29.15 1.12 1.12 0 0 1-.35.05h-.11v-.28h.17a.65.65 0 0 0 .23-.08.42.42 0 0 0 .15-.15.49.49 0 0 0 .06-.26zm-.6-.51h-.6v1h.6v.28h-1v-2.69h1v.29h-.6v.84h.6zm3.27-1.2V119a1.22 1.22 0 0 1 .52.1.85.85 0 0 1 .34.28 1.21 1.21 0 0 1 .19.44 2.67 2.67 0 0 1 .06.58 2.86 2.86 0 0 1-.05.58 1.19 1.19 0 0 1-.18.44.82.82 0 0 1-.34.28 1.25 1.25 0 0 1-.53.1v-.27a.61.61 0 0 0 .33-.08.52.52 0 0 0 .2-.23 1.17 1.17 0 0 0 .1-.35 3.71 3.71 0 0 0 0-.47 4 4 0 0 0 0-.45 1.15 1.15 0 0 0-.09-.36.55.55 0 0 0-.2-.23.6.6 0 0 0-.35-.07zm0 0a.6.6 0 0 0-.33.08.55.55 0 0 0-.2.23 1.14 1.14 0 0 0-.09.36 3.73 3.73 0 0 0 0 .45 3.66 3.66 0 0 0 0 .47 1.17 1.17 0 0 0 .1.35.52.52 0 0 0 .2.23.61.61 0 0 0 .33.08v.27a1.21 1.21 0 0 1-.52-.1.87.87 0 0 1-.34-.28 1.22 1.22 0 0 1-.19-.44 2.78 2.78 0 0 1-.05-.58 2.65 2.65 0 0 1 .06-.58 1.18 1.18 0 0 1 .19-.44.87.87 0 0 1 .34-.28 1.2 1.2 0 0 1 .51-.1z" transform="translate(-122.62 -99.33)"/></svg>