<svg width="200" height="100" id="Слой_1" data-name="Слой 1" xmlns="http://www.w3.org/2000/svg" xmlns:xlink="http://www.w3.org/1999/xlink" viewBox="0 0 736.78 336.27"><defs><style>.cls-1{fill:none;}.cls-2{clip-path:url(#clip-path);}</style><clipPath id="clip-path" transform="translate(0 0)"><rect class="cls-1" width="736.78" height="336.27"/></clipPath></defs><title>logo_2</title><g class="cls-2"><path d="M714.7,247.25c11.47-8,18.18-19.42,18.18-34.36,0-31.87-27.13-48.31-55.1-48.31-29.81,0-57.93,17.66-57.93,52.31H660.6c.09-10.2,7.66-16.14,16-16.14s15.25,5.67,15.25,15.07c0,8.33-6.16,14.64-16.58,14.64h-12v35.88h12.49c11.36,0,18.24,6.41,18.24,15.57,0,10-7.89,16.38-17.37,16.38-8.93,0-16.87-6.41-17-17.84H617.87c0,36.15,27.27,55.81,59,55.81,30.38,0,59.71-17,59.71-50.41.16-16.72-7.29-30-21.91-38.61" transform="translate(0 0)"/><path d="M261.85,164.58c-48.92,0-83.82,35.9-83.82,85.84s34.91,85.85,83.82,85.85h0c48.79,0,83.57-35.76,83.57-85.84s-34.78-85.84-83.57-85.84m0,129.79h0c-23.16,0-40.18-18.51-40.18-43.95s17-43.95,40.18-43.95,39.92,18.37,39.92,43.95S285,294.38,261.85,294.38" transform="translate(0 0)"/><path d="M81.48,294.11c-21.55,0-37.35-18.34-37.35-43.55s15.8-43.91,37.35-43.91c14.76,0,27.06,9.25,33,23.81h43.22c-7.47-39.34-37.66-65.88-76.3-65.88-46.31,0-80.9,36.82-80.9,86,0,48.89,34.59,85.71,80.9,85.71h0c39.83,0,70.5-28.17,77-69.92H115.3c-4.8,16.89-17.64,27.76-33.82,27.76" transform="translate(0 0)"/><path d="M516.46,164.58c-42.11,0-73.81,26.61-81.83,65.88H411.7V168.71h-42V332.14h42V266.35h22.2c6.61,41.47,39,69.92,82.56,69.92h0c48.79,0,83.57-35.76,83.57-85.84s-34.78-85.84-83.57-85.84m0,129.79h0c-23.16,0-40.18-18.51-40.18-43.95s17-43.95,40.18-43.95,39.92,18.37,39.92,43.95-16.76,43.95-39.92,43.95" transform="translate(0 0)"/><path d="M79.06,3.66A56.32,56.32,0,0,0,58.8,0,58.61,58.61,0,0,0,35.41,4.73a55.81,55.81,0,0,0-18.54,13C6.41,28.9,0,44.58,0,62.9A67.1,67.1,0,0,0,9.82,98.68a56.63,56.63,0,0,0,25.59,22.17,58.66,58.66,0,0,0,23.32,4.73h.08a56.08,56.08,0,0,0,20.53-3.77,52.58,52.58,0,0,0,16.78-10.58c8.21-7.68,14.31-18.19,17.33-30.87H91.5A39.84,39.84,0,0,1,85,92a33.15,33.15,0,0,1-26.12,12.5A34.49,34.49,0,0,1,32.35,92.34c-6.5-7.58-10.12-17.92-10.12-29.44A47.65,47.65,0,0,1,28,39.53,36.35,36.35,0,0,1,44,24.25,34.46,34.46,0,0,1,58.87,21a33.42,33.42,0,0,1,21.24,7.53,38.8,38.8,0,0,1,11,14.78H113a61.78,61.78,0,0,0-10.57-22.05A53.26,53.26,0,0,0,79.06,3.66" transform="translate(0 0)"/><polygon points="226.91 3.33 139.2 3.33 139.2 23.05 172.57 23.05 172.57 122.24 193.55 122.24 193.55 23.05 226.91 23.05 226.91 3.33"/><path d="M289.13,120.31a34.83,34.83,0,0,0,13.15-8.26,52.51,52.51,0,0,0,7.58-9.64,112.57,112.57,0,0,0,9.31-19.34L349.81,3.33H327.42L305.58,69.61,277.32,3.33H253.17l41.54,85.39-2,3.07a24.06,24.06,0,0,1-5,5.68,21.88,21.88,0,0,1-6.57,3.67,28,28,0,0,1-4.92,1.24,44.77,44.77,0,0,1-7.13.51h-2.29v20h4.42a53.55,53.55,0,0,0,17.89-2.63" transform="translate(0 0)"/><polygon points="611.96 122.24 611.96 3.33 595.34 3.33 548.7 71.2 536.84 88.45 536.84 3.33 516.6 3.33 516.6 122.24 532.96 122.24 591.71 37.7 591.71 122.24 611.96 122.24"/><path d="M736.78,122.24V3.33H688.57A39.24,39.24,0,0,0,666.32,9.8,36.29,36.29,0,0,0,652.8,27a45.23,45.23,0,0,0-2.91,16.34,38.23,38.23,0,0,0,4.82,19.3A33.21,33.21,0,0,0,668,75.39l5.6,3-22.42,43.84h23.17l20-41.22h22v41.22ZM716.39,58.18v6.5H693.53a22.3,22.3,0,0,1-12.1-3.37,19.76,19.76,0,0,1-7.77-9.51,23.06,23.06,0,0,1-1.53-8.44,21.58,21.58,0,0,1,3.44-12,19.67,19.67,0,0,1,9.58-7.56,23.8,23.8,0,0,1,8.38-1.46h22.86Z" transform="translate(0 0)"/><path d="M378.25,94.2a28.11,28.11,0,0,1-3.43,5.27l-1.95,2.36H356v20.41H484.63V101.83h-17.9V3.33h-77.1c-1.41,20.14-2.5,35.81-3.55,48.15-1.16,13.56-2.27,23.12-3.82,30.46a49.78,49.78,0,0,1-4,12.27m19.24-1.92a44.78,44.78,0,0,0,3.31-8.48,104.18,104.18,0,0,0,2.73-12.71c1.6-10.09,2.75-23.57,3.57-41.59l.28-6.2h39.11v78.54H392.43Z" transform="translate(0 0)"/></g></svg>