<svg width="300" height="100" id="Слой_1" data-name="Слой 1" xmlns="http://www.w3.org/2000/svg" viewBox="0 0 53.494 15.4"><defs><style>.cls-2{fill:#ababab}</style></defs><path d="M277.067 73.067a7.267 7.267 0 0 0-.2-1.733 4.333 4.333 0 0 0-.733-1.467 4.122 4.122 0 0 0-1.333-1 4.629 4.629 0 0 0-2.067-.333h-.067a4.655 4.655 0 0 0-2 .4 4.122 4.122 0 0 0-1.333 1 4.8 4.8 0 0 0-.8 1.4 6.558 6.558 0 0 0-.067 3.467 3.527 3.527 0 0 0 .733 1.4 3.221 3.221 0 0 0 1.333.933 4.494 4.494 0 0 0 2 .333h.067a5.688 5.688 0 0 0 2-.333 5.339 5.339 0 0 0 1.4-1 3.385 3.385 0 0 0 .733-1.467 2.994 2.994 0 0 0 .334-1.6zm-2.467 1.2a4.386 4.386 0 0 1-.267 1 1.459 1.459 0 0 1-.6.667 2.209 2.209 0 0 1-1 .267h-.067a1.607 1.607 0 0 1-1-.267 1.459 1.459 0 0 1-.6-.667 3.855 3.855 0 0 1-.333-.933 7.245 7.245 0 0 1-.067-1.2 6.468 6.468 0 0 1 .067-1.134 4.4 4.4 0 0 1 .333-1 1.955 1.955 0 0 1 .6-.667 1.411 1.411 0 0 1 .933-.267h.067a1.607 1.607 0 0 1 1 .267 1.891 1.891 0 0 1 .6.667 3.61 3.61 0 0 1 .267 1 6.468 6.468 0 0 1 .067 1.133 2.174 2.174 0 0 1 0 1.134z" transform="translate(-248.333 -66.2)" fill="#ef3742"/><path d="M262.467 76.533l-.133-1.267h-.667v-3.4a3.23 3.23 0 0 0-.2-1.2 2.4 2.4 0 0 0-.533-.8 2.066 2.066 0 0 0-.867-.4 5.98 5.98 0 0 0-1.2-.133h-.333a7.7 7.7 0 0 0-1.067.133q-.8.2-1.4.4c.267.933.467 1.267 1 1.133h.067c.133 0 .267-.067.4-.067.4-.067.733-.067 1.067-.133h.067a.965.965 0 0 1 .867.333 1.3 1.3 0 0 1 .267.933v.2c-.467.067-.867.067-1.2.133a4.371 4.371 0 0 0-2.467.667 2.089 2.089 0 0 0-.533.733 2.226 2.226 0 0 0-.2 1 2.5 2.5 0 0 0 .067.667 2.086 2.086 0 0 0 .333.667 1.815 1.815 0 0 0 .667.533 2.656 2.656 0 0 0 1.133.2 4.035 4.035 0 0 0 1-.133c.267-.067.4-.2.533-.2a1.891 1.891 0 0 0 .733-.533c.067.333.133.6.4.667a1.444 1.444 0 0 0 .8.133 4.5 4.5 0 0 0 .933-.133 1.236 1.236 0 0 0 .466-.133zm-2.8-1.733a2.536 2.536 0 0 1-1.2.6h-.133a1.063 1.063 0 0 1-.8-.267.773.773 0 0 1-.267-.667c0-.6.333-.933 1.067-1h.133l1.2-.133V74.8zm-5.867 1.867h1.4l-.8-2.533a3 3 0 0 0-.4-.8 2.146 2.146 0 0 0-.867-.533 1.693 1.693 0 0 0 .667-.533 1.521 1.521 0 0 0 .4-.8 5.554 5.554 0 0 0 .267-1c.067-.333.2-.667.267-1H253.6c-.733.067-.867.267-1 .8 0 0-.2.667-.333 1a1.179 1.179 0 0 1-.467.732 1.422 1.422 0 0 1-.8.2h-.6v-2.733h-.533c-1.267 0-1.533.133-1.533.8V76.6h1.066c.667 0 1 0 1-.533V73.4h.6a1.422 1.422 0 0 1 .8.2 1.224 1.224 0 0 1 .533.8 9.5 9.5 0 0 1 .333 1.067c0 .067.067.2.067.267.4.933.467.933 1.067.933zm14.6-7.2h-4.933v7.2h1.133c.667 0 1 0 1-.533v-5.067h1.333c1.267 0 1.533-.133 1.533-.8v-.8zm16.733 7.933v-2.133h-.867v-5.8h-.6c-1.267 0-1.533.133-1.533.8V75.2h-2.2v-5.8h-.6c-1.267 0-1.533.133-1.533.8v6.333h5.6v1.533h.2c1.267.134 1.533.001 1.533-.666zm3.734-.6h.067a5.1 5.1 0 0 0 2.533-.533c-.267-1.067-.533-1.267-1.133-1.133a3.931 3.931 0 0 1-1.133.133h-.4a1.746 1.746 0 0 1-1-.4 1.8 1.8 0 0 1-.4-1.267h4.667v-.733A6.1 6.1 0 0 0 292 71.8a3.282 3.282 0 0 0-.4-1.133 2.729 2.729 0 0 0-1-.933 3.626 3.626 0 0 0-1.8-.333 3.336 3.336 0 0 0-1.733.4 2.926 2.926 0 0 0-1.067.933 3.173 3.173 0 0 0-.533 1.2 6.717 6.717 0 0 0 0 2.667A3.294 3.294 0 0 0 286 75.8a2.652 2.652 0 0 0 1.067.8 12.315 12.315 0 0 0 1.8.2zm-1.267-5.133a1.34 1.34 0 0 1 .267-.533 1.767 1.767 0 0 1 .4-.333 1.331 1.331 0 0 1 .6-.133h.067c.467 0 .867.133 1 .467a2.138 2.138 0 0 1 .267 1.2h-2.8c.066-.268.132-.468.199-.668zm5.933-1.6l-.067 1.533c-.133 2.133-.2 2.8-1.067 3.4-.4.333-.533.6 0 1.8a5.879 5.879 0 0 0 1.333-.6c1.333-1 1.4-2.533 1.6-5.2h1.268v5.733h1.067c.667 0 1 0 1-.533v-6.667H295c-1.067-.066-1.4.067-1.467.534zm8.2-3.134a1.226 1.226 0 0 0-.667-.667 1.135 1.135 0 0 0-.467-.067 1.135 1.135 0 0 0-.467.067 1.226 1.226 0 0 0-.667.667 1.3 1.3 0 0 0-.067.533c0 .2.067.4.067.533a1.226 1.226 0 0 0 .667.667 1.135 1.135 0 0 0 .467.067.989.989 0 0 0 .467-.067 1.226 1.226 0 0 0 .667-.667 1.3 1.3 0 0 0 .067-.533.708.708 0 0 0-.067-.533zm-.267 1c-.067.133-.133.2-.2.333a1.458 1.458 0 0 1-.333.2.846.846 0 0 1-.4.067.5.5 0 0 1-.333-.067c-.133-.067-.2-.133-.333-.2a1.457 1.457 0 0 1-.2-.333.846.846 0 0 1-.067-.4c0-.133 0-.333.067-.4.067-.133.133-.2.2-.333a1.458 1.458 0 0 1 .333-.2.846.846 0 0 1 .4-.067.846.846 0 0 1 .4.067c.133.067.2.133.333.2a1.457 1.457 0 0 1 .2.333.846.846 0 0 1 .067.4c-.067.134-.067.267-.133.4z" transform="translate(-248.333 -66.2)"/><path d="M300.733 67.533c.067 0 .2-.067.267-.067.067-.067.067-.133.067-.267a.346.346 0 0 0-.133-.267.5.5 0 0 0-.333-.067h-.267a.245.245 0 0 0-.2.067v1.2h.267V67.6l.2.067.333.467h.267l-.333-.533zm-.133-.133h-.2v-.333h.2c.133 0 .2.067.2.133s0 .133-.067.133a.233.233 0 0 1-.133.067z" transform="translate(-248.333 -66.2)"/><path class="cls-2" d="M.2 15h.267v-1.6h.8V15h.266v-1.8H.2V15z"/><path class="cls-2" d="M251.8 79.467c-.067 0-.133-.067-.2-.067h-.733v1.8h.267v-.733h.533c.067 0 .133-.067.2-.067.067-.067.133-.067.2-.133s.067-.133.067-.267 0-.2-.067-.267c-.134-.2-.2-.266-.267-.266zm-.067.6c0 .067-.067.067-.067.133-.067 0-.067.067-.133.067h-.467V79.6h.4c.067 0 .067 0 .133.067a.065.065 0 0 1 .067.067c0 .067.067.067.067.2zm2.4-.467l-.2-.2a.5.5 0 0 0-.333-.067.5.5 0 0 0-.333.067c-.067.067-.2.133-.2.2-.067.067-.067.2-.133.267 0 .133-.067.267-.067.4a.846.846 0 0 0 .067.4.346.346 0 0 0 .133.267l.2.2a.5.5 0 0 0 .333.067.5.5 0 0 0 .333-.067c.067-.067.2-.133.2-.2.067-.067.067-.2.133-.267 0-.133.067-.267.067-.4a.846.846 0 0 0-.067-.4c-.066-.067-.066-.2-.133-.267zm-.133 1c0 .067-.067.2-.067.267a.143.143 0 0 1-.133.133.245.245 0 0 1-.2.067.245.245 0 0 1-.2-.067l-.133-.133c0-.067-.067-.133-.067-.267v-.667a.4.4 0 0 1 .067-.267.143.143 0 0 1 .133-.133.245.245 0 0 1 .2-.067c.067 0 .2 0 .2.067l.133.133c0 .067.067.133.067.267v.667z" transform="translate(-248.333 -66.2)"/><path class="cls-2" d="M6.667 13.4H7.2V15h.267v-1.6H8v-.2H6.667v.2zm2.6.8l-.2.333V13.2H8.8V15h.267l.6-1.067.2-.333V15h.266v-1.8h-.266l-.6 1z"/><path class="cls-2" d="M260.267 80.2c.133-.067.2-.067.267-.133s.067-.133.067-.267a.245.245 0 0 0-.067-.2c0-.067-.067-.067-.133-.133a.245.245 0 0 0-.2-.067h-.867v1.8h.733a.5.5 0 0 0 .267-.067c.067 0 .133-.067.2-.133l.133-.133c0-.067.067-.133.067-.2a.346.346 0 0 0-.133-.267 1.457 1.457 0 0 0-.334-.2zm-.6-.6h.467c.067 0 .067 0 .133.067a.065.065 0 0 1 .067.067.233.233 0 0 1 .067.133c0 .133-.067.2-.133.2a.245.245 0 0 1-.2.067h-.4V79.6zm.733 1.2c0 .067-.067.067-.067.133-.067 0-.067.067-.133.067h-.533v-.667h.533a.233.233 0 0 1 .133.067c.067 0 .067.067.133.133 0 .067.067.067.067.133zm2.4-1.2l-.2-.2a.5.5 0 0 0-.333-.067.5.5 0 0 0-.333.067c-.067.067-.2.133-.2.2-.067.067-.067.2-.133.267 0 .133-.067.267-.067.4a.846.846 0 0 0 .067.4.346.346 0 0 0 .133.267l.2.2a.5.5 0 0 0 .333.067.5.5 0 0 0 .333-.067c.067-.067.2-.133.2-.2.067-.067.067-.2.133-.267 0-.133.067-.267.067-.4a.846.846 0 0 0-.067-.4c-.066-.067-.066-.2-.133-.267zm-.133 1c0 .067-.067.2-.067.267a.143.143 0 0 1-.133.133.245.245 0 0 1-.2.067.245.245 0 0 1-.2-.067c-.067-.067-.133-.067-.133-.133s-.067-.133-.067-.267v-.667a.4.4 0 0 1 .067-.267.143.143 0 0 1 .133-.133.245.245 0 0 1 .2-.067c.067 0 .2 0 .2.067l.133.133c0 .067.067.133.067.267v.667zm2.066-.4c.133-.067.2-.067.267-.133s.067-.133.067-.267a.245.245 0 0 0-.067-.2c0-.067-.067-.067-.133-.133a.245.245 0 0 0-.2-.067h-.867v1.8h.733a.5.5 0 0 0 .267-.067c.067 0 .133-.067.2-.133l.133-.133c0-.067.067-.133.067-.2a.346.346 0 0 0-.133-.267c-.134-.067-.2-.133-.334-.2zm-.667-.6h.467c.067 0 .067 0 .133.067a.065.065 0 0 1 .067.067.233.233 0 0 1 .067.133c0 .133-.067.2-.133.2a.245.245 0 0 1-.2.067h-.4V79.6zm.733 1.2c0 .067-.067.067-.067.133-.067 0-.067.067-.133.067h-.533v-.667h.533a.233.233 0 0 1 .133.067c.067 0 .067.067.067.133s.067.067.067.133.001.134-.066.134z" transform="translate(-248.333 -66.2)"/><path class="cls-2" d="M18.133 14.2l-.2.333V13.2h-.266V15h.266l.6-1.067.2-.333V15H19v-1.8h-.267l-.6 1z"/><path class="cls-2" d="M269.267 79.467c-.067 0-.133-.067-.2-.067h-.733v1.8h.267v-.733h.533c.067 0 .133-.067.2-.067.067-.067.133-.067.2-.133s.067-.133.067-.267 0-.2-.067-.267c-.134-.2-.201-.266-.267-.266zm-.067.6c0 .067-.067.067-.067.133-.067 0-.067.067-.133.067h-.467V79.6h.4c.067 0 .067 0 .133.067a.065.065 0 0 1 .067.067c0 .067.067.067.067.2zm1.733.266l-.067.2-.067-.2-.333-.933h-.266l.533 1.267.133.067v.066c0 .067-.067.067-.067.133l-.067.067a.206.206 0 0 0-.133.067h-.133v.133h.267a.245.245 0 0 0 .2-.067c.067 0 .067-.067.133-.133s.067-.133.133-.2l.6-1.4h-.467zm2.334.667c-.067 0-.133.067-.267.067a.367.367 0 0 1-.333-.2 1.256 1.256 0 0 1-.133-.533v-.267c0-.067.067-.2.067-.267.067-.067.067-.133.133-.133a.245.245 0 0 1 .2-.067h.2a.245.245 0 0 1 .2.067l.067-.133c-.067 0-.133-.067-.2-.067a2.888 2.888 0 0 0-.333-.067.5.5 0 0 0-.333.067c-.067.067-.2.133-.2.2a.509.509 0 0 0-.135.333c0 .133-.067.2-.067.333a.846.846 0 0 0 .067.4.346.346 0 0 0 .133.267l.2.2a.5.5 0 0 0 .333.067.6.6 0 0 0 .333-.067.505.505 0 0 0 .267-.133l-.133-.133c.067-.001 0 .066-.066.066z" transform="translate(-248.333 -66.2)"/><path class="cls-2" d="M27.067 13.933H26.2V13.2h-.267V15h.267v-.867h.867V15h.266v-1.8h-.266v.733z"/><path class="cls-2" d="M277.8 79.6l-.2-.2a.5.5 0 0 0-.333-.067.5.5 0 0 0-.333.067c-.067.067-.2.133-.2.2a.505.505 0 0 0-.133.267c0 .133-.067.267-.067.4a.846.846 0 0 0 .067.4.346.346 0 0 0 .133.267l.2.2a.5.5 0 0 0 .333.067.5.5 0 0 0 .333-.067c.067-.067.2-.133.2-.2.067-.067.067-.2.133-.267 0-.133.067-.267.067-.4a.846.846 0 0 0-.067-.4.505.505 0 0 0-.133-.267zm-.133 1c0 .067-.067.2-.067.267a.143.143 0 0 1-.133.133.245.245 0 0 1-.2.067.245.245 0 0 1-.2-.067l-.133-.133c0-.067-.067-.133-.067-.267v-.667a.4.4 0 0 1 .067-.267.143.143 0 0 1 .133-.133.245.245 0 0 1 .2-.067c.067 0 .2 0 .2.067l.133.133c0 .067.067.133.067.267v.667z" transform="translate(-248.333 -66.2)"/><path class="cls-2" d="M30.533 15h1.134v-.2H30.8v-.667h.733v-.2H30.8V13.4h.867v-.2h-1.134V15z"/><path class="cls-2" d="M283.133 81c-.067 0-.133.067-.267.067a.367.367 0 0 1-.333-.2 1.256 1.256 0 0 1-.133-.533v-.267c0-.067.067-.2.067-.267.067-.067.067-.133.133-.133a.245.245 0 0 1 .2-.067h.2a.245.245 0 0 1 .2.067l.067-.133c-.067 0-.133-.067-.2-.067a2.888 2.888 0 0 0-.333-.067.5.5 0 0 0-.333.067c-.067.067-.2.133-.2.2a.509.509 0 0 0-.133.333c0 .133-.067.2-.067.333a.846.846 0 0 0 .067.4.346.346 0 0 0 .132.267l.2.2a.5.5 0 0 0 .333.067.6.6 0 0 0 .333-.067.505.505 0 0 0 .267-.133l-.133-.133c.067-.001 0 .066-.067.066zm2-1.533c-.067 0-.133-.067-.2-.067h-.733v1.8h.267v-.733H285c.067 0 .133-.067.2-.067.067-.067.133-.067.133-.133.067-.067.067-.133.067-.267s0-.2-.067-.267c-.066-.2-.133-.266-.2-.266zm-.067.6c0 .067-.067.067-.067.133-.067 0-.067.067-.133.067h-.466V79.6h.4c.067 0 .067 0 .133.067a.065.065 0 0 1 .067.067c0 .067.067.067.067.2.066-.001.066.066 0 .133z" transform="translate(-248.333 -66.2)"/><path class="cls-2" d="M37.933 15h1.134v-.2H38.2v-.667h.8v-.2h-.8V13.4h.867v-.2h-1.134V15z"/><path class="cls-2" d="M289.8 79.4h-1.2l-.067.733v.333a.4.4 0 0 1-.067.267.233.233 0 0 1-.067.133l-.133.133h-.133v.6h.267v-.4h1.267v.4h.267V81h-.134v-1.6zm-.333 1.6h-.933c.067-.067.067-.067.067-.133s.067-.133.067-.2V79.6h.733V81zm2.2 0c-.067 0-.133.067-.267.067a.367.367 0 0 1-.333-.2 1.256 1.256 0 0 1-.133-.533v-.267c0-.067.067-.2.067-.267.067-.067.067-.133.133-.133a.245.245 0 0 1 .2-.067h.2a.245.245 0 0 1 .2.067l.067-.133c-.067 0-.133-.067-.2-.067a2.888 2.888 0 0 0-.333-.067.5.5 0 0 0-.333.067c-.067.067-.2.133-.2.2a.509.509 0 0 0-.135.333c0 .133-.067.2-.067.333a.846.846 0 0 0 .067.4.346.346 0 0 0 .133.267l.2.2a.5.5 0 0 0 .333.067.6.6 0 0 0 .333-.067.505.505 0 0 0 .267-.133l-.133-.133c.067-.001 0 .066-.066.066z" transform="translate(-248.333 -66.2)"/><path class="cls-2" d="M44.267 13.4h.533V15h.267v-1.6h.533v-.2h-1.333v.2z"/><path class="cls-2" d="M295.6 80.2c.133-.067.2-.067.267-.133s.067-.133.067-.267a.245.245 0 0 0-.067-.2c0-.067-.067-.067-.133-.133a.245.245 0 0 0-.2-.067h-.867v1.8h.733a.5.5 0 0 0 .267-.067c.067 0 .133-.067.2-.133l.133-.133c0-.067.067-.133.067-.2a.346.346 0 0 0-.133-.267.713.713 0 0 0-.334-.2zm-.6-.6h.467c.067 0 .067 0 .133.067a.065.065 0 0 1 .067.067.233.233 0 0 1 .067.133c0 .133-.067.2-.133.2a.245.245 0 0 1-.2.067H295V79.6zm.733 1.2c0 .067-.067.067-.067.133-.067 0-.067.067-.133.067H295v-.667h.533a.233.233 0 0 1 .133.067c.067 0 .067.067.067.133s.067.067.067.133 0 .134-.067.134zm2.4-1.2l-.2-.2a.5.5 0 0 0-.333-.067.5.5 0 0 0-.333.067c-.067.067-.2.133-.2.2a.505.505 0 0 0-.133.267c0 .133-.067.267-.067.4a.846.846 0 0 0 .067.4.346.346 0 0 0 .133.267l.2.2a.5.5 0 0 0 .333.067.5.5 0 0 0 .333-.067c.067-.067.2-.133.2-.2.067-.067.067-.2.133-.267 0-.133.067-.267.067-.4a.846.846 0 0 0-.067-.4c-.066-.067-.066-.2-.133-.267zm-.133 1c0 .067-.067.2-.067.267a.143.143 0 0 1-.133.133.245.245 0 0 1-.2.067.245.245 0 0 1-.2-.067c-.067-.067-.133-.067-.133-.133s-.067-.133-.067-.267v-.667a.4.4 0 0 1 .067-.267.143.143 0 0 1 .133-.133.245.245 0 0 1 .2-.067c.067 0 .2 0 .2.067l.133.133c0 .067.067.133.067.267v.667z" transform="translate(-248.333 -66.2)"/></svg>