<svg width="300" height="100" id="vector" xmlns="http://www.w3.org/2000/svg" viewBox="0 0 9.53 2.743"><defs><style>.cls-1{fill:#ef3742;}.cls-2{fill:#fff;}.cls-3{fill:#cfcfce;}</style></defs><title>logo_1_2</title><path class="cls-1" d="M134.335,13.017a1.3,1.3,0,0,0-.036-.309.772.772,0,0,0-.131-.261.734.734,0,0,0-.238-.178.825.825,0,0,0-.368-.059h-.012a.829.829,0,0,0-.356.071.734.734,0,0,0-.238.178.854.854,0,0,0-.143.249,1.168,1.168,0,0,0-.012.618.628.628,0,0,0,.131.249.574.574,0,0,0,.238.166.8.8,0,0,0,.356.059h.012a1.013,1.013,0,0,0,.356-.059.951.951,0,0,0,.249-.178.6.6,0,0,0,.131-.261A.533.533,0,0,0,134.335,13.017Zm-.439.214a.781.781,0,0,1-.048.178.26.26,0,0,1-.107.119.393.393,0,0,1-.178.048h-.012a.286.286,0,0,1-.178-.048.26.26,0,0,1-.107-.119.687.687,0,0,1-.059-.166,1.291,1.291,0,0,1-.012-.214,1.152,1.152,0,0,1,.012-.2.785.785,0,0,1,.059-.178.348.348,0,0,1,.107-.119.251.251,0,0,1,.166-.048h.012a.286.286,0,0,1,.178.048.337.337,0,0,1,.107.119.643.643,0,0,1,.048.178,1.152,1.152,0,0,1,.012.2A.387.387,0,0,1,133.9,13.23Z" transform="translate(-129.216 -11.793)"/><path class="cls-2" d="M131.734,13.634l-.024-.226h-.119V12.8a.575.575,0,0,0-.036-.214.427.427,0,0,0-.1-.143.368.368,0,0,0-.154-.071,1.065,1.065,0,0,0-.214-.024h-.059a1.372,1.372,0,0,0-.19.024q-.143.036-.249.071c.048.166.083.226.178.2h.012c.024,0,.048-.012.071-.012.071-.012.131-.012.19-.024h.012a.172.172,0,0,1,.154.059.232.232,0,0,1,.048.166v.036c-.083.012-.154.012-.214.024a.779.779,0,0,0-.439.119.372.372,0,0,0-.1.131.4.4,0,0,0-.036.178.445.445,0,0,0,.012.119.372.372,0,0,0,.059.119.323.323,0,0,0,.119.1.473.473,0,0,0,.2.036.719.719,0,0,0,.178-.024c.048-.012.071-.036.1-.036a.337.337,0,0,0,.131-.1h0c.012.059.024.107.071.119a.257.257,0,0,0,.143.024.8.8,0,0,0,.166-.024A.22.22,0,0,0,131.734,13.634Zm-.5-.309a.452.452,0,0,1-.214.107H131a.189.189,0,0,1-.143-.048.138.138,0,0,1-.048-.119c0-.107.059-.166.19-.178h.024l.214-.024Z" transform="translate(-129.216 -11.793)"/><path class="cls-2" d="M130.19,13.658h.249l-.143-.451a.534.534,0,0,0-.071-.143.382.382,0,0,0-.154-.1h0a.3.3,0,0,0,.119-.1.271.271,0,0,0,.071-.143.989.989,0,0,0,.048-.178c.012-.059.036-.119.048-.178h-.2c-.131.012-.154.048-.178.143,0,0-.036.119-.059.178a.21.21,0,0,1-.083.131.253.253,0,0,1-.143.036h-.107v-.487h-.1c-.226,0-.273.024-.273.143v1.128h.19c.119,0,.178,0,.178-.1v-.475h.107a.253.253,0,0,1,.143.036.218.218,0,0,1,.1.143,1.692,1.692,0,0,1,.059.19c0,.012.012.036.012.048C130.071,13.658,130.083,13.658,130.19,13.658Z" transform="translate(-129.216 -11.793)"/><path class="cls-2" d="M132.791,12.375h-.879v1.283h.2c.119,0,.178,0,.178-.1v-.9h.238c.226,0,.273-.024.273-.143v-.143Z" transform="translate(-129.216 -11.793)"/><path class="cls-2" d="M135.772,13.789v-.38h-.154V12.375h-.107c-.226,0-.273.024-.273.143V13.4h-.392V12.363h-.107c-.226,0-.273.024-.273.143v1.128h1v.273h.036C135.724,13.931,135.772,13.907,135.772,13.789Z" transform="translate(-129.216 -11.793)"/><path class="cls-2" d="M136.437,13.682h.012a.909.909,0,0,0,.451-.1c-.048-.19-.1-.226-.2-.2a.7.7,0,0,1-.2.024h-.071a.311.311,0,0,1-.178-.071.322.322,0,0,1-.071-.226h.831v-.131a1.087,1.087,0,0,0-.012-.19.585.585,0,0,0-.071-.2.486.486,0,0,0-.178-.166.646.646,0,0,0-.321-.059h0a.594.594,0,0,0-.309.071.521.521,0,0,0-.19.166.565.565,0,0,0-.1.214,1.2,1.2,0,0,0,0,.475.587.587,0,0,0,.1.214.472.472,0,0,0,.19.143A2.194,2.194,0,0,0,136.437,13.682Zm-.226-.914a.239.239,0,0,1,.048-.1.315.315,0,0,1,.071-.059.237.237,0,0,1,.107-.024h.012c.083,0,.154.024.178.083a.381.381,0,0,1,.048.214h-.5C136.188,12.838,136.2,12.8,136.211,12.767Z" transform="translate(-129.216 -11.793)"/><path class="cls-2" d="M137.268,12.482l-.012.273c-.024.38-.036.5-.19.606-.071.059-.1.107,0,.321a1.047,1.047,0,0,0,.238-.107c.238-.178.249-.451.285-.926h.226V13.67H138c.119,0,.178,0,.178-.1V12.387h-.653C137.34,12.375,137.28,12.4,137.268,12.482Z" transform="translate(-129.216 -11.793)"/><path class="cls-2" d="M138.551,12.031c.012,0,.036-.012.048-.012s.012-.024.012-.048a.062.062,0,0,0-.024-.048.089.089,0,0,0-.059-.012h-.048a.044.044,0,0,0-.036.012v.214h.048v-.1l.036.012h0l.059.083h.048l-.059-.1Zm-.024-.024h-.036v-.059h.036c.024,0,.036.012.036.024s0,.024-.012.024A.041.041,0,0,1,138.527,12.007Z" transform="translate(-129.216 -11.793)"/><path class="cls-2" d="M138.729,11.924a.218.218,0,0,0-.119-.119.2.2,0,0,0-.083-.012h0a.2.2,0,0,0-.083.012.218.218,0,0,0-.119.119.232.232,0,0,0-.012.1c0,.036.012.071.012.1a.218.218,0,0,0,.119.119.2.2,0,0,0,.083.012h0a.176.176,0,0,0,.083-.012.218.218,0,0,0,.119-.119.232.232,0,0,0,.012-.1A.126.126,0,0,0,138.729,11.924Zm-.048.178c-.012.024-.024.036-.036.059a.26.26,0,0,1-.059.036.151.151,0,0,1-.071.012h0a.089.089,0,0,1-.059-.012c-.024-.012-.036-.024-.059-.036a.26.26,0,0,1-.036-.059.151.151,0,0,1-.012-.071c0-.024,0-.059.012-.071s.024-.036.036-.059a.26.26,0,0,1,.059-.036.151.151,0,0,1,.071-.012h0a.151.151,0,0,1,.071.012c.024.012.036.024.059.036a.26.26,0,0,1,.036.059.151.151,0,0,1,.012.071C138.694,12.055,138.694,12.078,138.682,12.1Z" transform="translate(-129.216 -11.793)"/><polygon class="cls-3" points="0.036 2.672 0.083 2.672 0.083 2.387 0.226 2.387 0.226 2.672 0.273 2.672 0.273 2.352 0.036 2.352 0.036 2.672"/><path class="cls-3" d="M129.834,14.157c-.012,0-.024-.012-.036-.012h-.131v.321h.048v-.131h.1c.012,0,.024-.012.036-.012s.024-.012.036-.024.012-.024.012-.048,0-.036-.012-.048C129.857,14.169,129.846,14.157,129.834,14.157Zm-.012.107c0,.012-.012.012-.012.024s-.012.012-.024.012H129.7v-.119h.071c.012,0,.012,0,.024.012a.012.012,0,0,1,.012.012c0,.012.012.012.012.036Z" transform="translate(-129.216 -11.793)"/><path class="cls-3" d="M130.249,14.181l-.036-.036a.089.089,0,0,0-.059-.012h0a.089.089,0,0,0-.059.012c-.012.012-.036.024-.036.036s-.012.036-.024.048-.012.048-.012.071a.151.151,0,0,0,.012.071.062.062,0,0,0,.024.048l.036.036a.089.089,0,0,0,.059.012h0a.089.089,0,0,0,.059-.012c.012-.012.036-.024.036-.036s.012-.036.024-.048.012-.048.012-.071a.151.151,0,0,0-.012-.071C130.261,14.216,130.261,14.192,130.249,14.181Zm-.024.178c0,.012-.012.036-.012.048a.026.026,0,0,1-.024.024.044.044,0,0,1-.036.012h0a.044.044,0,0,1-.036-.012l-.024-.024c0-.012-.012-.024-.012-.048V14.24a.071.071,0,0,1,.012-.048.026.026,0,0,1,.024-.024.044.044,0,0,1,.036-.012h0c.012,0,.036,0,.036.012l.024.024c0,.012.012.024.012.048v.119Z" transform="translate(-129.216 -11.793)"/><polygon class="cls-3" points="1.188 2.387 1.283 2.387 1.283 2.672 1.33 2.672 1.33 2.387 1.425 2.387 1.425 2.352 1.188 2.352 1.188 2.387"/><polygon class="cls-3" points="1.651 2.53 1.615 2.589 1.615 2.589 1.615 2.352 1.568 2.352 1.568 2.672 1.615 2.672 1.722 2.482 1.758 2.423 1.758 2.423 1.758 2.672 1.805 2.672 1.805 2.352 1.758 2.352 1.651 2.53"/><path class="cls-3" d="M131.342,14.287h0c.024-.012.036-.012.048-.024s.012-.024.012-.048a.044.044,0,0,0-.012-.036c0-.012-.012-.012-.024-.024a.044.044,0,0,0-.036-.012h-.154v.321h.131a.09.09,0,0,0,.048-.012c.012,0,.024-.012.036-.024l.024-.024c0-.012.012-.024.012-.036a.062.062,0,0,0-.024-.048A.26.26,0,0,0,131.342,14.287Zm-.107-.107h.083c.012,0,.012,0,.024.012a.012.012,0,0,1,.012.012.041.041,0,0,1,.012.024c0,.024-.012.036-.024.036a.044.044,0,0,1-.036.012h-.071Zm.131.214c0,.012-.012.012-.012.024s-.012.012-.024.012h-.1v-.119h.1a.041.041,0,0,1,.024.012c.012,0,.012.012.024.024s.012.012.012.024Z" transform="translate(-129.216 -11.793)"/><path class="cls-3" d="M131.793,14.181l-.036-.036a.089.089,0,0,0-.059-.012h0a.089.089,0,0,0-.059.012c-.012.012-.036.024-.036.036s-.012.036-.024.048-.012.048-.012.071a.151.151,0,0,0,.012.071.062.062,0,0,0,.024.048l.036.036a.089.089,0,0,0,.059.012h0a.089.089,0,0,0,.059-.012c.012-.012.036-.024.036-.036s.012-.036.024-.048.012-.048.012-.071a.151.151,0,0,0-.012-.071C131.805,14.216,131.805,14.192,131.793,14.181Zm-.024.178c0,.012-.012.036-.012.048a.026.026,0,0,1-.024.024.044.044,0,0,1-.036.012h0a.044.044,0,0,1-.036-.012c-.012-.012-.024-.012-.024-.024s-.012-.024-.012-.048V14.24a.071.071,0,0,1,.012-.048.026.026,0,0,1,.024-.024.044.044,0,0,1,.036-.012h0c.012,0,.036,0,.036.012l.024.024c0,.012.012.024.012.048v.119Z" transform="translate(-129.216 -11.793)"/><path class="cls-3" d="M132.138,14.287h0c.024-.012.036-.012.048-.024s.012-.024.012-.048a.044.044,0,0,0-.012-.036c0-.012-.012-.012-.024-.024a.044.044,0,0,0-.036-.012h-.154v.321h.131a.09.09,0,0,0,.048-.012c.012,0,.024-.012.036-.024l.024-.024c0-.012.012-.024.012-.036a.062.062,0,0,0-.024-.048C132.173,14.311,132.162,14.3,132.138,14.287Zm-.119-.107h.083c.012,0,.012,0,.024.012a.012.012,0,0,1,.012.012.041.041,0,0,1,.012.024c0,.024-.012.036-.024.036a.044.044,0,0,1-.036.012h-.071Zm.131.214c0,.012-.012.012-.012.024s-.012.012-.024.012h-.1v-.119h.1a.041.041,0,0,1,.024.012c.012,0,.012.012.012.024s.012.012.012.024S132.162,14.394,132.15,14.394Z" transform="translate(-129.216 -11.793)"/><polygon class="cls-3" points="3.23 2.53 3.195 2.589 3.195 2.589 3.195 2.352 3.147 2.352 3.147 2.672 3.195 2.672 3.302 2.482 3.337 2.423 3.337 2.423 3.337 2.672 3.385 2.672 3.385 2.352 3.337 2.352 3.23 2.53"/><path class="cls-3" d="M132.945,14.157c-.012,0-.024-.012-.036-.012h-.131v.321h.048v-.131h.1c.012,0,.024-.012.036-.012s.024-.012.036-.024.012-.024.012-.048,0-.036-.012-.048C132.969,14.169,132.957,14.157,132.945,14.157Zm-.012.107c0,.012-.012.012-.012.024s-.012.012-.024.012h-.083v-.119h.071c.012,0,.012,0,.024.012a.012.012,0,0,1,.012.012c0,.012.012.012.012.036Z" transform="translate(-129.216 -11.793)"/><path class="cls-3" d="M133.242,14.311l-.012.036h0l-.012-.036-.059-.166h-.048l.1.226.024.012v.012c0,.012-.012.012-.012.024l-.012.012a.037.037,0,0,0-.024.012h-.024v.024h.048a.044.044,0,0,0,.036-.012c.012,0,.012-.012.024-.024s.012-.024.024-.036l.107-.249h-.083Z" transform="translate(-129.216 -11.793)"/><path class="cls-3" d="M133.658,14.43c-.012,0-.024.012-.048.012a.065.065,0,0,1-.059-.036.224.224,0,0,1-.024-.1v-.048c0-.012.012-.036.012-.048s.012-.024.024-.024a.044.044,0,0,1,.036-.012h.036a.044.044,0,0,1,.036.012l.012-.024c-.012,0-.024-.012-.036-.012a.514.514,0,0,0-.059-.012.089.089,0,0,0-.059.012c-.012.012-.036.024-.036.036a.091.091,0,0,0-.024.059c0,.024-.012.036-.012.059a.151.151,0,0,0,.012.071.062.062,0,0,0,.024.048l.036.036a.089.089,0,0,0,.059.012.107.107,0,0,0,.059-.012.09.09,0,0,0,.048-.024l-.024-.024C133.682,14.418,133.67,14.43,133.658,14.43Z" transform="translate(-129.216 -11.793)"/><polygon class="cls-3" points="4.822 2.482 4.667 2.482 4.667 2.352 4.62 2.352 4.62 2.672 4.667 2.672 4.667 2.518 4.822 2.518 4.822 2.672 4.869 2.672 4.869 2.352 4.822 2.352 4.822 2.482"/><path class="cls-3" d="M134.466,14.181l-.036-.036a.089.089,0,0,0-.059-.012h0a.089.089,0,0,0-.059.012c-.012.012-.036.024-.036.036a.09.09,0,0,0-.024.048c0,.024-.012.048-.012.071a.151.151,0,0,0,.012.071.062.062,0,0,0,.024.048l.036.036a.089.089,0,0,0,.059.012h0a.089.089,0,0,0,.059-.012c.012-.012.036-.024.036-.036s.012-.036.024-.048.012-.048.012-.071a.151.151,0,0,0-.012-.071A.09.09,0,0,0,134.466,14.181Zm-.024.178c0,.012-.012.036-.012.048a.026.026,0,0,1-.024.024.044.044,0,0,1-.036.012h0a.044.044,0,0,1-.036-.012l-.024-.024c0-.012-.012-.024-.012-.048V14.24a.071.071,0,0,1,.012-.048.026.026,0,0,1,.024-.024.044.044,0,0,1,.036-.012h0c.012,0,.036,0,.036.012l.024.024c0,.012.012.024.012.048v.119Z" transform="translate(-129.216 -11.793)"/><polygon class="cls-3" points="5.439 2.672 5.641 2.672 5.641 2.637 5.487 2.637 5.487 2.518 5.618 2.518 5.618 2.482 5.487 2.482 5.487 2.387 5.641 2.387 5.641 2.352 5.439 2.352 5.439 2.672"/><path class="cls-3" d="M135.416,14.43c-.012,0-.024.012-.048.012a.065.065,0,0,1-.059-.036.224.224,0,0,1-.024-.1v-.048c0-.012.012-.036.012-.048s.012-.024.024-.024a.044.044,0,0,1,.036-.012h.036a.044.044,0,0,1,.036.012l.012-.024c-.012,0-.024-.012-.036-.012a.514.514,0,0,0-.059-.012.089.089,0,0,0-.059.012c-.012.012-.036.024-.036.036a.091.091,0,0,0-.024.059c0,.024-.012.036-.012.059a.151.151,0,0,0,.012.071.062.062,0,0,0,.024.048l.036.036a.089.089,0,0,0,.059.012.107.107,0,0,0,.059-.012.09.09,0,0,0,.048-.024l-.024-.024C135.439,14.418,135.428,14.43,135.416,14.43Z" transform="translate(-129.216 -11.793)"/><path class="cls-3" d="M135.772,14.157c-.012,0-.024-.012-.036-.012h-.131v.321h.048v-.131h.1c.012,0,.024-.012.036-.012s.024-.012.024-.024.012-.024.012-.048,0-.036-.012-.048C135.8,14.169,135.784,14.157,135.772,14.157Zm-.012.107c0,.012-.012.012-.012.024s-.012.012-.024.012h-.083v-.119h.071c.012,0,.012,0,.024.012a.012.012,0,0,1,.012.012c0,.012.012.012.012.036C135.772,14.24,135.772,14.252,135.76,14.264Z" transform="translate(-129.216 -11.793)"/><polygon class="cls-3" points="6.758 2.672 6.96 2.672 6.96 2.637 6.805 2.637 6.805 2.518 6.948 2.518 6.948 2.482 6.805 2.482 6.805 2.387 6.96 2.387 6.96 2.352 6.758 2.352 6.758 2.672"/><path class="cls-3" d="M136.6,14.145h-.214l-.012.131v.059a.071.071,0,0,1-.012.048.041.041,0,0,1-.012.024l-.024.024h-.024v.107h.048v-.071h.226v.071h.048V14.43H136.6Zm-.059.285h-.166c.012-.012.012-.012.012-.024s.012-.024.012-.036v-.19h.131v.249Z" transform="translate(-129.216 -11.793)"/><path class="cls-3" d="M136.936,14.43c-.012,0-.024.012-.048.012a.065.065,0,0,1-.059-.036.224.224,0,0,1-.024-.1v-.048c0-.012.012-.036.012-.048s.012-.024.024-.024a.044.044,0,0,1,.036-.012h.036a.044.044,0,0,1,.036.012l.012-.024c-.012,0-.024-.012-.036-.012a.514.514,0,0,0-.059-.012.089.089,0,0,0-.059.012c-.012.012-.036.024-.036.036a.091.091,0,0,0-.024.059c0,.024-.012.036-.012.059a.151.151,0,0,0,.012.071.062.062,0,0,0,.024.048l.036.036a.089.089,0,0,0,.059.012.107.107,0,0,0,.059-.012.09.09,0,0,0,.048-.024l-.024-.024C136.96,14.418,136.948,14.43,136.936,14.43Z" transform="translate(-129.216 -11.793)"/><polygon class="cls-3" points="7.886 2.387 7.981 2.387 7.981 2.672 8.029 2.672 8.029 2.387 8.124 2.387 8.124 2.352 7.886 2.352 7.886 2.387"/><path class="cls-3" d="M137.637,14.287h0c.024-.012.036-.012.048-.024s.012-.024.012-.048a.044.044,0,0,0-.012-.036c0-.012-.012-.012-.024-.024a.044.044,0,0,0-.036-.012h-.154v.321h.131a.09.09,0,0,0,.048-.012c.012,0,.024-.012.036-.024l.024-.024c0-.012.012-.024.012-.036a.062.062,0,0,0-.024-.048A.127.127,0,0,0,137.637,14.287Zm-.107-.107h.083c.012,0,.012,0,.024.012a.012.012,0,0,1,.012.012.041.041,0,0,1,.012.024c0,.024-.012.036-.024.036a.044.044,0,0,1-.036.012h-.071Zm.131.214c0,.012-.012.012-.012.024s-.012.012-.024.012h-.1v-.119h.1a.041.041,0,0,1,.024.012c.012,0,.012.012.012.024s.012.012.012.024S137.672,14.394,137.66,14.394Z" transform="translate(-129.216 -11.793)"/><path class="cls-3" d="M138.088,14.181l-.036-.036a.089.089,0,0,0-.059-.012h0a.089.089,0,0,0-.059.012c-.012.012-.036.024-.036.036a.09.09,0,0,0-.024.048c0,.024-.012.048-.012.071a.151.151,0,0,0,.012.071.062.062,0,0,0,.024.048l.036.036a.089.089,0,0,0,.059.012h0a.089.089,0,0,0,.059-.012c.012-.012.036-.024.036-.036s.012-.036.024-.048.012-.048.012-.071a.151.151,0,0,0-.012-.071C138.1,14.216,138.1,14.192,138.088,14.181Zm-.024.178c0,.012-.012.036-.012.048a.026.026,0,0,1-.024.024.044.044,0,0,1-.036.012h0a.044.044,0,0,1-.036-.012c-.012-.012-.024-.012-.024-.024s-.012-.024-.012-.048V14.24a.071.071,0,0,1,.012-.048.026.026,0,0,1,.024-.024.044.044,0,0,1,.036-.012h0c.012,0,.036,0,.036.012l.024.024c0,.012.012.024.012.048v.119Z" transform="translate(-129.216 -11.793)"/></svg>