<svg width="200" height="100" data-name="Слой 1" xmlns="http://www.w3.org/2000/svg" viewBox="0 0 736.78 336.27"><defs><clipPath id="a"><path fill="none" d="M0 0h736.78v336.27H0z"/></clipPath></defs><g clip-path="url(#a)"><path d="M714.7 247.25c11.47-8 18.18-19.42 18.18-34.36 0-31.87-27.13-48.31-55.1-48.31-29.81 0-57.93 17.66-57.93 52.31h40.75c.09-10.2 7.66-16.14 16-16.14s15.25 5.67 15.25 15.07c0 8.33-6.16 14.64-16.58 14.64h-12v35.88h12.49c11.36 0 18.24 6.41 18.24 15.57 0 10-7.89 16.38-17.37 16.38-8.93 0-16.87-6.41-17-17.84h-41.76c0 36.15 27.27 55.81 59 55.81 30.38 0 59.71-17 59.71-50.41.16-16.72-7.29-30-21.91-38.61m-452.82-82.66c-48.92 0-83.82 35.9-83.82 85.84s34.91 85.85 83.82 85.85c48.79 0 83.57-35.76 83.57-85.84s-34.78-85.84-83.57-85.84m0 129.79c-23.16 0-40.18-18.51-40.18-43.95s17-43.95 40.18-43.95 39.92 18.37 39.92 43.95-16.77 43.95-39.92 43.95m-180.37-.27c-21.55 0-37.35-18.34-37.35-43.55s15.8-43.91 37.35-43.91c14.76 0 27.06 9.25 33 23.81h43.22c-7.47-39.34-37.66-65.88-76.3-65.88-46.31 0-80.9 36.82-80.9 86 0 48.89 34.59 85.71 80.9 85.71 39.83 0 70.5-28.17 77-69.92h-43.1c-4.8 16.89-17.64 27.76-33.82 27.76m434.98-129.55c-42.11 0-73.81 26.61-81.83 65.88H411.7v-61.75h-42v163.43h42v-65.79h22.2c6.61 41.47 39 69.92 82.56 69.92 48.79 0 83.57-35.76 83.57-85.84s-34.78-85.84-83.57-85.84m0 129.79c-23.16 0-40.18-18.51-40.18-43.95s17-43.95 40.18-43.95 39.92 18.37 39.92 43.95-16.76 43.95-39.92 43.95M79.06 3.66A56.32 56.32 0 0 0 58.8 0a58.61 58.61 0 0 0-23.39 4.73 55.81 55.81 0 0 0-18.54 13C6.41 28.9 0 44.58 0 62.9a67.1 67.1 0 0 0 9.82 35.78 56.63 56.63 0 0 0 25.59 22.17 58.66 58.66 0 0 0 23.32 4.73h.08a56.08 56.08 0 0 0 20.53-3.77 52.58 52.58 0 0 0 16.78-10.58c8.21-7.68 14.31-18.19 17.33-30.87H91.5A39.84 39.84 0 0 1 85 92a33.15 33.15 0 0 1-26.12 12.5 34.49 34.49 0 0 1-26.53-12.16c-6.5-7.58-10.12-17.92-10.12-29.44A47.65 47.65 0 0 1 28 39.53a36.35 36.35 0 0 1 16-15.28A34.46 34.46 0 0 1 58.87 21a33.42 33.42 0 0 1 21.24 7.53 38.8 38.8 0 0 1 11 14.78H113a61.78 61.78 0 0 0-10.57-22.05 53.26 53.26 0 0 0-23.37-17.6m147.85-.33H139.2v19.72h33.37v99.19h20.98V23.05h33.36V3.33zm62.22 116.98a34.83 34.83 0 0 0 13.15-8.26 52.51 52.51 0 0 0 7.58-9.64 112.57 112.57 0 0 0 9.31-19.34l30.64-79.74h-22.39l-21.84 66.28-28.26-66.28h-24.15l41.54 85.39-2 3.07a24.06 24.06 0 0 1-5 5.68 21.88 21.88 0 0 1-6.57 3.67 28 28 0 0 1-4.92 1.24 44.77 44.77 0 0 1-7.13.51h-2.29v20h4.42a53.55 53.55 0 0 0 17.89-2.63m322.85 1.98V3.33h-16.62L548.7 71.2l-11.86 17.25V3.33H516.6v118.91h16.36l58.75-84.54v84.54h20.25zm124.82 0V3.33h-48.21a39.24 39.24 0 0 0-22.25 6.47A36.29 36.29 0 0 0 652.8 27a45.23 45.23 0 0 0-2.91 16.34 38.23 38.23 0 0 0 4.82 19.3A33.21 33.21 0 0 0 668 75.39l5.6 3-22.42 43.84h23.17l20-41.22h22v41.22zm-20.39-64.06v6.5h-22.86a22.3 22.3 0 0 1-12.1-3.37 19.76 19.76 0 0 1-7.77-9.51 23.06 23.06 0 0 1-1.53-8.44 21.58 21.58 0 0 1 3.44-12 19.67 19.67 0 0 1 9.58-7.56 23.8 23.8 0 0 1 8.38-1.46h22.86zM378.25 94.2a28.11 28.11 0 0 1-3.43 5.27l-1.95 2.36H356v20.41h128.63v-20.41h-17.9V3.33h-77.1c-1.41 20.14-2.5 35.81-3.55 48.15-1.16 13.56-2.27 23.12-3.82 30.46a49.78 49.78 0 0 1-4 12.27m19.24-1.92a44.78 44.78 0 0 0 3.31-8.48 104.18 104.18 0 0 0 2.73-12.71c1.6-10.09 2.75-23.57 3.57-41.59l.28-6.2h39.11v78.54h-54.07z"/></g></svg>