<svg width="300" height="100" id="Слой_1" data-name="Слой 1" xmlns="http://www.w3.org/2000/svg" viewBox="0 0 53.494 15.4"><defs><style>.cls-1{fill:#ef3742;}.cls-2{fill:#ababab;}</style></defs><title>logo_1</title><path class="cls-1" d="M277.067,73.067a7.267,7.267,0,0,0-.2-1.733,4.333,4.333,0,0,0-.733-1.467,4.122,4.122,0,0,0-1.333-1,4.629,4.629,0,0,0-2.067-.333h-.067a4.655,4.655,0,0,0-2,.4,4.122,4.122,0,0,0-1.333,1,4.8,4.8,0,0,0-.8,1.4,6.558,6.558,0,0,0-.067,3.467,3.527,3.527,0,0,0,.733,1.4,3.221,3.221,0,0,0,1.333.933,4.494,4.494,0,0,0,2,.333h.067a5.688,5.688,0,0,0,2-.333,5.339,5.339,0,0,0,1.4-1,3.385,3.385,0,0,0,.733-1.467A2.994,2.994,0,0,0,277.067,73.067Zm-2.467,1.2a4.386,4.386,0,0,1-.267,1,1.459,1.459,0,0,1-.6.667,2.209,2.209,0,0,1-1,.267h-.067a1.607,1.607,0,0,1-1-.267,1.459,1.459,0,0,1-.6-.667,3.855,3.855,0,0,1-.333-.933,7.245,7.245,0,0,1-.067-1.2A6.468,6.468,0,0,1,270.733,72a4.4,4.4,0,0,1,.333-1,1.955,1.955,0,0,1,.6-.667,1.411,1.411,0,0,1,.933-.267h.067a1.607,1.607,0,0,1,1,.267,1.891,1.891,0,0,1,.6.667,3.61,3.61,0,0,1,.267,1,6.468,6.468,0,0,1,.067,1.133A2.174,2.174,0,0,1,274.6,74.267Z" transform="translate(-248.333 -66.2)"/><path d="M262.467,76.533l-.133-1.267h-.667v-3.4a3.23,3.23,0,0,0-.2-1.2,2.4,2.4,0,0,0-.533-.8,2.066,2.066,0,0,0-.867-.4,5.98,5.98,0,0,0-1.2-.133h-.333a7.7,7.7,0,0,0-1.067.133q-.8.2-1.4.4c.267.933.467,1.267,1,1.133h.067c.133,0,.267-.067.4-.067.4-.067.733-.067,1.067-.133h.067a.965.965,0,0,1,.867.333,1.3,1.3,0,0,1,.267.933v.2c-.467.067-.867.067-1.2.133a4.371,4.371,0,0,0-2.467.667,2.089,2.089,0,0,0-.533.733,2.226,2.226,0,0,0-.2,1,2.5,2.5,0,0,0,.067.667,2.086,2.086,0,0,0,.333.667,1.815,1.815,0,0,0,.667.533,2.656,2.656,0,0,0,1.133.2,4.035,4.035,0,0,0,1-.133c.267-.067.4-.2.533-.2a1.891,1.891,0,0,0,.733-.533h0c.067.333.133.6.4.667a1.444,1.444,0,0,0,.8.133,4.5,4.5,0,0,0,.933-.133A1.236,1.236,0,0,0,262.467,76.533Zm-2.8-1.733a2.536,2.536,0,0,1-1.2.6h-.133a1.063,1.063,0,0,1-.8-.267.773.773,0,0,1-.267-.667c0-.6.333-.933,1.067-1h.133l1.2-.133V74.8Z" transform="translate(-248.333 -66.2)"/><path d="M253.8,76.667h1.4l-.8-2.533a3,3,0,0,0-.4-.8,2.146,2.146,0,0,0-.867-.533h0a1.693,1.693,0,0,0,.667-.533,1.521,1.521,0,0,0,.4-.8,5.554,5.554,0,0,0,.267-1c.067-.333.2-.667.267-1H253.6c-.733.067-.867.267-1,.8,0,0-.2.667-.333,1A1.179,1.179,0,0,1,251.8,72a1.422,1.422,0,0,1-.8.2h-.6V69.467h-.533c-1.267,0-1.533.133-1.533.8V76.6H249.4c.667,0,1,0,1-.533V73.4h.6a1.422,1.422,0,0,1,.8.2,1.224,1.224,0,0,1,.533.8,9.5,9.5,0,0,1,.333,1.067c0,.067.067.2.067.267C253.133,76.667,253.2,76.667,253.8,76.667Z" transform="translate(-248.333 -66.2)"/><path d="M268.4,69.467h-4.933v7.2H264.6c.667,0,1,0,1-.533V71.067h1.333c1.267,0,1.533-.133,1.533-.8v-.8Z" transform="translate(-248.333 -66.2)"/><path d="M285.133,77.4V75.267h-.867v-5.8h-.6c-1.267,0-1.533.133-1.533.8V75.2h-2.2V69.4h-.6c-1.267,0-1.533.133-1.533.8v6.333h5.6v1.533h.2C284.867,78.2,285.133,78.067,285.133,77.4Z" transform="translate(-248.333 -66.2)"/><path d="M288.867,76.8h.067a5.1,5.1,0,0,0,2.533-.533c-.267-1.067-.533-1.267-1.133-1.133a3.931,3.931,0,0,1-1.133.133h-.4a1.746,1.746,0,0,1-1-.4,1.8,1.8,0,0,1-.4-1.267h4.667v-.733A6.1,6.1,0,0,0,292,71.8a3.282,3.282,0,0,0-.4-1.133,2.729,2.729,0,0,0-1-.933,3.626,3.626,0,0,0-1.8-.333h0a3.336,3.336,0,0,0-1.733.4,2.926,2.926,0,0,0-1.067.933,3.173,3.173,0,0,0-.533,1.2,6.717,6.717,0,0,0,0,2.667A3.294,3.294,0,0,0,286,75.8a2.652,2.652,0,0,0,1.067.8A12.315,12.315,0,0,0,288.867,76.8ZM287.6,71.667a1.34,1.34,0,0,1,.267-.533,1.767,1.767,0,0,1,.4-.333,1.331,1.331,0,0,1,.6-.133h.067c.467,0,.867.133,1,.467a2.138,2.138,0,0,1,.267,1.2h-2.8C287.467,72.067,287.533,71.867,287.6,71.667Z" transform="translate(-248.333 -66.2)"/><path d="M293.533,70.067l-.067,1.533c-.133,2.133-.2,2.8-1.067,3.4-.4.333-.533.6,0,1.8a5.879,5.879,0,0,0,1.333-.6c1.333-1,1.4-2.533,1.6-5.2H296.6v5.733h1.067c.667,0,1,0,1-.533V69.533H295C293.933,69.467,293.6,69.6,293.533,70.067Z" transform="translate(-248.333 -66.2)"/><path d="M301.733,66.933a1.226,1.226,0,0,0-.667-.667,1.135,1.135,0,0,0-.467-.067h0a1.135,1.135,0,0,0-.467.067,1.226,1.226,0,0,0-.667.667,1.3,1.3,0,0,0-.067.533c0,.2.067.4.067.533a1.226,1.226,0,0,0,.667.667,1.135,1.135,0,0,0,.467.067h0a.989.989,0,0,0,.467-.067,1.226,1.226,0,0,0,.667-.667,1.3,1.3,0,0,0,.067-.533A.708.708,0,0,0,301.733,66.933Zm-.267,1c-.067.133-.133.2-.2.333a1.458,1.458,0,0,1-.333.2.846.846,0,0,1-.4.067h0a.5.5,0,0,1-.333-.067c-.133-.067-.2-.133-.333-.2a1.457,1.457,0,0,1-.2-.333.846.846,0,0,1-.067-.4c0-.133,0-.333.067-.4.067-.133.133-.2.2-.333a1.458,1.458,0,0,1,.333-.2.846.846,0,0,1,.4-.067h0a.846.846,0,0,1,.4.067c.133.067.2.133.333.2a1.457,1.457,0,0,1,.2.333.846.846,0,0,1,.067.4C301.533,67.667,301.533,67.8,301.467,67.933Z" transform="translate(-248.333 -66.2)"/><path d="M300.733,67.533c.067,0,.2-.067.267-.067.067-.067.067-.133.067-.267a.346.346,0,0,0-.133-.267.5.5,0,0,0-.333-.067h-.267a.245.245,0,0,0-.2.067v1.2h.267V67.6l.2.067h0l.333.467h.267l-.333-.533ZM300.6,67.4h-.2v-.333h.2c.133,0,.2.067.2.133s0,.133-.067.133A.233.233,0,0,1,300.6,67.4Z" transform="translate(-248.333 -66.2)"/><polygon class="cls-2" points="0.2 15 0.467 15 0.467 13.4 1.267 13.4 1.267 15 1.533 15 1.533 13.2 0.2 13.2 0.2 15"/><path class="cls-2" d="M251.8,79.467c-.067,0-.133-.067-.2-.067h-.733v1.8h.267v-.733h.533c.067,0,.133-.067.2-.067.067-.067.133-.067.2-.133s.067-.133.067-.267,0-.2-.067-.267C251.933,79.533,251.867,79.467,251.8,79.467Zm-.067.6c0,.067-.067.067-.067.133-.067,0-.067.067-.133.067h-.467V79.6h.4c.067,0,.067,0,.133.067a.065.065,0,0,1,.067.067c0,.067.067.067.067.2Z" transform="translate(-248.333 -66.2)"/><path class="cls-2" d="M254.133,79.6l-.2-.2a.5.5,0,0,0-.333-.067h0a.5.5,0,0,0-.333.067c-.067.067-.2.133-.2.2-.067.067-.067.2-.133.267,0,.133-.067.267-.067.4a.846.846,0,0,0,.067.4.346.346,0,0,0,.133.267l.2.2a.5.5,0,0,0,.333.067h0a.5.5,0,0,0,.333-.067c.067-.067.2-.133.2-.2.067-.067.067-.2.133-.267,0-.133.067-.267.067-.4a.846.846,0,0,0-.067-.4C254.2,79.8,254.2,79.667,254.133,79.6Zm-.133,1c0,.067-.067.2-.067.267A.143.143,0,0,1,253.8,81a.245.245,0,0,1-.2.067h0a.245.245,0,0,1-.2-.067l-.133-.133c0-.067-.067-.133-.067-.267v-.667a.4.4,0,0,1,.067-.267.143.143,0,0,1,.133-.133.245.245,0,0,1,.2-.067h0c.067,0,.2,0,.2.067l.133.133c0,.067.067.133.067.267V80.6Z" transform="translate(-248.333 -66.2)"/><polygon class="cls-2" points="6.667 13.4 7.2 13.4 7.2 15 7.467 15 7.467 13.4 8 13.4 8 13.2 6.667 13.2 6.667 13.4"/><polygon class="cls-2" points="9.267 14.2 9.067 14.533 9.067 14.533 9.067 13.2 8.8 13.2 8.8 15 9.067 15 9.667 13.933 9.867 13.6 9.867 13.6 9.867 15 10.133 15 10.133 13.2 9.867 13.2 9.267 14.2"/><path class="cls-2" d="M260.267,80.2h0c.133-.067.2-.067.267-.133s.067-.133.067-.267a.245.245,0,0,0-.067-.2c0-.067-.067-.067-.133-.133a.245.245,0,0,0-.2-.067h-.867v1.8h.733a.5.5,0,0,0,.267-.067c.067,0,.133-.067.2-.133l.133-.133c0-.067.067-.133.067-.2a.346.346,0,0,0-.133-.267A1.457,1.457,0,0,0,260.267,80.2Zm-.6-.6h.467c.067,0,.067,0,.133.067a.065.065,0,0,1,.067.067.233.233,0,0,1,.067.133c0,.133-.067.2-.133.2a.245.245,0,0,1-.2.067h-.4V79.6Zm.733,1.2c0,.067-.067.067-.067.133-.067,0-.067.067-.133.067h-.533v-.667h.533a.233.233,0,0,1,.133.067c.067,0,.067.067.133.133,0,.067.067.067.067.133Z" transform="translate(-248.333 -66.2)"/><path class="cls-2" d="M262.8,79.6l-.2-.2a.5.5,0,0,0-.333-.067h0a.5.5,0,0,0-.333.067c-.067.067-.2.133-.2.2-.067.067-.067.2-.133.267,0,.133-.067.267-.067.4a.846.846,0,0,0,.067.4.346.346,0,0,0,.133.267l.2.2a.5.5,0,0,0,.333.067h0a.5.5,0,0,0,.333-.067c.067-.067.2-.133.2-.2.067-.067.067-.2.133-.267,0-.133.067-.267.067-.4a.846.846,0,0,0-.067-.4C262.867,79.8,262.867,79.667,262.8,79.6Zm-.133,1c0,.067-.067.2-.067.267a.143.143,0,0,1-.133.133.245.245,0,0,1-.2.067h0a.245.245,0,0,1-.2-.067c-.067-.067-.133-.067-.133-.133s-.067-.133-.067-.267v-.667a.4.4,0,0,1,.067-.267.143.143,0,0,1,.133-.133.245.245,0,0,1,.2-.067h0c.067,0,.2,0,.2.067l.133.133c0,.067.067.133.067.267V80.6Z" transform="translate(-248.333 -66.2)"/><path class="cls-2" d="M264.733,80.2h0c.133-.067.2-.067.267-.133s.067-.133.067-.267a.245.245,0,0,0-.067-.2c0-.067-.067-.067-.133-.133a.245.245,0,0,0-.2-.067H263.8v1.8h.733a.5.5,0,0,0,.267-.067c.067,0,.133-.067.2-.133l.133-.133c0-.067.067-.133.067-.2a.346.346,0,0,0-.133-.267C264.933,80.333,264.867,80.267,264.733,80.2Zm-.667-.6h.467c.067,0,.067,0,.133.067a.065.065,0,0,1,.067.067.233.233,0,0,1,.067.133c0,.133-.067.2-.133.2a.245.245,0,0,1-.2.067h-.4V79.6Zm.733,1.2c0,.067-.067.067-.067.133-.067,0-.067.067-.133.067h-.533v-.667h.533a.233.233,0,0,1,.133.067c.067,0,.067.067.067.133s.067.067.067.133S264.867,80.8,264.8,80.8Z" transform="translate(-248.333 -66.2)"/><polygon class="cls-2" points="18.133 14.2 17.933 14.533 17.933 14.533 17.933 13.2 17.667 13.2 17.667 15 17.933 15 18.533 13.933 18.733 13.6 18.733 13.6 18.733 15 19 15 19 13.2 18.733 13.2 18.133 14.2"/><path class="cls-2" d="M269.267,79.467c-.067,0-.133-.067-.2-.067h-.733v1.8h.267v-.733h.533c.067,0,.133-.067.2-.067.067-.067.133-.067.2-.133s.067-.133.067-.267,0-.2-.067-.267C269.4,79.533,269.333,79.467,269.267,79.467Zm-.067.6c0,.067-.067.067-.067.133-.067,0-.067.067-.133.067h-.467V79.6h.4c.067,0,.067,0,.133.067a.065.065,0,0,1,.067.067c0,.067.067.067.067.2Z" transform="translate(-248.333 -66.2)"/><path class="cls-2" d="M270.933,80.333l-.067.2h0l-.067-.2-.333-.933H270.2l.533,1.267.133.067V80.8c0,.067-.067.067-.067.133l-.067.067a.206.206,0,0,0-.133.067h-.133V81.2h.267a.245.245,0,0,0,.2-.067c.067,0,.067-.067.133-.133s.067-.133.133-.2l.6-1.4h-.467Z" transform="translate(-248.333 -66.2)"/><path class="cls-2" d="M273.267,81c-.067,0-.133.067-.267.067a.367.367,0,0,1-.333-.2,1.256,1.256,0,0,1-.133-.533v-.267c0-.067.067-.2.067-.267.067-.067.067-.133.133-.133a.245.245,0,0,1,.2-.067h.2a.245.245,0,0,1,.2.067l.067-.133c-.067,0-.133-.067-.2-.067a2.888,2.888,0,0,0-.333-.067.5.5,0,0,0-.333.067c-.067.067-.2.133-.2.2A.509.509,0,0,0,272.2,80c0,.133-.067.2-.067.333a.846.846,0,0,0,.067.4.346.346,0,0,0,.133.267l.2.2a.5.5,0,0,0,.333.067.6.6,0,0,0,.333-.067.505.505,0,0,0,.267-.133l-.133-.133C273.4,80.933,273.333,81,273.267,81Z" transform="translate(-248.333 -66.2)"/><polygon class="cls-2" points="27.067 13.933 26.2 13.933 26.2 13.2 25.933 13.2 25.933 15 26.2 15 26.2 14.133 27.067 14.133 27.067 15 27.333 15 27.333 13.2 27.067 13.2 27.067 13.933"/><path class="cls-2" d="M277.8,79.6l-.2-.2a.5.5,0,0,0-.333-.067h0a.5.5,0,0,0-.333.067c-.067.067-.2.133-.2.2a.505.505,0,0,0-.133.267c0,.133-.067.267-.067.4a.846.846,0,0,0,.067.4.346.346,0,0,0,.133.267l.2.2a.5.5,0,0,0,.333.067h0a.5.5,0,0,0,.333-.067c.067-.067.2-.133.2-.2.067-.067.067-.2.133-.267,0-.133.067-.267.067-.4a.846.846,0,0,0-.067-.4A.505.505,0,0,0,277.8,79.6Zm-.133,1c0,.067-.067.2-.067.267a.143.143,0,0,1-.133.133.245.245,0,0,1-.2.067h0a.245.245,0,0,1-.2-.067l-.133-.133c0-.067-.067-.133-.067-.267v-.667a.4.4,0,0,1,.067-.267.143.143,0,0,1,.133-.133.245.245,0,0,1,.2-.067h0c.067,0,.2,0,.2.067l.133.133c0,.067.067.133.067.267V80.6Z" transform="translate(-248.333 -66.2)"/><polygon class="cls-2" points="30.533 15 31.667 15 31.667 14.8 30.8 14.8 30.8 14.133 31.533 14.133 31.533 13.933 30.8 13.933 30.8 13.4 31.667 13.4 31.667 13.2 30.533 13.2 30.533 15"/><path class="cls-2" d="M283.133,81c-.067,0-.133.067-.267.067a.367.367,0,0,1-.333-.2,1.256,1.256,0,0,1-.133-.533v-.267c0-.067.067-.2.067-.267.067-.067.067-.133.133-.133a.245.245,0,0,1,.2-.067h.2a.245.245,0,0,1,.2.067l.067-.133c-.067,0-.133-.067-.2-.067a2.888,2.888,0,0,0-.333-.067.5.5,0,0,0-.333.067c-.067.067-.2.133-.2.2a.509.509,0,0,0-.133.333c0,.133-.067.2-.067.333a.846.846,0,0,0,.067.4A.346.346,0,0,0,282.2,81l.2.2a.5.5,0,0,0,.333.067.6.6,0,0,0,.333-.067.505.505,0,0,0,.267-.133l-.133-.133C283.267,80.933,283.2,81,283.133,81Z" transform="translate(-248.333 -66.2)"/><path class="cls-2" d="M285.133,79.467c-.067,0-.133-.067-.2-.067H284.2v1.8h.267v-.733H285c.067,0,.133-.067.2-.067.067-.067.133-.067.133-.133.067-.067.067-.133.067-.267s0-.2-.067-.267C285.267,79.533,285.2,79.467,285.133,79.467Zm-.067.6c0,.067-.067.067-.067.133-.067,0-.067.067-.133.067H284.4V79.6h.4c.067,0,.067,0,.133.067a.065.065,0,0,1,.067.067c0,.067.067.067.067.2C285.133,79.933,285.133,80,285.067,80.067Z" transform="translate(-248.333 -66.2)"/><polygon class="cls-2" points="37.933 15 39.067 15 39.067 14.8 38.2 14.8 38.2 14.133 39 14.133 39 13.933 38.2 13.933 38.2 13.4 39.067 13.4 39.067 13.2 37.933 13.2 37.933 15"/><path class="cls-2" d="M289.8,79.4h-1.2l-.067.733v.333a.4.4,0,0,1-.067.267.233.233,0,0,1-.067.133l-.133.133h-.133v.6h.267v-.4h1.267v.4h.267V81H289.8V79.4Zm-.333,1.6h-.933c.067-.067.067-.067.067-.133s.067-.133.067-.2V79.6h.733V81Z" transform="translate(-248.333 -66.2)"/><path class="cls-2" d="M291.667,81c-.067,0-.133.067-.267.067a.367.367,0,0,1-.333-.2,1.256,1.256,0,0,1-.133-.533v-.267c0-.067.067-.2.067-.267.067-.067.067-.133.133-.133a.245.245,0,0,1,.2-.067h.2a.245.245,0,0,1,.2.067l.067-.133c-.067,0-.133-.067-.2-.067a2.888,2.888,0,0,0-.333-.067.5.5,0,0,0-.333.067c-.067.067-.2.133-.2.2A.509.509,0,0,0,290.6,80c0,.133-.067.2-.067.333a.846.846,0,0,0,.067.4.346.346,0,0,0,.133.267l.2.2a.5.5,0,0,0,.333.067.6.6,0,0,0,.333-.067.505.505,0,0,0,.267-.133l-.133-.133C291.8,80.933,291.733,81,291.667,81Z" transform="translate(-248.333 -66.2)"/><polygon class="cls-2" points="44.267 13.4 44.8 13.4 44.8 15 45.067 15 45.067 13.4 45.6 13.4 45.6 13.2 44.267 13.2 44.267 13.4"/><path class="cls-2" d="M295.6,80.2h0c.133-.067.2-.067.267-.133s.067-.133.067-.267a.245.245,0,0,0-.067-.2c0-.067-.067-.067-.133-.133a.245.245,0,0,0-.2-.067h-.867v1.8h.733a.5.5,0,0,0,.267-.067c.067,0,.133-.067.2-.133l.133-.133c0-.067.067-.133.067-.2a.346.346,0,0,0-.133-.267A.713.713,0,0,0,295.6,80.2Zm-.6-.6h.467c.067,0,.067,0,.133.067a.065.065,0,0,1,.067.067.233.233,0,0,1,.067.133c0,.133-.067.2-.133.2a.245.245,0,0,1-.2.067H295V79.6Zm.733,1.2c0,.067-.067.067-.067.133-.067,0-.067.067-.133.067H295v-.667h.533a.233.233,0,0,1,.133.067c.067,0,.067.067.067.133s.067.067.067.133S295.8,80.8,295.733,80.8Z" transform="translate(-248.333 -66.2)"/><path class="cls-2" d="M298.133,79.6l-.2-.2a.5.5,0,0,0-.333-.067h0a.5.5,0,0,0-.333.067c-.067.067-.2.133-.2.2a.505.505,0,0,0-.133.267c0,.133-.067.267-.067.4a.846.846,0,0,0,.067.4.346.346,0,0,0,.133.267l.2.2a.5.5,0,0,0,.333.067h0a.5.5,0,0,0,.333-.067c.067-.067.2-.133.2-.2.067-.067.067-.2.133-.267,0-.133.067-.267.067-.4a.846.846,0,0,0-.067-.4C298.2,79.8,298.2,79.667,298.133,79.6Zm-.133,1c0,.067-.067.2-.067.267A.143.143,0,0,1,297.8,81a.245.245,0,0,1-.2.067h0a.245.245,0,0,1-.2-.067c-.067-.067-.133-.067-.133-.133s-.067-.133-.067-.267v-.667a.4.4,0,0,1,.067-.267.143.143,0,0,1,.133-.133.245.245,0,0,1,.2-.067h0c.067,0,.2,0,.2.067l.133.133c0,.067.067.133.067.267V80.6Z" transform="translate(-248.333 -66.2)"/></svg>