<svg width="300" height="100" id="vector" xmlns="http://www.w3.org/2000/svg" viewBox="0 0 80.17 23.05"><defs><style>.cls-1{fill:#fff;}.cls-1,.cls-2,.cls-3{fill-rule:evenodd;}.cls-2{fill:#ef3742;}.cls-3{fill:#cfcfce;}</style></defs><title>logo_1</title><path class="cls-1" d="M177.67,116.11V112.9h-1.34v-8.65h-.88c-1.86,0-2.25.22-2.25,1.21v7.45h-3.33v-8.65H169c-1.86,0-2.26.22-2.26,1.21V115h8.42v2.32h.26C177.28,117.32,177.67,117.1,177.67,116.11Z" transform="translate(-122.62 -99.33)"/><path class="cls-2" d="M165.31,107a5.71,5.71,0,0,0-1.09-2.16,5.24,5.24,0,0,0-2-1.48,7.63,7.63,0,0,0-3.06-.54h-.08a7.43,7.43,0,0,0-3,.56,5.62,5.62,0,0,0-2,1.48,5.83,5.83,0,0,0-1.16,2.15,9,9,0,0,0-.37,2.6,10.06,10.06,0,0,0,.33,2.62,5.49,5.49,0,0,0,1.1,2.13,5.23,5.23,0,0,0,2,1.44,7.73,7.73,0,0,0,3,.53h.08a7.85,7.85,0,0,0,3-.54,5.45,5.45,0,0,0,2.06-1.48,5.65,5.65,0,0,0,1.13-2.16,9.48,9.48,0,0,0,.34-2.57A9.87,9.87,0,0,0,165.31,107Zm-3.36,4.31a4.91,4.91,0,0,1-.43,1.46,2.42,2.42,0,0,1-.89,1,2.66,2.66,0,0,1-1.47.37h-.09a3,3,0,0,1-1.48-.35,2.56,2.56,0,0,1-.93-1,4.09,4.09,0,0,1-.46-1.43,12.66,12.66,0,0,1-.12-1.81,10.72,10.72,0,0,1,.13-1.69,4.66,4.66,0,0,1,.49-1.48,2.94,2.94,0,0,1,.95-1,2.59,2.59,0,0,1,1.42-.4h.09a2.5,2.5,0,0,1,1.48.4,2.66,2.66,0,0,1,.87,1,5.11,5.11,0,0,1,.43,1.48,11.94,11.94,0,0,1,.12,1.69A12.11,12.11,0,0,1,161.95,111.35Z" transform="translate(-122.62 -99.33)"/><path class="cls-1" d="M183.26,106h.12a1.63,1.63,0,0,1,1.53.69,3.58,3.58,0,0,1,.43,1.76h-2.08v1.93h4.93v-1.12a12.4,12.4,0,0,0-.12-1.63,4.38,4.38,0,0,0-.61-1.72,3.87,3.87,0,0,0-1.48-1.36,5.63,5.63,0,0,0-2.72-.55h0v2Zm0,9.22v-2.33l.57,0a7,7,0,0,0,1.73-.16c.91-.23,1.23.1,1.66,1.66a8.51,8.51,0,0,1-3.85.81Zm-1.9-7.7a2.43,2.43,0,0,1,.39-.79,1.77,1.77,0,0,1,.65-.54,2.1,2.1,0,0,1,.87-.19v-2a5.4,5.4,0,0,0-2.62.56,4.71,4.71,0,0,0-1.61,1.39,5,5,0,0,0-.81,1.84,9,9,0,0,0-.22,1.88,9.53,9.53,0,0,0,.23,2.12,4.42,4.42,0,0,0,.83,1.76,4,4,0,0,0,1.64,1.22,6.69,6.69,0,0,0,2.56.45v-2.33a2.37,2.37,0,0,1-1.5-.61,2.62,2.62,0,0,1-.62-1.9h2.12v-1.93h-2.08A4.9,4.9,0,0,1,181.36,107.48Z" transform="translate(-122.62 -99.33)"/><path class="cls-1" d="M139.55,112.24a4.55,4.55,0,0,1-1.8.94V115a6.89,6.89,0,0,0,.79-.34,4.76,4.76,0,0,0,1.14-.77l0,0a1.22,1.22,0,0,0,.56,1,2.55,2.55,0,0,0,1.17.24,6.86,6.86,0,0,0,2.3-.41l-.18-1.89h-1v-5.15a4.61,4.61,0,0,0-.3-1.76,2.83,2.83,0,0,0-.84-1.15,3.44,3.44,0,0,0-1.33-.64,7.3,7.3,0,0,0-1.75-.2l-.55,0v2.29h.12c.8,0,1,.16,1.28.47a2.11,2.11,0,0,1,.4,1.39v.26l-1.8.15v1.74l1.8-.16Zm-1.8.94-.23,0a1.69,1.69,0,0,1-1.19-.35,1.34,1.34,0,0,1-.37-1c0-.89.54-1.38,1.62-1.47l.18,0V108.6c-1.76.15-2.85.3-3.66,1a3,3,0,0,0-1.15,2.51,3.92,3.92,0,0,0,.14,1,2.74,2.74,0,0,0,.51,1,2.9,2.9,0,0,0,1,.79,3.75,3.75,0,0,0,1.65.32,4.57,4.57,0,0,0,1.48-.23v-1.8Zm0-9.14v2.29a10.84,10.84,0,0,0-1.6.15l-.55.11h-.06c-.81.17-1.13-.31-1.5-1.71a10.82,10.82,0,0,1,2.14-.62A12,12,0,0,1,137.75,104Z" transform="translate(-122.62 -99.33)"/><path class="cls-1" d="M131.61,111.21A3.45,3.45,0,0,0,131,110a2.61,2.61,0,0,0-1.27-.75v0a2.37,2.37,0,0,0,1-.76,3.21,3.21,0,0,0,.58-1.19c.16-.51.31-1,.45-1.52s.27-1,.4-1.5H130.4c-1.15.08-1.28.39-1.52,1.17,0,0-.32,1-.45,1.48a1.88,1.88,0,0,1-.71,1.1,2.07,2.07,0,0,1-1.17.33h-.86v-4.1h-.81c-1.86,0-2.26.21-2.26,1.21V115h1.61c1,0,1.45,0,1.45-.76v-4h.92a2.7,2.7,0,0,1,1.24.27,2,2,0,0,1,.84,1.2c.19.56.36,1.1.53,1.64l.13.43c.39,1.18.47,1.19,1.31,1.19h2.11Z" transform="translate(-122.62 -99.33)"/><path class="cls-1" d="M145.18,104.22V115h1.68c1,0,1.45,0,1.45-.76v-7.58h2c1.86,0,2.26-.22,2.26-1.21v-1.23Z" transform="translate(-122.62 -99.33)"/><path class="cls-1" d="M192.53,104.22c-1.59,0-2.08.16-2.19.83l-.11,2.32c-.23,3.25-.33,4.2-1.58,5.1-.61.47-.8.92,0,2.68a6.48,6.48,0,0,0,2-.95c2-1.5,2.1-3.83,2.42-7.85H195V115h1.57c1,0,1.45,0,1.45-.76v-10Z" transform="translate(-122.62 -99.33)"/><path class="cls-1" d="M200.89,101.07a.57.57,0,0,0,.22-.06.23.23,0,0,0,.11-.22c0-.15-.11-.23-.34-.25v-.32h0a1,1,0,0,1,.51.12.46.46,0,0,1,.21.43.43.43,0,0,1-.15.35.6.6,0,0,1-.36.13l.2.1.52.78h-.43l-.51-.74h0v-.32Zm0,2h0a2.1,2.1,0,0,0,.72-.12,1.74,1.74,0,0,0,.6-.36,1.66,1.66,0,0,0,.41-.59,2,2,0,0,0,.15-.81,2.08,2.08,0,0,0-.15-.81,1.65,1.65,0,0,0-.4-.59,1.74,1.74,0,0,0-.6-.36,2.13,2.13,0,0,0-.73-.12h0v.42h0a1.67,1.67,0,0,1,.56.09,1.3,1.3,0,0,1,.45.27,1.27,1.27,0,0,1,.31.46,1.64,1.64,0,0,1,.11.64,1.69,1.69,0,0,1-.11.65,1.25,1.25,0,0,1-.3.45,1.2,1.2,0,0,1-.46.27,1.73,1.73,0,0,1-.57.09h0Zm-.07-2.56h-.15l-.11,0v.51h.34v.32l-.34-.11v.85h-.37v-1.84a1.54,1.54,0,0,1,.32-.05l.39,0v.32Zm.07-1.21a2.08,2.08,0,0,0-.7.12,1.76,1.76,0,0,0-.6.36,1.67,1.67,0,0,0-.41.59,2.06,2.06,0,0,0-.15.81,2.11,2.11,0,0,0,.15.81,1.61,1.61,0,0,0,.4.59,1.71,1.71,0,0,0,.6.36,2.13,2.13,0,0,0,.71.12v-.42a1.68,1.68,0,0,1-.53-.09,1.26,1.26,0,0,1-.77-.73,1.67,1.67,0,0,1-.11-.64,1.75,1.75,0,0,1,.11-.64,1.23,1.23,0,0,1,.3-.46,1.29,1.29,0,0,1,.45-.27,1.73,1.73,0,0,1,.55-.09Z" transform="translate(-122.62 -99.33)"/><polygon class="cls-3" points="1.8 20.03 0.57 20.03 0.57 22.43 0.17 22.43 0.17 19.74 2.21 19.74 2.21 22.43 1.8 22.43 1.8 20.03"/><path class="cls-3" d="M127.12,120.34h.09a.56.56,0,0,0,.22-.07.38.38,0,0,0,.15-.16.6.6,0,0,0,.06-.28.48.48,0,0,0-.06-.25.39.39,0,0,0-.15-.14.57.57,0,0,0-.2-.06h-.11v-.29l.23,0a1,1,0,0,1,.33.09.68.68,0,0,1,.26.23.71.71,0,0,1,.1.41.78.78,0,0,1-.1.41.72.72,0,0,1-.25.25,1,1,0,0,1-.35.12l-.23,0Zm-.51-1v1h.51v.29h-.51v1.13h-.41v-2.69h.92v.29h-.51Z" transform="translate(-122.62 -99.33)"/><path class="cls-3" d="M130.33,119.29h0V119h0a1.22,1.22,0,0,1,.52.1.85.85,0,0,1,.34.28,1.21,1.21,0,0,1,.19.44,2.64,2.64,0,0,1,.06.58,2.85,2.85,0,0,1-.05.58,1.18,1.18,0,0,1-.18.44.82.82,0,0,1-.34.28,1.25,1.25,0,0,1-.53.1h0v-.27h0a.61.61,0,0,0,.33-.08.52.52,0,0,0,.2-.23,1.17,1.17,0,0,0,.1-.35,3.65,3.65,0,0,0,0-.47,3.91,3.91,0,0,0,0-.45,1.14,1.14,0,0,0-.09-.36.55.55,0,0,0-.2-.23A.6.6,0,0,0,130.33,119.29Zm0,0a.6.6,0,0,0-.33.08.55.55,0,0,0-.2.23,1.14,1.14,0,0,0-.09.36,3.73,3.73,0,0,0,0,.45,3.65,3.65,0,0,0,0,.47,1.17,1.17,0,0,0,.1.35.52.52,0,0,0,.2.23.61.61,0,0,0,.33.08v.27a1.21,1.21,0,0,1-.52-.1.87.87,0,0,1-.34-.28,1.21,1.21,0,0,1-.19-.44,2.76,2.76,0,0,1-.06-.58,2.65,2.65,0,0,1,.06-.58,1.18,1.18,0,0,1,.19-.44.87.87,0,0,1,.34-.28,1.2,1.2,0,0,1,.51-.1Z" transform="translate(-122.62 -99.33)"/><polygon class="cls-3" points="11.06 22.43 10.66 22.43 10.66 20.03 9.88 20.03 9.88 19.74 11.86 19.74 11.86 20.03 11.06 20.03 11.06 22.43"/><polygon class="cls-3" points="13.45 21.81 13.78 21.26 14.71 19.74 15.09 19.74 15.09 22.43 14.71 22.43 14.71 20.36 14.7 20.36 14.4 20.86 13.43 22.43 13.05 22.43 13.05 19.74 13.43 19.74 13.43 21.81 13.45 21.81"/><path class="cls-3" d="M140.66,121a.45.45,0,0,0-.06-.23.47.47,0,0,0-.15-.16.7.7,0,0,0-.22-.09l-.17,0v-.28a.73.73,0,0,0,.31-.1.38.38,0,0,0,.18-.35.31.31,0,0,0-.06-.19.42.42,0,0,0-.14-.12.59.59,0,0,0-.19-.06h-.1v-.29a1.51,1.51,0,0,1,.32,0,1,1,0,0,1,.3.12.61.61,0,0,1,.2.2.53.53,0,0,1,.08.29.56.56,0,0,1-.15.38.75.75,0,0,1-.39.23h0a.82.82,0,0,1,.48.23.65.65,0,0,1,.16.45.66.66,0,0,1-.07.3.71.71,0,0,1-.19.24.91.91,0,0,1-.29.15,1.12,1.12,0,0,1-.35.05h-.11v-.28l.17,0a.65.65,0,0,0,.22-.08.41.41,0,0,0,.15-.15A.49.49,0,0,0,140.66,121Zm-.6-.51h-.6v1h.6v.28h-1v-2.69h1v.29h-.6v.84h.6Z" transform="translate(-122.62 -99.33)"/><path class="cls-3" d="M143.33,119.29h0V119h0a1.22,1.22,0,0,1,.51.1.85.85,0,0,1,.34.28,1.21,1.21,0,0,1,.19.44,2.65,2.65,0,0,1,.06.58,2.85,2.85,0,0,1-.05.58,1.18,1.18,0,0,1-.18.44.82.82,0,0,1-.34.28,1.25,1.25,0,0,1-.53.1h0v-.27h0a.61.61,0,0,0,.33-.08.52.52,0,0,0,.2-.23,1.17,1.17,0,0,0,.1-.35,3.66,3.66,0,0,0,0-.47,3.93,3.93,0,0,0,0-.45,1.14,1.14,0,0,0-.09-.36.55.55,0,0,0-.2-.23A.6.6,0,0,0,143.33,119.29Zm0,0a.6.6,0,0,0-.33.08.55.55,0,0,0-.2.23,1.15,1.15,0,0,0-.09.36,3.73,3.73,0,0,0,0,.45,3.69,3.69,0,0,0,0,.47,1.18,1.18,0,0,0,.1.35.52.52,0,0,0,.2.23.61.61,0,0,0,.33.08v.27a1.21,1.21,0,0,1-.52-.1.87.87,0,0,1-.34-.28,1.22,1.22,0,0,1-.18-.44,2.75,2.75,0,0,1-.06-.58,2.67,2.67,0,0,1,.06-.58,1.18,1.18,0,0,1,.19-.44.87.87,0,0,1,.34-.28,1.2,1.2,0,0,1,.51-.1Z" transform="translate(-122.62 -99.33)"/><path class="cls-3" d="M147.3,121a.45.45,0,0,0-.06-.23.47.47,0,0,0-.15-.16.7.7,0,0,0-.22-.09l-.17,0v-.28a.73.73,0,0,0,.31-.1.38.38,0,0,0,.17-.35.31.31,0,0,0-.06-.19.42.42,0,0,0-.14-.12.59.59,0,0,0-.19-.06h-.1v-.29a1.52,1.52,0,0,1,.32,0,1,1,0,0,1,.3.12.61.61,0,0,1,.2.2.54.54,0,0,1,.08.29.56.56,0,0,1-.15.38.75.75,0,0,1-.39.23h0a.81.81,0,0,1,.48.23.65.65,0,0,1,.16.45.66.66,0,0,1-.07.3.71.71,0,0,1-.19.24.91.91,0,0,1-.29.15,1.13,1.13,0,0,1-.35.05h-.11v-.28l.17,0a.64.64,0,0,0,.22-.08.41.41,0,0,0,.15-.15A.49.49,0,0,0,147.3,121Zm-.6-.51h-.6v1h.6v.28h-1v-2.69h1v.29h-.6v.84h.6Z" transform="translate(-122.62 -99.33)"/><polygon class="cls-3" points="26.75 21.81 27.08 21.26 28.02 19.74 28.4 19.74 28.4 22.43 28.02 22.43 28.02 20.36 28 20.36 27.71 20.86 26.74 22.43 26.36 22.43 26.36 19.74 26.74 19.74 26.74 21.81 26.75 21.81"/><path class="cls-3" d="M153.3,120.34h.09a.56.56,0,0,0,.22-.07.38.38,0,0,0,.15-.16.59.59,0,0,0,.06-.28.47.47,0,0,0-.06-.25.39.39,0,0,0-.15-.14.57.57,0,0,0-.2-.06h-.11v-.29l.23,0a1,1,0,0,1,.33.09.68.68,0,0,1,.26.23.71.71,0,0,1,.1.41.78.78,0,0,1-.1.41.72.72,0,0,1-.25.25,1,1,0,0,1-.34.12l-.23,0Zm-.51-1v1h.51v.29h-.51v1.13h-.41v-2.69h.92v.29h-.51Z" transform="translate(-122.62 -99.33)"/><path class="cls-3" d="M157,119.08h.43l-.91,2.08a1.63,1.63,0,0,1-.18.33.76.76,0,0,1-.2.2.7.7,0,0,1-.26.1,2.21,2.21,0,0,1-.36,0l0-.25.24,0,.17-.06a.46.46,0,0,0,.13-.11.65.65,0,0,0,.1-.17l0-.09-.21-.14-.77-1.87h.44l.52,1.41.12.32h0l.13-.32Z" transform="translate(-122.62 -99.33)"/><path class="cls-3" d="M160,121.75a1.56,1.56,0,0,1-.48.07,1.22,1.22,0,0,1-.52-.1.89.89,0,0,1-.34-.29,1.23,1.23,0,0,1-.19-.44,2.5,2.5,0,0,1-.06-.56,2.34,2.34,0,0,1,.06-.53,1.35,1.35,0,0,1,.19-.45,1,1,0,0,1,.35-.32,1.08,1.08,0,0,1,.53-.12,1.68,1.68,0,0,1,.46.05l.31.11-.15.22a1,1,0,0,0-.28-.09l-.33,0a.59.59,0,0,0-.33.09.65.65,0,0,0-.21.23,1.15,1.15,0,0,0-.12.35,2.34,2.34,0,0,0,0,.43,1.86,1.86,0,0,0,.16.85.54.54,0,0,0,.52.3,1.23,1.23,0,0,0,.36-.05,1.32,1.32,0,0,0,.3-.13l.18.2A1.2,1.2,0,0,1,160,121.75Z" transform="translate(-122.62 -99.33)"/><polygon class="cls-3" points="40.49 21.18 39.22 21.18 39.22 22.43 38.81 22.43 38.81 19.74 39.22 19.74 39.22 20.89 40.49 20.89 40.49 19.74 40.9 19.74 40.9 22.43 40.49 22.43 40.49 21.18"/><path class="cls-3" d="M165.89,119.29h0V119h0a1.22,1.22,0,0,1,.51.1.85.85,0,0,1,.34.28,1.21,1.21,0,0,1,.19.44,2.67,2.67,0,0,1,.06.58,2.86,2.86,0,0,1-.05.58,1.18,1.18,0,0,1-.18.44.82.82,0,0,1-.34.28,1.25,1.25,0,0,1-.53.1h0v-.27h0a.61.61,0,0,0,.33-.08.52.52,0,0,0,.2-.23,1.18,1.18,0,0,0,.1-.35,3.72,3.72,0,0,0,0-.47,4,4,0,0,0,0-.45,1.15,1.15,0,0,0-.09-.36.55.55,0,0,0-.2-.23A.6.6,0,0,0,165.89,119.29Zm0,0a.6.6,0,0,0-.33.08.55.55,0,0,0-.2.23,1.14,1.14,0,0,0-.09.36,3.73,3.73,0,0,0,0,.45,3.69,3.69,0,0,0,0,.47,1.18,1.18,0,0,0,.1.35.52.52,0,0,0,.2.23.61.61,0,0,0,.33.08v.27a1.21,1.21,0,0,1-.52-.1.87.87,0,0,1-.34-.28,1.22,1.22,0,0,1-.19-.44,2.77,2.77,0,0,1-.06-.58,2.65,2.65,0,0,1,.06-.58,1.18,1.18,0,0,1,.19-.44.87.87,0,0,1,.34-.28,1.2,1.2,0,0,1,.51-.1Z" transform="translate(-122.62 -99.33)"/><polygon class="cls-3" points="45.66 19.74 47.37 19.74 47.37 20.03 46.05 20.03 46.05 20.88 47.22 20.88 47.22 21.17 46.05 21.17 46.05 22.15 47.37 22.15 47.37 22.43 45.66 22.43 45.66 19.74"/><path class="cls-3" d="M174.77,121.75a1.56,1.56,0,0,1-.48.07,1.22,1.22,0,0,1-.52-.1.89.89,0,0,1-.34-.29,1.23,1.23,0,0,1-.19-.44,2.5,2.5,0,0,1-.06-.56,2.34,2.34,0,0,1,.06-.53,1.35,1.35,0,0,1,.19-.45,1,1,0,0,1,.35-.32,1.08,1.08,0,0,1,.53-.12,1.68,1.68,0,0,1,.46.05l.31.11-.15.22a1,1,0,0,0-.28-.09l-.33,0a.59.59,0,0,0-.33.09.65.65,0,0,0-.21.23,1.15,1.15,0,0,0-.12.35,2.34,2.34,0,0,0,0,.43,1.86,1.86,0,0,0,.16.85.55.55,0,0,0,.52.3,1.23,1.23,0,0,0,.36-.05,1.32,1.32,0,0,0,.3-.13l.18.2A1.2,1.2,0,0,1,174.77,121.75Z" transform="translate(-122.62 -99.33)"/><path class="cls-3" d="M177.19,120.34h.09a.56.56,0,0,0,.22-.07.38.38,0,0,0,.15-.16.6.6,0,0,0,.06-.28.48.48,0,0,0-.06-.25.39.39,0,0,0-.15-.14.57.57,0,0,0-.2-.06h-.11v-.29l.23,0a1,1,0,0,1,.33.09.68.68,0,0,1,.26.23.71.71,0,0,1,.1.41.78.78,0,0,1-.1.41.72.72,0,0,1-.25.25,1,1,0,0,1-.35.12l-.23,0Zm-.51-1v1h.51v.29h-.51v1.13h-.41v-2.69h.92v.29h-.51Z" transform="translate(-122.62 -99.33)"/><polygon class="cls-3" points="56.78 19.74 58.5 19.74 58.5 20.03 57.18 20.03 57.18 20.88 58.34 20.88 58.34 21.17 57.18 21.17 57.18 22.15 58.5 22.15 58.5 22.43 56.78 22.43 56.78 19.74"/><path class="cls-3" d="M183.56,121.48h.68v-2.12h-.68v-.29h1.09v2.4h.24v.89h-.38v-.61h-.93Zm-.35-2.12,0,.84c0,.18,0,.33,0,.46a2.68,2.68,0,0,1,0,.35,1.25,1.25,0,0,1-.08.26.76.76,0,0,1-.13.21h.68v.29h-1v.61h-.38v-.88h.21a.69.69,0,0,0,.19-.16.75.75,0,0,0,.12-.24,2.1,2.1,0,0,0,.07-.36c0-.14,0-.32,0-.52l.05-1.13h.71v.29Z" transform="translate(-122.62 -99.33)"/><path class="cls-3" d="M187.64,121.75a1.56,1.56,0,0,1-.48.07,1.22,1.22,0,0,1-.52-.1.89.89,0,0,1-.34-.29,1.22,1.22,0,0,1-.19-.44,2.48,2.48,0,0,1-.06-.56,2.32,2.32,0,0,1,.06-.53,1.34,1.34,0,0,1,.19-.45,1,1,0,0,1,.35-.32,1.08,1.08,0,0,1,.53-.12,1.68,1.68,0,0,1,.46.05l.31.11-.15.22a1,1,0,0,0-.28-.09l-.33,0a.59.59,0,0,0-.33.09.65.65,0,0,0-.21.23,1.17,1.17,0,0,0-.12.35,2.35,2.35,0,0,0,0,.43,1.86,1.86,0,0,0,.16.85.54.54,0,0,0,.52.3,1.23,1.23,0,0,0,.36-.05,1.33,1.33,0,0,0,.3-.13l.17.2A1.2,1.2,0,0,1,187.64,121.75Z" transform="translate(-122.62 -99.33)"/><polygon class="cls-3" points="67.49 22.43 67.08 22.43 67.08 20.03 66.3 20.03 66.3 19.74 68.28 19.74 68.28 20.03 67.49 20.03 67.49 22.43"/><path class="cls-3" d="M193.68,121a.45.45,0,0,0-.06-.23.47.47,0,0,0-.15-.16.7.7,0,0,0-.22-.09l-.17,0v-.28a.73.73,0,0,0,.31-.1.38.38,0,0,0,.18-.35.31.31,0,0,0-.06-.19.42.42,0,0,0-.14-.12.59.59,0,0,0-.19-.06h-.1v-.29a1.51,1.51,0,0,1,.32,0,1,1,0,0,1,.3.12.61.61,0,0,1,.2.2.53.53,0,0,1,.08.29.56.56,0,0,1-.15.38.75.75,0,0,1-.39.23h0a.82.82,0,0,1,.48.23.65.65,0,0,1,.16.45.67.67,0,0,1-.07.3.71.71,0,0,1-.19.24.91.91,0,0,1-.29.15,1.12,1.12,0,0,1-.35.05h-.11v-.28l.17,0a.65.65,0,0,0,.23-.08.42.42,0,0,0,.15-.15A.49.49,0,0,0,193.68,121Zm-.6-.51h-.6v1h.6v.28h-1v-2.69h1v.29h-.6v.84h.6Z" transform="translate(-122.62 -99.33)"/><path class="cls-3" d="M196.35,119.29h0V119h0a1.22,1.22,0,0,1,.52.1.85.85,0,0,1,.34.28,1.21,1.21,0,0,1,.19.44,2.67,2.67,0,0,1,.06.58,2.86,2.86,0,0,1-.05.58,1.19,1.19,0,0,1-.18.44.82.82,0,0,1-.34.28,1.25,1.25,0,0,1-.53.1h0v-.27h0a.61.61,0,0,0,.33-.08.52.52,0,0,0,.2-.23,1.17,1.17,0,0,0,.1-.35,3.71,3.71,0,0,0,0-.47,4,4,0,0,0,0-.45,1.15,1.15,0,0,0-.09-.36.55.55,0,0,0-.2-.23A.6.6,0,0,0,196.35,119.29Zm0,0a.6.6,0,0,0-.33.08.55.55,0,0,0-.2.23,1.14,1.14,0,0,0-.09.36,3.73,3.73,0,0,0,0,.45,3.66,3.66,0,0,0,0,.47,1.17,1.17,0,0,0,.1.35.52.52,0,0,0,.2.23.61.61,0,0,0,.33.08v.27a1.21,1.21,0,0,1-.52-.1.87.87,0,0,1-.34-.28,1.22,1.22,0,0,1-.19-.44,2.78,2.78,0,0,1-.05-.58,2.65,2.65,0,0,1,.06-.58,1.18,1.18,0,0,1,.19-.44.87.87,0,0,1,.34-.28,1.2,1.2,0,0,1,.51-.1Z" transform="translate(-122.62 -99.33)"/></svg>