<svg xmlns="http://www.w3.org/2000/svg" width="218" height="248" viewBox="0 0 218 248">
  <metadata><?xpacket begin="﻿" id="W5M0MpCehiHzreSzNTczkc9d"?>
<x:xmpmeta xmlns:x="adobe:ns:meta/" x:xmptk="Adobe XMP Core 5.6-c142 79.160924, 2017/07/13-01:06:39        ">
   <rdf:RDF xmlns:rdf="http://www.w3.org/1999/02/22-rdf-syntax-ns#">
      <rdf:Description rdf:about=""/>
   </rdf:RDF>
</x:xmpmeta>
                                                                                                    
                                                                                                    
                                                                                                    
                                                                                                    
                                                                                                    
                                                                                                    
                                                                                                    
                                                                                                    
                                                                                                    
                                                                                                    
                                                                                                    
                                                                                                    
                                                                                                    
                                                                                                    
                                                                                                    
                                                                                                    
                                                                                                    
                                                                                                    
                                                                                                    
                                                                                                    
                           
<?xpacket end="w"?></metadata>
<defs>
    <style>
      .cls-1 {
        fill: #bebebe;
        fill-rule: evenodd;
      }
    </style>
  </defs>
  <path id="vol_max" data-name="vol max" class="cls-1" d="M414.056,89.15a8.282,8.282,0,0,0-11.818,0,8.571,8.571,0,0,0,.009,11.992,94.7,94.7,0,0,1-.009,132.519,8.574,8.574,0,0,0,.009,12,8.262,8.262,0,0,0,11.817,0A111.843,111.843,0,0,0,414.056,89.15Zm-26.375,26.862a8.262,8.262,0,0,0-11.818,0,8.56,8.56,0,0,0,.01,11.985h-0.01a56.327,56.327,0,0,1,0,78.82,8.559,8.559,0,0,0,.01,11.984,8.242,8.242,0,0,0,11.808,0A73.455,73.455,0,0,0,387.681,116.012Zm-36.66-12.272a6.844,6.844,0,0,0-6.78-6.188,6.706,6.706,0,0,0-3.8,1.18c-0.19.131-.362,0.257-0.526,0.388l-41,30.883a23.625,23.625,0,0,1-2.015,1.522,25.559,25.559,0,0,1-14.413,4.424h-5.1a15.329,15.329,0,0,0-14.223,9.759,14.276,14.276,0,0,0-.762,2.544c-0.11.7-.208,1.4-0.29,2.1a131.13,131.13,0,0,0,0,34.143c0.082,0.676.18,1.36,0.282,2.044a15.483,15.483,0,0,0,14.993,12.311v0.012h4.437c0.218-.012.446-0.012,0.664-0.012,0.236,0,.452,0,0.672.012a25.572,25.572,0,0,1,13.668,4.366,23.667,23.667,0,0,1,2.178,1.641l40.916,30.822V235.7l0.526,0.4a6.713,6.713,0,0,0,3.812,1.18,6.843,6.843,0,0,0,6.752-6.042c0.019-.262.037-0.519,0.055-0.777q1.959-27.311,2.2-55.09V159.456q-0.243-27.915-2.214-55.355C351.039,103.982,351.031,103.87,351.021,103.74Z"/>
  <path id="vol_min" data-name="vol min" class="cls-1" d="M160.88,136.868a11.287,11.287,0,0,0-6.15,1.8V138.7l-1.04.759L93.358,186.948l-1.345,1-0.067.066a10.527,10.527,0,0,0-.1,15.754l1.948,1.419,53.382,40.11h0.031l0.976,0.7a12.652,12.652,0,0,0,7.021,2.093,12.441,12.441,0,0,0,12.5-10.716c0.033-.442.1-0.9,0.1-1.393,2.319-30.629,3.663-56.187,4.032-87.311V148.64c0-.627.033-1.261,0.033-1.9A10.9,10.9,0,0,0,160.88,136.868ZM1.649,133.93c0.031,0.456.067,0.918,0.1,1.373a10.887,10.887,0,0,0,10.885,9.264,11.048,11.048,0,0,0,5.474-1.42l2.319-1.717v-0.013L157.116,39.884l3.426-2.529a0.089,0.089,0,0,0,.036-0.053,23.643,23.643,0,0,0,8.062-17.774c0-.423,0-0.832-0.034-1.241-0.235-3.922-.539-2.482-0.838-6.4,0-.2-0.036-0.423-0.036-0.621A12.474,12.474,0,0,0,155.2.262a12.923,12.923,0,0,0-5.476,1.208,15.868,15.868,0,0,0-1.58.872c-0.335.231-.671,0.475-0.972,0.713l-28.018,20.23L71.287,57.83a40.313,40.313,0,0,1-3.7,2.674A48.577,48.577,0,0,1,40.92,68.38H31.444A28.3,28.3,0,0,0,5.142,85.7a24.869,24.869,0,0,0-1.411,4.51c-0.2,1.241-.368,2.45-0.537,3.711a218.965,218.965,0,0,0-2.048,30.252,92.044,92.044,0,0,0,.5,9.693v0.066Zm213.08-88.454a15.619,15.619,0,0,0-20.692-3.334l-1.58,1.175L7.292,181.263l-1.951,1.453a14.548,14.548,0,0,0-1.913,20,15.556,15.556,0,0,0,21.329,2.779l0.069-.052,185.9-138.3,2.186-1.618A14.661,14.661,0,0,0,214.729,45.476Z"/>
</svg>
