<svg width="33" height="33" xmlns="http://www.w3.org/2000/svg" xmlns:xlink="http://www.w3.org/1999/xlink" viewBox="0 0 208.8 208.8"><defs><path id="a" d="M0 0h208.8v208.8H0z"/></defs><clipPath id="b"><use xlink:href="#a" overflow="visible"/></clipPath><path d="M189.3 0H19.4C8.7 0 0 8.7 0 19.4v169.9c0 10.7 8.7 19.4 19.4 19.4h169.9c10.7 0 19.4-8.7 19.4-19.4V19.4c0-10.7-8.6-19.4-19.4-19.4M64.9 149.7c0 .9-.3 1.7-.9 2.3-.6.6-1.4.9-2.3.9h-6.9c-.9 0-1.7-.3-2.3-.9-.6-.6-.8-1.4-.8-2.3V70.3L28 88.5c-.7.6-1.4.8-2.1.8-.8 0-1.6-.5-2.4-1.4l-3.4-4.4c-.5-.7-.7-1.3-.7-2 0-1 .5-1.9 1.4-2.5l30.6-23.7c1-.7 2.3-1 3.7-1h6.6c.9 0 1.7.3 2.3.9.6.6.9 1.4.9 2.3v92.2zm76.7-12.4c-2.9 5.2-7 9.4-12.5 12.5-5.4 3.1-11.9 4.6-19.3 4.6-7.5 0-14-1.5-19.5-4.6-5.5-3.1-9.7-7.2-12.5-12.3-2.9-5.2-4.3-10.8-4.3-16.9 0-8.1 3.2-16.7 9.7-25.9l26.9-37.5c.1-.1.4-.4.8-1s1-1 1.6-1.3c.7-.3 1.4-.5 2.3-.5h6.9c.8 0 1.5.3 2 .9.5.6.8 1.3.8 2.2 0 .5-.2 1.1-.7 1.8L103.2 88c2.4-.6 5.2-.8 8.2-.8 6.9 0 12.9 1.5 18.1 4.6 5.2 3.1 9.2 7.1 12.1 12.1 2.9 5 4.3 10.5 4.3 16.5s-1.5 11.6-4.3 16.9m49.7-37.8c0 1-.4 1.9-1.1 2.6-.7.7-1.6 1.1-2.6 1.1h-13.4v13.6c0 1-.4 1.9-1.1 2.6-.7.7-1.6 1.1-2.6 1.1h-2.4c-1 0-1.9-.4-2.6-1.1-.7-.7-1.1-1.6-1.1-2.6v-13.6H151c-1 0-1.9-.4-2.6-1.1-.7-.7-1.1-1.6-1.1-2.6v-2.2c0-1 .4-1.9 1.1-2.6.7-.7 1.6-1.1 2.6-1.1h13.4V80.5c0-1.4.6-2.3 1.1-2.7.7-.6 1.6-1 2.6-1h2.4c1.4 0 2.2.6 2.7 1 .5.5 1 1.3 1 2.7v13.1h13.4c1 0 1.9.4 2.6 1.1.7.7 1.1 1.6 1.1 2.6v2.2zm-62 9.2c2.1 3.3 3.2 7.3 3.2 11.9 0 4.7-1 8.7-3.1 12-2.1 3.3-4.8 5.8-8.3 7.5-3.5 1.7-7.3 2.5-11.4 2.5-4 0-7.8-.8-11.3-2.5-3.5-1.7-6.2-4.2-8.3-7.5-2.1-3.3-3.1-7.3-3.1-12 0-4.6 1-8.6 3.1-11.9 2.1-3.3 4.8-5.9 8.3-7.6 3.5-1.7 7.2-2.6 11.3-2.6 4 0 7.8.9 11.3 2.6 3.4 1.7 6.2 4.2 8.3 7.6" clip-path="url(#b)" fill="#fff"/></svg>