<svg width="100" height="100" version="1.1" id="Layer_1" xmlns="http://www.w3.org/2000/svg" xmlns:xlink="http://www.w3.org/1999/xlink" x="0px" y="0px"
	 viewBox="0 0 208.8 208.8" style="enable-background:new 0 0 208.8 208.8;" xml:space="preserve">
<style type="text/css">
	.st0{clip-path:url(#SVGID_2_);fill:#FFFFFF;}
</style>
<g>
	<defs>
		<rect id="SVGID_1_" width="208.8" height="208.8"/>
	</defs>
	<clipPath id="SVGID_2_">
		<use xlink:href="#SVGID_1_"  style="overflow:visible;"/>
	</clipPath>
	<path class="st0" d="M189.3,0H19.4C8.7,0,0,8.7,0,19.4v169.9c0,10.7,8.7,19.4,19.4,19.4h169.9c10.7,0,19.4-8.7,19.4-19.4V19.4
		C208.7,8.7,200.1,0,189.3,0 M64.9,149.7c0,0.9-0.3,1.7-0.9,2.3c-0.6,0.6-1.4,0.9-2.3,0.9h-6.9c-0.9,0-1.7-0.3-2.3-0.9
		c-0.6-0.6-0.8-1.4-0.8-2.3V70.3L28,88.5c-0.7,0.6-1.4,0.8-2.1,0.8c-0.8,0-1.6-0.5-2.4-1.4l-3.4-4.4c-0.5-0.7-0.7-1.3-0.7-2
		c0-1,0.5-1.9,1.4-2.5l30.6-23.7c1-0.7,2.3-1,3.7-1h6.6c0.9,0,1.7,0.3,2.3,0.9c0.6,0.6,0.9,1.4,0.9,2.3V149.7z M141.6,137.3
		c-2.9,5.2-7,9.4-12.5,12.5c-5.4,3.1-11.9,4.6-19.3,4.6c-7.5,0-14-1.5-19.5-4.6c-5.5-3.1-9.7-7.2-12.5-12.3
		c-2.9-5.2-4.3-10.8-4.3-16.9c0-8.1,3.2-16.7,9.7-25.9l26.9-37.5c0.1-0.1,0.4-0.4,0.8-1c0.4-0.6,1-1,1.6-1.3
		c0.7-0.3,1.4-0.5,2.3-0.5h6.9c0.8,0,1.5,0.3,2,0.9c0.5,0.6,0.8,1.3,0.8,2.2c0,0.5-0.2,1.1-0.7,1.8L103.2,88
		c2.4-0.6,5.2-0.8,8.2-0.8c6.9,0,12.9,1.5,18.1,4.6c5.2,3.1,9.2,7.1,12.1,12.1c2.9,5,4.3,10.5,4.3,16.5
		C145.9,126.4,144.4,132,141.6,137.3 M191.3,99.5c0,1-0.4,1.9-1.1,2.6c-0.7,0.7-1.6,1.1-2.6,1.1h-13.4v13.6c0,1-0.4,1.9-1.1,2.6
		c-0.7,0.7-1.6,1.1-2.6,1.1h-2.4c-1,0-1.9-0.4-2.6-1.1c-0.7-0.7-1.1-1.6-1.1-2.6v-13.6H151c-1,0-1.9-0.4-2.6-1.1
		c-0.7-0.7-1.1-1.6-1.1-2.6v-2.2c0-1,0.4-1.9,1.1-2.6c0.7-0.7,1.6-1.1,2.6-1.1h13.4V80.5c0-1.4,0.6-2.3,1.1-2.7c0.7-0.6,1.6-1,2.6-1
		h2.4c1.4,0,2.2,0.6,2.7,1c0.5,0.5,1,1.3,1,2.7v13.1h13.4c1,0,1.9,0.4,2.6,1.1c0.7,0.7,1.1,1.6,1.1,2.6V99.5z M129.3,108.7
		c2.1,3.3,3.2,7.3,3.2,11.9c0,4.7-1,8.7-3.1,12c-2.1,3.3-4.8,5.8-8.3,7.5c-3.5,1.7-7.3,2.5-11.4,2.5c-4,0-7.8-0.8-11.3-2.5
		c-3.5-1.7-6.2-4.2-8.3-7.5c-2.1-3.3-3.1-7.3-3.1-12c0-4.6,1-8.6,3.1-11.9c2.1-3.3,4.8-5.9,8.3-7.6c3.5-1.7,7.2-2.6,11.3-2.6
		c4,0,7.8,0.9,11.3,2.6C124.4,102.8,127.2,105.3,129.3,108.7"/>
</g>
</svg>
