<svg xmlns="http://www.w3.org/2000/svg" width="334" height="335" viewBox="0 0 334 335"><path d="M333.471 141.83l-23.682 24.1L334 189.51 304.448 206 321 235.4l-33.027 7.54 7.55 32.85-33.826-2.01-2.063 33.63L227.748 296l-11.509 31.69-27.36-19.88L168.857 335l-20.62-26.74-26.914 20.47-12.208-31.43-31.624 12.11-2.808-33.58-33.774 2.75 6.82-33-33.186-6.82L30.438 209 .528 193.16l23.683-24.1L0 145.49 29.551 129 13 99.6l33.027-7.55-7.55-32.84 33.826 2.01 2.063-33.63L106.251 39 117.76 7.3l27.361 19.88L165.143 0l20.62 26.74 26.913-20.48 12.209 31.44 31.624-12.11 2.808 33.58 33.773-2.76-6.82 33.01 33.186 6.82L303.561 126z" fill-rule="evenodd"/></svg>