<svg xmlns="http://www.w3.org/2000/svg" width="185" height="161"><path data-name="vol max" d="M153.056 2.15a8.282 8.282 0 0 0-11.818 0 8.57 8.57 0 0 0 .009 11.992 94.7 94.7 0 0 1-.009 132.52 8.574 8.574 0 0 0 .009 12 8.262 8.262 0 0 0 11.817 0 111.843 111.843 0 0 0-.008-156.512zm-26.375 26.862a8.261 8.261 0 0 0-11.818 0 8.56 8.56 0 0 0 .01 11.988h-.01a56.327 56.327 0 0 1 0 78.82 8.559 8.559 0 0 0 .01 11.984 8.242 8.242 0 0 0 11.808 0 73.455 73.455 0 0 0 0-102.792zM90.021 16.74a6.845 6.845 0 0 0-6.78-6.188 6.705 6.705 0 0 0-3.8 1.18c-.19.131-.362.258-.526.388L37.916 43a23.7 23.7 0 0 1-2.016 1.525 25.558 25.558 0 0 1-14.413 4.424h-5.1a15.329 15.329 0 0 0-14.223 9.759 14.259 14.259 0 0 0-.764 2.544c-.11.7-.208 1.4-.29 2.1a131.1 131.1 0 0 0 0 34.143c.082.677.18 1.361.282 2.045a15.488 15.488 0 0 0 14.994 12.311v.012h4.437c.218-.012.446-.012.664-.012.236 0 .453 0 .672.012a25.57 25.57 0 0 1 13.668 4.366 23.656 23.656 0 0 1 2.178 1.641l40.917 30.82v.01l.526.4a6.716 6.716 0 0 0 3.812 1.18 6.843 6.843 0 0 0 6.751-6.042c.02-.262.038-.519.056-.777q1.959-27.311 2.2-55.09V72.456Q92.02 44.54 90.049 17.1l-.028-.36z" fill="#bebebe" fill-rule="evenodd"/></svg>