<svg xmlns="http://www.w3.org/2000/svg" width="185" height="161" viewBox="0 0 185 161">
  <metadata><?xpacket begin="﻿" id="W5M0MpCehiHzreSzNTczkc9d"?>
<x:xmpmeta xmlns:x="adobe:ns:meta/" x:xmptk="Adobe XMP Core 5.6-c142 79.160924, 2017/07/13-01:06:39        ">
   <rdf:RDF xmlns:rdf="http://www.w3.org/1999/02/22-rdf-syntax-ns#">
      <rdf:Description rdf:about=""/>
   </rdf:RDF>
</x:xmpmeta>
                                                                                                    
                                                                                                    
                                                                                                    
                                                                                                    
                                                                                                    
                                                                                                    
                                                                                                    
                                                                                                    
                                                                                                    
                                                                                                    
                                                                                                    
                                                                                                    
                                                                                                    
                                                                                                    
                                                                                                    
                                                                                                    
                                                                                                    
                                                                                                    
                                                                                                    
                                                                                                    
                           
<?xpacket end="w"?></metadata>
<defs>
    <style>
      .cls-1 {
        fill: #bebebe;
        fill-rule: evenodd;
      }
    </style>
  </defs>
  <path id="vol_max" data-name="vol max" class="cls-1" d="M153.056,2.15a8.282,8.282,0,0,0-11.818,0,8.57,8.57,0,0,0,.009,11.992,94.7,94.7,0,0,1-.009,132.52,8.574,8.574,0,0,0,.009,12,8.262,8.262,0,0,0,11.817,0A111.843,111.843,0,0,0,153.056,2.15ZM126.681,29.012a8.261,8.261,0,0,0-11.818,0A8.56,8.56,0,0,0,114.873,41h-0.01a56.327,56.327,0,0,1,0,78.82,8.559,8.559,0,0,0,.01,11.984,8.242,8.242,0,0,0,11.808,0A73.455,73.455,0,0,0,126.681,29.012ZM90.021,16.74a6.845,6.845,0,0,0-6.78-6.188,6.705,6.705,0,0,0-3.8,1.18c-0.19.131-.362,0.258-0.526,0.388L37.916,43A23.7,23.7,0,0,1,35.9,44.525a25.558,25.558,0,0,1-14.413,4.424h-5.1A15.329,15.329,0,0,0,2.164,58.708,14.259,14.259,0,0,0,1.4,61.252c-0.11.7-.208,1.4-0.29,2.1a131.1,131.1,0,0,0,0,34.143c0.082,0.677.18,1.361,0.282,2.045a15.488,15.488,0,0,0,14.994,12.311v0.012h4.437c0.218-.012.446-0.012,0.664-0.012,0.236,0,.453,0,0.672.012a25.57,25.57,0,0,1,13.668,4.366,23.656,23.656,0,0,1,2.178,1.641L78.922,148.69V148.7l0.526,0.4a6.716,6.716,0,0,0,3.812,1.18,6.843,6.843,0,0,0,6.751-6.042c0.02-.262.038-0.519,0.056-0.777q1.959-27.311,2.2-55.09V72.456Q92.02,44.54,90.049,17.1C90.039,16.982,90.031,16.871,90.021,16.74Z"/>
</svg>
